<svg width="19" height="19" viewBox="0 0 19 19" fill="none" xmlns="http://www.w3.org/2000/svg">
<g id="maki:arrow">
<path id="Vector" d="M10.5049 2.90455C10.7425 2.66709 11.0646 2.53369 11.4005 2.53369C11.7363 2.53369 12.0585 2.66709 12.296 2.90455L17.996 8.60455C18.2335 8.84209 18.3669 9.16421 18.3669 9.50009C18.3669 9.83596 18.2335 10.1581 17.996 10.3956L12.296 16.0956C12.0571 16.3264 11.7371 16.454 11.405 16.4511C11.0729 16.4483 10.7552 16.315 10.5204 16.0802C10.2855 15.8453 10.1523 15.5276 10.1494 15.1955C10.1465 14.8634 10.2742 14.5435 10.5049 14.3046L13.9338 10.7668H1.90046C1.56451 10.7668 1.24233 10.6333 1.00479 10.3958C0.767241 10.1582 0.633789 9.83603 0.633789 9.50009C0.633789 9.16415 0.767241 8.84197 1.00479 8.60442C1.24233 8.36687 1.56451 8.23342 1.90046 8.23342H13.9338L10.5049 4.69562C10.2675 4.45809 10.1341 4.13596 10.1341 3.80009C10.1341 3.46421 10.2675 3.14209 10.5049 2.90455Z" fill="#122568"/>
</g>
</svg>
