<svg width="58" height="52" viewBox="0 0 58 52" fill="none" xmlns="http://www.w3.org/2000/svg">
<g id="badevaerelse_2.svg" clip-path="url(#clip0_7101_96)">
<g id="Group">
<path id="Vector" d="M52.4951 16.3612C53.7981 16.3612 54.8544 15.3049 54.8544 14.0019C54.8544 12.6989 53.7981 11.6426 52.4951 11.6426C51.192 11.6426 50.1357 12.6989 50.1357 14.0019C50.1357 15.3049 51.192 16.3612 52.4951 16.3612Z" fill="white"/>
<path id="Vector_2" d="M40.3048 49.9814H19.9557C18.776 49.9814 17.6946 49.9814 16.7116 49.8831V51.9475H40.3048V49.9814ZM15.237 42.117C6.97939 42.117 4.81667 38.873 2.26074 34.7441C3.4404 44.9679 8.06074 48.0153 19.9557 48.0153H38.0438C49.9387 48.0153 54.559 44.9679 55.7387 34.7441C54.0675 37.4967 52.4946 39.856 49.1523 41.134V44.0831H30.4743V42.117H15.237Z" fill="#D0D3E1"/>
<path id="Vector_3" d="M33.0301 20.0965C31.3589 20.0965 29.786 21.1779 29.1962 22.849L28.9012 23.7338L28.0165 23.4389C27.6233 23.3406 27.2301 23.2423 26.8368 23.2423C24.4775 23.3406 23.5928 25.405 23.5928 27.3711H30.4741V26.388H49.1521V27.3711H53.4775C53.4775 25.405 51.9046 23.8321 49.9385 23.8321C49.6436 23.8321 49.3487 23.8321 48.9555 24.0287L48.0707 24.2253L47.7758 23.4389C47.0877 21.6694 45.1216 20.6863 43.1555 21.3745L42.369 21.6694L41.9758 20.9812C41.2877 19.8999 40.2063 19.3101 38.9284 19.3101C37.9453 19.3101 36.9623 19.8016 36.2741 20.588L35.7826 21.1779L35.0945 20.7846C34.4063 20.2931 33.7182 20.0965 33.0301 20.0965ZM47.186 42.1168V28.3541H32.4402V42.1168H47.186ZM34.4063 36.2185H45.2199V38.1846H34.4063V36.2185Z" fill="white"/>
<g id="Group_2">
<path id="Vector_4" d="M40.4034 7.71028C42.5661 7.71028 44.2373 5.94079 44.2373 3.87638C44.2373 1.81197 42.4678 0.0424805 40.4034 0.0424805C38.339 0.0424805 36.5695 1.81197 36.5695 3.87638C36.5695 5.94079 38.2407 7.71028 40.4034 7.71028ZM40.4034 1.91028C41.3864 1.91028 42.2712 2.79502 42.2712 3.87638C42.2712 4.95773 41.3864 5.74418 40.4034 5.74418C39.322 5.74418 38.5356 4.85943 38.5356 3.87638C38.5356 2.89333 39.322 1.91028 40.4034 1.91028ZM52.4949 18.4255C54.8542 18.4255 56.8203 16.4594 56.8203 14.1001C56.8203 11.7408 54.8542 9.77468 52.4949 9.77468C50.1356 9.67638 48.1695 11.6425 48.1695 14.0018C48.1695 16.3611 50.1356 18.4255 52.4949 18.4255ZM52.4949 11.6425C53.7729 11.6425 54.8542 12.7238 54.8542 14.0018C54.8542 15.2798 53.7729 16.3611 52.4949 16.3611C51.2169 16.3611 50.1356 15.3781 50.1356 14.0018C50.1356 12.6255 51.2169 11.6425 52.4949 11.6425ZM55.4441 27.3713C55.4441 24.3238 52.9864 21.8662 49.939 21.8662H49.2508C48.0712 19.8018 45.6136 18.6221 43.2542 19.212C42.1729 17.934 40.6983 17.2459 39.0271 17.2459C37.6508 17.2459 36.3729 17.7374 35.3898 18.6221C34.7017 18.3272 33.9153 18.1306 33.1288 18.1306C30.8678 18.1306 28.8034 19.4086 27.8203 21.3747C27.5254 21.3747 27.2305 21.2764 26.9356 21.2764C23.7898 21.3747 21.6271 23.4391 21.6271 27.3713H8.84746V23.3408C8.84746 21.3747 10.5186 19.7035 12.5831 19.7035C14.6475 19.7035 16.3186 21.3747 16.3186 23.3408H18.2847C18.2847 20.3916 15.7288 17.7374 12.5831 17.7374C9.53559 17.7374 6.88136 20.195 6.88136 23.3408V27.3713H0V28.3543C0 40.4459 2.45763 46.4425 9.83051 48.8018V51.9476H16.7119V49.8832C17.6949 49.9815 18.8746 49.9815 19.9559 49.9815H40.3051V51.9476H47.1864V48.9984C55.2475 46.934 58 40.9374 58 28.3543V27.3713H55.4441ZM26.9356 23.3408C27.3288 23.3408 27.722 23.3408 28.1153 23.5374L29 23.8323L29.2949 22.9476C29.8847 21.3747 31.3593 20.195 33.1288 20.195C33.8169 20.195 34.5051 20.3916 35.0949 20.6865L35.7831 21.0798L36.2746 20.4899C36.9627 19.7035 37.9458 19.212 38.9288 19.212C40.1085 19.212 41.2881 19.8018 41.9763 20.8832L42.3695 21.5713L43.1559 21.2764C45.122 20.4899 47.0881 21.5713 47.7763 23.3408L48.0712 24.1272L48.9559 23.9306C49.3492 23.8323 49.6441 23.734 49.939 23.734C51.9051 23.734 53.478 25.3069 53.478 27.273H49.1525V26.2899H30.4746V27.273H23.5932C23.5932 25.4052 24.478 23.3408 26.9356 23.3408ZM47.1864 28.3543V42.1171H32.4407V28.3543H47.1864ZM38.0441 48.0154H19.9559C6.09491 48.0154 2.16271 43.9849 1.9661 29.3374H30.4746V44.0832H49.1525V29.3374H56.0339C55.8373 43.9849 51.9051 48.0154 38.0441 48.0154Z" fill="#122568"/>
<path id="Vector_5" d="M34.4072 36.2188H45.2208V38.1849H34.4072V36.2188Z" fill="#122568"/>
</g>
</g>
</g>
<defs>
<clipPath id="clip0_7101_96">
<rect width="58" height="51.9051" fill="white" transform="translate(0 0.0424805)"/>
</clipPath>
</defs>
</svg>
