<svg width="58" height="28" viewBox="0 0 58 28" fill="none" xmlns="http://www.w3.org/2000/svg">
<g id="sovevaerelse_2.svg" clip-path="url(#clip0_7101_61)">
<g id="Group">
<g id="Group_2">
<path id="Vector" d="M2.85254 21.6016H55.1476V23.5032H2.85254V21.6016ZM11.4099 25.4048H46.5902V27.3065H11.4099V25.4048Z" fill="#D0D3E1"/>
</g>
<g id="Group_3">
<path id="Vector_2" d="M23.7701 11.1426H12.3603C11.1242 11.1426 9.88814 11.9032 9.50781 13.0442H26.6226C26.3373 11.9032 25.0062 11.1426 23.7701 11.1426ZM45.734 11.1426H34.3242C33.0881 11.1426 32.0422 11.9032 31.6619 13.0442H48.4914C47.9209 11.9032 46.875 11.1426 45.734 11.1426Z" fill="white"/>
</g>
<path id="Vector_3" d="M56.0984 1.63441C55.0525 1.63441 54.1967 2.49015 54.1967 3.53605C54.1967 4.20163 54.577 4.8672 55.1475 5.15245V7.43441C51.7246 5.24753 42.882 0.683594 28.4295 0.683594C14.3574 0.683594 6.08525 5.15245 2.85246 7.33933V5.15245C3.42295 4.8672 3.80328 4.20163 3.80328 3.53605C3.80328 2.49015 2.94754 1.63441 1.90164 1.63441C0.855738 1.63441 0 2.49015 0 3.53605C0 4.20163 0.380328 4.8672 0.95082 5.15245V25.4049H4.7541V27.3065H11.4098V25.4049H46.5902V27.3065H53.2459V25.4049H57.0492V5.15245C57.6197 4.8672 58 4.20163 58 3.53605C58 2.49015 57.1443 1.63441 56.0984 1.63441ZM28.4295 2.58523C44.2131 2.58523 53.341 8.38523 55.1475 9.71638V13.7098C54.3869 13.2344 53.5311 13.0442 52.5803 13.0442H50.2984C49.823 10.8574 47.9213 9.24097 45.6393 9.24097H34.2295C31.9475 9.24097 30.0459 10.8574 29.5705 13.0442H28.4295C27.9541 10.8574 26.0525 9.24097 23.7705 9.24097H12.3607C10.0787 9.24097 8.17705 10.8574 7.70164 13.0442H5.41967C4.46885 13.0442 3.61311 13.3295 2.85246 13.7098V9.6213C4.46885 8.38523 12.6459 2.58523 28.4295 2.58523ZM48.4918 13.0442H31.377C31.7574 11.9033 32.9934 11.1426 34.2295 11.1426H45.6393C46.8754 11.1426 48.1115 11.9033 48.4918 13.0442ZM26.4328 13.0442H9.69836C10.0787 11.9033 11.1246 11.1426 12.3607 11.1426H23.7705C25.0066 11.1426 26.0525 11.9033 26.4328 13.0442ZM55.1475 23.5033H2.85246V16.7524C2.85246 15.8016 3.99344 14.9459 5.41967 14.9459H52.3902C53.8164 14.9459 55.1475 15.8016 55.1475 16.7524V23.5033Z" fill="#122568"/>
</g>
</g>
<defs>
<clipPath id="clip0_7101_61">
<rect width="58" height="26.623" fill="white" transform="translate(0 0.683594)"/>
</clipPath>
</defs>
</svg>
