<svg width="58" height="42" viewBox="0 0 58 42" fill="none" xmlns="http://www.w3.org/2000/svg">
<g id="boernevaerelse_2.svg" clip-path="url(#clip0_7101_129)">
<g id="Group">
<path id="Vector" d="M13.0498 39.4824H45.0534V41.761H13.0498V39.4824Z" fill="#D0D3E1"/>
<g id="Group_2">
<path id="Vector_2" d="M2.38184 9.65381H5.90326V11.9324H2.38184V9.65381ZM17.7104 9.65381H55.6175V11.9324H17.7104V9.65381ZM8.28541 9.65381H15.4318V11.9324H8.28541V9.65381Z" fill="#D0D3E1"/>
</g>
<g id="Group_3">
<path id="Vector_3" d="M17.7104 34.8218H55.6175V37.1003H17.7104V34.8218ZM2.38184 34.8218H5.90326V37.1003H2.38184V34.8218ZM8.28541 34.8218H15.4318V37.1003H8.28541V34.8218Z" fill="#D0D3E1"/>
</g>
<path id="Vector_4" d="M48.575 2.61133H25.0643C24.3393 2.61133 23.6143 3.23276 23.6143 3.95776V4.8899H49.7143V3.95776C49.7143 3.23276 49.1964 2.61133 48.575 2.61133ZM49.7143 29.3328C49.7143 28.5042 49.1964 27.9863 48.575 27.9863H25.0643C24.3393 27.9863 23.6143 28.6078 23.6143 29.3328V30.3685H49.7143V29.3328Z" fill="white"/>
<path id="Vector_5" d="M55.6179 0.332575V4.88972H52.0964V3.95758C52.0964 1.88615 50.6464 0.229004 48.575 0.229004H25.0643C22.8893 0.229004 21.2321 1.88615 21.2321 3.95758V4.88972H2.38214V1.47186H0V39.4826H4.76429V41.7611H13.05V39.4826H45.0536V41.7611H53.3393V39.4826H58V0.332575H55.6179ZM2.38214 7.37543H5.90357V11.9326H2.38214V7.37543ZM2.38214 14.1076H5.90357V30.3683H2.38214V14.1076ZM2.38214 37.204V32.6469H5.90357V37.204H2.38214ZM15.4321 37.204H8.28571V32.6469H15.4321V37.204ZM15.4321 30.3683H8.28571V28.0897H15.4321V30.3683ZM15.4321 25.7076H8.28571V23.429H15.4321V25.7076ZM15.4321 21.0469H8.28571V18.7683H15.4321V21.0469ZM15.4321 16.5933H8.28571V14.3147H15.4321V16.5933ZM15.4321 11.9326H8.28571V7.37543H15.4321V11.9326ZM23.7179 4.16472C23.7179 3.33615 24.3393 2.81829 25.1679 2.81829H48.575C49.3 2.81829 49.7143 3.43972 49.7143 4.16472V5.09686H23.7179V4.16472ZM55.6179 37.204H17.7107V32.6469H55.6179V37.204ZM49.7143 30.3683H23.7179V29.3326C23.7179 28.504 24.3393 27.9861 25.1679 27.9861H48.575C49.3 27.9861 49.7143 28.6076 49.7143 29.3326V30.3683ZM55.6179 30.3683H52.0964V29.3326C52.0964 27.2611 50.6464 25.604 48.575 25.604H25.0643C22.8893 25.604 21.2321 27.2611 21.2321 29.3326V30.3683H17.7107V14.1076H55.6179V30.3683ZM55.6179 11.9326H17.7107V7.37543H55.6179V11.9326Z" fill="#122568"/>
</g>
</g>
<defs>
<clipPath id="clip0_7101_129">
<rect width="58" height="41.5321" fill="white" transform="translate(0 0.229004)"/>
</clipPath>
</defs>
</svg>
