<svg width="37" height="24" viewBox="0 0 37 24" fill="none" xmlns="http://www.w3.org/2000/svg">
<g id="diners-club-international-2.svg" clip-path="url(#clip0_7130_3718)">
<path id="Vector" fill-rule="evenodd" clip-rule="evenodd" d="M0.950195 -0.291992H36.9502V24.2915H0.950195V-0.291992Z" fill="white"/>
<g id="Group">
<path id="Vector_2" d="M7.68438 17.2428C7.68438 16.7952 7.45097 16.8254 7.22717 16.8199V16.6908C7.42076 16.7005 7.61985 16.7005 7.81344 16.7005C8.02214 16.7005 8.30498 16.6908 8.67294 16.6908C9.96081 16.6908 10.661 17.5503 10.661 18.4304C10.661 18.922 10.3727 20.1604 8.6139 20.1604C8.3599 20.1604 8.12649 20.1508 7.89308 20.1508C7.66928 20.1508 7.45097 20.1549 7.22717 20.1604V20.0314C7.52511 20.0011 7.66928 19.9915 7.68438 19.6538V17.2428ZM8.17179 19.5755C8.17179 19.9572 8.44502 20.0025 8.68941 20.0025C9.7631 20.0025 10.116 19.1924 10.116 18.451C10.116 17.5215 9.52008 16.8501 8.56035 16.8501C8.35578 16.8501 8.26241 16.8638 8.17317 16.8693L8.17179 19.5755ZM10.8368 20.0314H10.9315C11.0716 20.0314 11.1704 20.0314 11.1704 19.8666V18.5197C11.1704 18.3014 11.0963 18.2698 10.9123 18.1709V18.0913C11.1457 18.0213 11.4244 17.9279 11.4436 17.9128C11.4793 17.8936 11.5082 17.8881 11.5343 17.8881C11.559 17.8881 11.57 17.9183 11.57 17.9581V19.8666C11.57 20.0314 11.6798 20.0314 11.8185 20.0314H11.9036V20.1604C11.7347 20.1604 11.5604 20.1508 11.3819 20.1508C11.2034 20.1508 11.0235 20.1549 10.8409 20.1604L10.8368 20.0314ZM11.3681 17.1233C11.2391 17.1233 11.1237 17.0039 11.1237 16.8748C11.1237 16.7513 11.2432 16.6359 11.3681 16.6359C11.4972 16.6359 11.6125 16.7403 11.6125 16.8748C11.6125 17.0094 11.5027 17.1233 11.3681 17.1233ZM12.3718 18.5499C12.3718 18.3659 12.3169 18.3165 12.0835 18.2231V18.1284C12.2963 18.0597 12.5009 17.9938 12.7398 17.8895C12.7549 17.8895 12.77 17.8991 12.77 17.9389V18.2616C13.0528 18.0584 13.2972 17.8881 13.6308 17.8881C14.0523 17.8881 14.202 18.197 14.202 18.5842V19.8666C14.202 20.0314 14.3118 20.0314 14.4505 20.0314H14.5398V20.1604C14.3654 20.1604 14.191 20.1508 14.0125 20.1508C13.834 20.1508 13.6542 20.1549 13.4757 20.1604V20.0314H13.5649C13.705 20.0314 13.8038 20.0314 13.8038 19.8666V18.5787C13.8038 18.2959 13.6308 18.1558 13.3466 18.1558C13.1874 18.1558 12.9347 18.2849 12.77 18.3947V19.8652C12.77 20.03 12.8798 20.03 13.0198 20.03H13.1091V20.159C12.9361 20.159 12.7604 20.1494 12.5819 20.1494C12.4034 20.1494 12.2235 20.1535 12.045 20.159V20.03H12.1356C12.2757 20.03 12.3745 20.03 12.3745 19.8652L12.3718 18.5499ZM14.9173 18.7902C14.9077 18.8355 14.9077 18.9096 14.9173 19.0785C14.9475 19.5508 15.2496 19.938 15.6478 19.938C15.921 19.938 16.1352 19.7883 16.3192 19.6057L16.3878 19.6757C16.1599 19.9792 15.8757 20.2373 15.4679 20.2373C14.6771 20.2373 14.5178 19.4712 14.5178 19.1526C14.5178 18.1778 15.1741 17.8895 15.5215 17.8895C15.9251 17.8895 16.3576 18.1435 16.3617 18.6693C16.3617 18.6995 16.3617 18.7284 16.3576 18.76L16.3123 18.7902H14.9173ZM15.7974 18.6309C15.921 18.6309 15.9361 18.5664 15.9361 18.5073C15.9361 18.2533 15.7823 18.0501 15.5036 18.0501C15.2002 18.0501 14.9915 18.2725 14.9324 18.6323L15.7974 18.6309ZM16.4784 20.0314H16.613C16.7517 20.0314 16.8519 20.0314 16.8519 19.8666V18.4703C16.8519 18.3165 16.6679 18.2863 16.5938 18.2465V18.1723C16.9562 18.0172 17.1567 17.8895 17.2006 17.8895C17.2308 17.8895 17.2446 17.9046 17.2446 17.954V18.4016H17.2555C17.3791 18.208 17.5878 17.8895 17.8912 17.8895C18.0148 17.8895 18.1741 17.9746 18.1741 18.1531C18.1741 18.2876 18.0793 18.4071 17.9407 18.4071C17.7855 18.4071 17.7855 18.2876 17.6125 18.2876C17.5274 18.2876 17.2501 18.4016 17.2501 18.7009V19.868C17.2501 20.0327 17.3489 20.0327 17.489 20.0327H17.7663V20.1618C17.4931 20.1563 17.2858 20.1522 17.0716 20.1522C16.8684 20.1522 16.6583 20.1563 16.4798 20.1618L16.4784 20.0314ZM18.391 19.4698C18.4555 19.7979 18.6546 20.0767 19.0171 20.0767C19.3096 20.0767 19.4194 19.8982 19.4194 19.7238C19.4194 19.1375 18.3361 19.3256 18.3361 18.5252C18.3361 18.2465 18.5599 17.8881 19.1063 17.8881C19.2656 17.8881 19.4784 17.9334 19.672 18.0336L19.7077 18.5403H19.5938C19.5443 18.2272 19.3713 18.0487 19.0528 18.0487C18.8537 18.0487 18.6656 18.1627 18.6656 18.3769C18.6656 18.959 19.8189 18.7806 19.8189 19.5604C19.8189 19.8886 19.5553 20.2373 18.9649 20.2373C18.7658 20.2373 18.5324 20.1687 18.3581 20.0684L18.3031 19.4959L18.391 19.4698ZM24.3059 17.5915H24.1823C24.0876 17.0108 23.6743 16.776 23.1196 16.776C22.5471 16.776 21.7164 17.1577 21.7164 18.3508C21.7164 19.3558 22.4331 20.0767 23.1979 20.0767C23.6894 20.0767 24.0972 19.7389 24.1974 19.2172L24.3114 19.2474L24.1974 19.9737C23.9887 20.1027 23.4272 20.2373 23.099 20.2373C21.9361 20.2373 21.2015 19.4876 21.2015 18.3673C21.2015 17.3485 22.1105 16.6181 23.0853 16.6181C23.4876 16.6181 23.8748 16.7471 24.2578 16.8817L24.3059 17.5915ZM24.4858 20.0314H24.5805C24.7205 20.0314 24.8194 20.0314 24.8194 19.8666V17.0973C24.8194 16.7746 24.7453 16.765 24.5558 16.7101V16.6304C24.7549 16.5659 24.9636 16.4767 25.0679 16.4162C25.1215 16.386 25.1626 16.3613 25.1764 16.3613C25.2066 16.3613 25.2176 16.3915 25.2176 16.4314V19.8666C25.2176 20.0314 25.326 20.0314 25.4661 20.0314H25.5498V20.1604C25.3823 20.1604 25.2066 20.1508 25.0281 20.1508C24.8496 20.1508 24.6697 20.1549 24.4871 20.1604L24.4858 20.0314ZM27.6766 19.8872C27.6766 19.9778 27.7315 19.9819 27.8153 19.9819C27.8743 19.9819 27.9498 19.9778 28.0144 19.9778V20.0822C27.8002 20.1014 27.3924 20.2057 27.2977 20.2359L27.2729 20.2208V19.8185C26.975 20.0629 26.7457 20.2359 26.3928 20.2359C26.1251 20.2359 25.8464 20.0629 25.8464 19.6455V18.3728C25.8464 18.2437 25.8272 18.1188 25.5485 18.0954V18.0007C25.7269 17.9966 26.1237 17.965 26.1883 17.965C26.2432 17.965 26.2432 18.0007 26.2432 18.1092V19.3915C26.2432 19.5412 26.2432 19.9682 26.6743 19.9682C26.8432 19.9682 27.067 19.8391 27.2757 19.6648V18.3275C27.2757 18.2286 27.0368 18.1737 26.8583 18.1243V18.035C27.3059 18.0048 27.5846 17.9664 27.634 17.9664C27.6752 17.9664 27.6752 18.0021 27.6752 18.057L27.6766 19.8872ZM28.6652 18.2465C28.8642 18.0776 29.132 17.8881 29.4052 17.8881C29.9819 17.8881 30.3292 18.3906 30.3292 18.933C30.3292 19.5838 29.8528 20.2359 29.1402 20.2359C28.7723 20.2359 28.5787 20.1165 28.4496 20.0629L28.2999 20.1769L28.1956 20.1233C28.2395 19.8295 28.2642 19.5412 28.2642 19.2378V17.1C28.2642 16.7773 28.1901 16.7677 28.0006 16.7128V16.6332C28.2011 16.5686 28.4084 16.4794 28.5128 16.419C28.5677 16.3888 28.6075 16.3641 28.6226 16.3641C28.6528 16.3641 28.6624 16.3943 28.6624 16.4341L28.6652 18.2465ZM28.6652 19.5989C28.6652 19.7883 28.8436 20.1069 29.1773 20.1069C29.7086 20.1069 29.9324 19.5838 29.9324 19.143C29.9324 18.6062 29.5247 18.1586 29.1375 18.1586C28.9535 18.1586 28.7997 18.278 28.6652 18.392V19.5989ZM7.22168 23.0519H7.26012C7.35623 23.0519 7.46058 23.0382 7.46058 22.8982V21.4812C7.46058 21.3412 7.35761 21.3261 7.26012 21.3261H7.22168V21.2451C7.3274 21.2451 7.48941 21.2561 7.6226 21.2561C7.75715 21.2561 7.91916 21.2451 8.04685 21.2451V21.3261H8.00841C7.9123 21.3261 7.80795 21.3398 7.80795 21.4812V22.8982C7.80795 23.0382 7.91092 23.0519 8.00841 23.0519H8.04685V23.133C7.91779 23.133 7.7544 23.122 7.61985 23.122C7.48667 23.122 7.3274 23.133 7.22168 23.133V23.0519Z" fill="#211E1F"/>
<path id="Vector_3" d="M8.04847 23.1451C7.91803 23.1451 7.75464 23.1341 7.62146 23.1341C7.48966 23.1341 7.33039 23.1451 7.22329 23.1451H7.21094V23.0408H7.26037C7.35785 23.038 7.44847 23.0311 7.44847 22.898V21.481C7.44709 21.3492 7.35785 21.341 7.26037 21.3382H7.21094V21.2339H7.22329C7.33039 21.2339 7.49103 21.2449 7.62421 21.2449C7.75876 21.2449 7.92078 21.2339 8.04847 21.2339H8.06082V21.3382H8.01139C7.91391 21.341 7.82329 21.3492 7.82192 21.481V22.898C7.82192 23.0298 7.91254 23.038 8.01139 23.0408H8.06082V23.1451H8.04847ZM8.03611 23.1218V23.0641H8.01002C7.91391 23.0641 7.79858 23.0476 7.79858 22.898V21.481C7.79995 21.3314 7.91391 21.3149 8.01002 21.3149H8.03611V21.2572C7.91117 21.2572 7.75464 21.2682 7.62284 21.2682C7.49378 21.2682 7.33863 21.2586 7.23428 21.2572V21.3149H7.26037C7.35648 21.3149 7.47181 21.3314 7.47181 21.481V22.898C7.47181 23.0476 7.35648 23.0641 7.26037 23.0641H7.23428V23.1218C7.33863 23.1204 7.49103 23.1108 7.62009 23.1108C7.7519 23.1108 7.90842 23.1204 8.03611 23.1218ZM9.90476 22.6L9.91025 22.5945V21.5799C9.91025 21.3575 9.7551 21.3245 9.67547 21.3245H9.61643V21.2435C9.74412 21.2435 9.86769 21.2545 9.99538 21.2545C10.1066 21.2545 10.2178 21.2435 10.3276 21.2435V21.3245H10.2865C10.1725 21.3245 10.0462 21.3465 10.0462 21.6678V22.8993C10.0462 22.9941 10.0489 23.0888 10.0627 23.1712H9.95968L8.56746 21.6183V22.7332C8.56746 22.968 8.61277 23.049 8.82146 23.049H8.86815V23.13C8.75144 23.13 8.63611 23.119 8.5194 23.119C8.39858 23.119 8.27364 23.13 8.15144 23.13V23.049H8.18851C8.37524 23.049 8.43153 22.9227 8.43153 22.7057V21.5662C8.43153 21.4151 8.30659 21.3231 8.18577 21.3231H8.15007V21.2421C8.25304 21.2421 8.35876 21.2531 8.46037 21.2531C8.54137 21.2531 8.61963 21.2421 8.70064 21.2421L9.90476 22.6Z" fill="#211E1F"/>
<path id="Vector_4" d="M10.063 23.1849L9.95045 23.1808L8.57745 21.6513V22.736C8.5802 22.9707 8.61727 23.038 8.82047 23.0408H8.87814V23.1451H8.86578C8.7477 23.1451 8.63237 23.1341 8.51704 23.1341C8.39621 23.1341 8.27265 23.1451 8.14908 23.1451H8.13672V23.0408H8.18615C8.36464 23.0394 8.41544 22.9254 8.41818 22.7085V21.5689C8.41818 21.4247 8.30011 21.3369 8.18477 21.3369H8.13809V21.2325H8.15045C8.25342 21.2325 8.36052 21.2421 8.46075 21.2421C8.54038 21.2421 8.62001 21.2325 8.71063 21.2353L9.89965 22.5726V21.5772C9.89827 21.3616 9.75411 21.3355 9.67585 21.3341H9.60445V21.2298H9.61681C9.7445 21.2298 9.86944 21.2394 9.99576 21.2394C10.1056 21.2394 10.2168 21.2298 10.328 21.2298H10.3404V21.3341H10.2882C10.1756 21.3369 10.0617 21.3479 10.0589 21.6664V22.898C10.0589 22.9927 10.0617 23.0874 10.0754 23.1698L10.0781 23.1836L10.063 23.1849ZM9.96006 23.1616H10.0493C10.0369 23.0806 10.0356 22.99 10.0356 22.9007V21.6691C10.0356 21.3437 10.1715 21.3135 10.2882 21.3135H10.317V21.2559C10.2099 21.2572 10.1042 21.2669 9.99576 21.2669C9.87219 21.2669 9.75136 21.2572 9.62917 21.2559V21.3135H9.67722C9.76097 21.3135 9.92436 21.3506 9.92436 21.5799L9.92162 22.6028L9.91612 22.6083L9.90789 22.6165L8.70514 21.2572C8.62551 21.2572 8.54724 21.2682 8.46486 21.2682C8.36601 21.2682 8.26441 21.2586 8.16555 21.2572L8.16418 21.3149H8.18889C8.31658 21.3149 8.44564 21.411 8.44564 21.5703V22.7099C8.44564 22.9268 8.38523 23.0641 8.19027 23.0655L8.16418 23.0641V23.1218C8.28226 23.1204 8.40171 23.1108 8.51978 23.1108C8.63237 23.1108 8.74496 23.1204 8.85754 23.1218V23.0641H8.82322C8.6104 23.0627 8.55686 22.9707 8.55686 22.736V21.5909L9.96006 23.1616ZM10.7331 21.3794C10.5299 21.3794 10.5216 21.4275 10.4818 21.6252H10.4008C10.4118 21.5497 10.4255 21.4742 10.4337 21.3959C10.4447 21.3204 10.4502 21.2449 10.4502 21.1666H10.5148C10.5367 21.2476 10.604 21.2449 10.6768 21.2449H12.0717C12.1459 21.2449 12.2118 21.2421 12.2173 21.1611L12.2818 21.1721C12.2708 21.2463 12.2612 21.3177 12.2516 21.3918C12.2475 21.4646 12.2475 21.5373 12.2475 21.6101L12.1665 21.6403C12.161 21.5401 12.1472 21.3794 11.966 21.3794H11.5225V22.8183C11.5225 23.027 11.6173 23.0518 11.7463 23.0518H11.7985V23.1328C11.6928 23.1328 11.5033 23.1218 11.3578 23.1218C11.1958 23.1218 11.0063 23.1328 10.9006 23.1328V23.0518H10.9527C11.1024 23.0518 11.1765 23.038 11.1765 22.8252V21.3808L10.7331 21.3794Z" fill="#211E1F"/>
<path id="Vector_5" d="M11.7991 23.1451C11.692 23.1451 11.5039 23.1341 11.357 23.1341C11.195 23.1341 11.0055 23.1451 10.8998 23.1451H10.8888V23.0407H10.952C11.1017 23.038 11.1607 23.0352 11.1634 22.8252V21.3918H10.7323V21.367H11.1868V22.8238C11.1868 23.0407 11.0989 23.0627 10.9506 23.0627H10.9108V23.1204C11.0179 23.1204 11.1991 23.1108 11.357 23.1108C11.4971 23.1108 11.6783 23.1204 11.7854 23.1204V23.0627H11.7456C11.6152 23.0627 11.5094 23.0311 11.5094 22.8183V21.367H11.9653C12.1465 21.3684 12.1712 21.5222 12.1767 21.6224L12.2344 21.6005C12.2344 21.5304 12.2344 21.459 12.2399 21.389C12.2481 21.3204 12.2577 21.2503 12.2673 21.1817L12.2261 21.1748C12.2138 21.2545 12.1369 21.2572 12.0696 21.2572H10.6623C10.5991 21.2572 10.5291 21.2545 10.5058 21.1776H10.4605C10.4605 21.2517 10.455 21.3245 10.444 21.3973C10.4357 21.4714 10.4248 21.5428 10.4138 21.6142H10.4714C10.5071 21.4247 10.5305 21.3643 10.7323 21.367V21.3918C10.5319 21.3945 10.5374 21.4288 10.4934 21.6293L10.4907 21.6375H10.3877L10.3891 21.6238C10.4001 21.5483 10.4138 21.4728 10.422 21.3945C10.433 21.3204 10.4385 21.2435 10.4385 21.1666V21.1542H10.5236L10.5264 21.1625C10.5456 21.2311 10.595 21.2311 10.6637 21.2325H12.071C12.1465 21.2311 12.2001 21.2297 12.2055 21.1597L12.2069 21.146L12.2193 21.1487L12.2948 21.1611L12.292 21.1735C12.2811 21.2462 12.2701 21.319 12.2618 21.3918C12.2563 21.4645 12.2563 21.5373 12.2563 21.6101V21.6183L12.2481 21.6211L12.152 21.6568L12.1506 21.6416C12.1424 21.54 12.1328 21.3931 11.9612 21.3931H11.53V22.8211C11.5328 23.0256 11.6138 23.0394 11.7415 23.0421H11.8046V23.1465L11.7991 23.1451ZM12.3676 23.0517H12.406C12.5021 23.0517 12.6065 23.038 12.6065 22.8979V21.481C12.6065 21.341 12.5035 21.3259 12.406 21.3259H12.3676V21.2449C12.5323 21.2449 12.8138 21.2558 13.0403 21.2558C13.2669 21.2558 13.5483 21.2449 13.7323 21.2449C13.7282 21.3616 13.7296 21.54 13.7378 21.6595L13.6568 21.6815C13.6431 21.5057 13.6115 21.3657 13.3273 21.3657H12.9511V22.0741H13.2724C13.4344 22.0741 13.4701 21.9835 13.4852 21.8352H13.5662C13.5607 21.941 13.5579 22.0467 13.5579 22.151C13.5579 22.254 13.5607 22.357 13.5662 22.46L13.4852 22.4764C13.4687 22.3144 13.4605 22.2087 13.2737 22.2087H12.9497V22.8389C12.9497 23.0146 13.1062 23.0146 13.2792 23.0146C13.6046 23.0146 13.7474 22.9927 13.8284 22.6851L13.9039 22.7043C13.8682 22.8485 13.8353 22.9913 13.812 23.1355C13.639 23.1355 13.3273 23.1245 13.0843 23.1245C12.8399 23.1245 12.5186 23.1355 12.3648 23.1355L12.3676 23.0517Z" fill="#211E1F"/>
<path id="Vector_6" d="M13.8146 23.1451C13.6416 23.1451 13.3299 23.1341 13.0869 23.1341C12.8425 23.1341 12.5226 23.1451 12.3674 23.1451H12.3564V23.0408H12.4059C12.5034 23.0394 12.5926 23.0311 12.594 22.898V21.481C12.5926 21.3492 12.5034 21.341 12.4059 21.3382H12.3564V21.2339H12.3674C12.5322 21.2339 12.8137 21.2435 13.0402 21.2435C13.2667 21.2435 13.5482 21.2339 13.7322 21.2339H13.7445L13.7432 21.2462C13.7404 21.2874 13.7404 21.3355 13.7404 21.3863C13.7404 21.4797 13.7432 21.5813 13.7487 21.6581V21.6678L13.7404 21.6705L13.6443 21.6952V21.6815C13.6278 21.5057 13.6045 21.3781 13.3272 21.3767H12.9633V22.0604H13.2736C13.4301 22.0591 13.4576 21.9794 13.4754 21.8325L13.4768 21.8215H13.5798V21.8339C13.5743 21.9396 13.5715 22.0453 13.5715 22.1497C13.5715 22.2513 13.5743 22.3556 13.5798 22.4572V22.4668L13.5702 22.4696L13.4754 22.4888L13.4741 22.4751C13.4548 22.3103 13.4548 22.2197 13.2736 22.2183H12.9633V22.8362C12.9633 23.0009 13.1047 22.9996 13.2818 23.0009C13.6072 22.9982 13.7377 22.9831 13.8201 22.6797L13.8228 22.6687L13.8338 22.6714L13.9203 22.6934L13.9175 22.7044C13.8818 22.8472 13.8503 22.9913 13.8269 23.1341L13.8242 23.1437H13.8146V23.1451ZM13.805 23.1204C13.8283 22.9845 13.8585 22.8472 13.8928 22.7112L13.8393 22.6975C13.7583 23.0009 13.6004 23.027 13.2818 23.0243C13.1116 23.0243 12.9413 23.0243 12.94 22.8362V22.195H13.2764C13.4658 22.1922 13.485 22.3076 13.4988 22.4613L13.5564 22.449C13.551 22.3488 13.5482 22.2499 13.5482 22.1497C13.5482 22.0481 13.551 21.9465 13.5564 21.8449H13.4988C13.4837 21.9849 13.4397 22.0838 13.275 22.0838H12.9413V21.3506H13.3285C13.61 21.3478 13.6567 21.4934 13.669 21.6636L13.7267 21.6485C13.7226 21.573 13.7185 21.4742 13.7185 21.3835C13.7185 21.3369 13.7198 21.2929 13.7212 21.2545C13.5372 21.2559 13.2626 21.2655 13.0416 21.2655C12.8191 21.2655 12.5459 21.2559 12.3798 21.2545V21.3121H12.4059C12.502 21.3121 12.6173 21.3286 12.6173 21.4783V22.8952C12.6173 23.0449 12.502 23.0613 12.4059 23.0613H12.3798V23.119C12.5377 23.119 12.8494 23.1094 13.0869 23.1094C13.3258 23.1108 13.6306 23.1204 13.805 23.1204ZM14.2718 21.5305C14.2718 21.3327 14.1647 21.3245 14.0796 21.3245H14.0315V21.2435C14.118 21.2435 14.2855 21.2545 14.4516 21.2545C14.6137 21.2545 14.7441 21.2435 14.8869 21.2435C15.2274 21.2435 15.5308 21.3355 15.5308 21.7199C15.5308 21.9629 15.3688 22.1126 15.1546 22.195L15.6173 22.887C15.6928 23.0009 15.7464 23.0325 15.8796 23.049V23.13C15.7903 23.13 15.7038 23.119 15.6146 23.119C15.5308 23.119 15.4443 23.13 15.3606 23.13C15.1519 22.8568 14.9734 22.5643 14.7976 22.254H14.6191V22.8334C14.6191 23.0421 14.7153 23.0504 14.8402 23.0504H14.8883V23.1314C14.7331 23.1314 14.578 23.1204 14.4242 23.1204C14.2951 23.1204 14.1674 23.1314 14.0315 23.1314V23.0504H14.0796C14.1812 23.0504 14.2718 23.0051 14.2718 22.9048V21.5305ZM14.6178 22.1593H14.7496C15.0201 22.1593 15.1656 22.0563 15.1656 21.7378C15.1656 21.4975 15.0118 21.3437 14.7702 21.3437C14.6892 21.3437 14.6548 21.352 14.6164 21.3547L14.6178 22.1593Z" fill="#211E1F"/>
<path id="Vector_7" d="M15.879 23.1451C15.7883 23.1451 15.7019 23.1341 15.6126 23.1341C15.5302 23.1341 15.4437 23.1451 15.349 23.141C15.1417 22.8691 14.9632 22.5781 14.7888 22.2691H14.6295V22.8362C14.6323 23.0394 14.7147 23.038 14.8396 23.0408H14.9V23.1451H14.8877C14.7325 23.1451 14.576 23.1341 14.4236 23.1341C14.2945 23.1341 14.1682 23.1451 14.0309 23.1451H14.0186V23.0408H14.079C14.1764 23.0394 14.2588 22.9982 14.2588 22.9062V21.5318C14.2561 21.3396 14.1627 21.341 14.079 21.3382H14.0186V21.2339H14.0309C14.1188 21.2339 14.2863 21.2449 14.451 21.2449C14.6131 21.2449 14.7421 21.2339 14.8863 21.2339C15.2268 21.2353 15.5412 21.3286 15.5426 21.7213C15.5426 21.9657 15.3806 22.1181 15.1719 22.2032L15.6263 22.8829C15.7019 22.9954 15.7499 23.0229 15.8817 23.0394L15.8913 23.0408V23.1437H15.879V23.1451ZM14.6186 22.2444H14.8025L14.8053 22.2499C14.9824 22.5602 15.1595 22.8526 15.3586 23.1204C15.441 23.1204 15.5275 23.1094 15.6126 23.1094C15.6991 23.1094 15.7829 23.119 15.8666 23.1204V23.0613C15.7389 23.0462 15.6799 23.0078 15.6057 22.8952L15.1362 22.1909L15.1499 22.1854C15.3613 22.1016 15.5179 21.9575 15.5179 21.7199C15.5179 21.3437 15.2254 21.2572 14.8863 21.2559C14.7435 21.2559 14.6144 21.2668 14.451 21.2668C14.2918 21.2668 14.1311 21.2572 14.0433 21.2559V21.3135H14.0803C14.1641 21.3135 14.2835 21.3273 14.2835 21.5305V22.9048C14.2835 23.0133 14.1819 23.0627 14.0803 23.0627H14.0433V23.1204C14.1737 23.1204 14.2973 23.1094 14.4236 23.1094C14.5746 23.1094 14.7284 23.119 14.8767 23.1204V23.0627H14.8396C14.716 23.0627 14.6062 23.0476 14.6062 22.8348V22.2444H14.6186ZM14.6186 22.1703H14.6062V21.3424L14.6158 21.341C14.6529 21.3382 14.69 21.33 14.771 21.33C15.0167 21.33 15.1774 21.4906 15.1787 21.7364C15.1774 22.0591 15.0222 22.1689 14.7504 22.1689L14.6186 22.1703ZM14.7504 22.1469C15.0181 22.1442 15.1527 22.0508 15.1554 21.7378C15.154 21.5016 15.0071 21.3547 14.771 21.3533C14.6968 21.3533 14.6639 21.3602 14.6295 21.3629V22.1469H14.7504ZM17.7147 22.6L17.7188 22.5945V21.5799C17.7188 21.3575 17.565 21.3245 17.484 21.3245H17.425V21.2435C17.5527 21.2435 17.6762 21.2545 17.8039 21.2545C17.9151 21.2545 18.0263 21.2435 18.1362 21.2435V21.3245H18.095C17.9824 21.3245 17.8547 21.3465 17.8547 21.6678V22.8993C17.8547 22.9941 17.8575 23.0888 17.8712 23.1712H17.7696L16.3774 21.6183V22.7332C16.3774 22.968 16.424 23.049 16.6314 23.049H16.6781V23.13C16.5613 23.13 16.4446 23.119 16.3293 23.119C16.2071 23.119 16.0835 23.13 15.9613 23.13V23.049H15.9984C16.1851 23.049 16.2428 22.9227 16.2428 22.7057V21.5662C16.2428 21.4151 16.1192 21.3231 15.997 21.3231H15.9613V21.2421C16.0629 21.2421 16.17 21.2531 16.2716 21.2531C16.3513 21.2531 16.4309 21.2421 16.5119 21.2421L17.7147 22.6Z" fill="#211E1F"/>
<path id="Vector_8" d="M17.8718 23.185L17.7606 23.1822L16.3876 21.6527V22.7374C16.3903 22.9722 16.426 23.0394 16.6306 23.0422H16.6883V23.1465H16.6759C16.5579 23.1465 16.4425 23.1355 16.3272 23.1355C16.2064 23.1355 16.0814 23.1465 15.9606 23.1465H15.9482V23.0422H15.9977C16.1762 23.0408 16.227 22.9268 16.2297 22.7099V21.5703C16.2297 21.4262 16.1116 21.3383 15.9963 21.3383H15.9496V21.2339H15.962C16.0649 21.2339 16.1707 21.2449 16.2723 21.2449C16.3519 21.2449 16.4302 21.2339 16.5208 21.2381L17.7098 22.5767V21.5813C17.7084 21.3657 17.5643 21.3397 17.4874 21.3383H17.416V21.2339H17.4283C17.556 21.2339 17.681 21.2449 17.8073 21.2449C17.9171 21.2449 18.0283 21.2339 18.1395 21.2339H18.1519V21.3383H18.0997C17.9871 21.341 17.8732 21.352 17.8704 21.6705V22.9021C17.8704 22.9969 17.8732 23.0902 17.8869 23.174L17.8883 23.1877L17.8718 23.185ZM17.7688 23.1616H17.8581C17.8457 23.0806 17.8444 22.99 17.8444 22.9008V21.6692C17.8444 21.3438 17.9817 21.3149 18.097 21.3136H18.1258V21.2559C18.0187 21.2573 17.913 21.2669 17.8045 21.2669C17.681 21.2669 17.5601 21.2573 17.4379 21.2559V21.3136H17.486C17.5698 21.3149 17.7331 21.3506 17.7331 21.5799L17.7304 22.6028L17.7249 22.6083L17.7167 22.6165L16.5125 21.2573C16.4329 21.2573 16.3546 21.2683 16.2723 21.2683C16.172 21.2683 16.0718 21.2586 15.973 21.2573V21.3149H15.9977C16.1254 21.3163 16.2544 21.4111 16.2544 21.5703V22.7099C16.2544 22.9268 16.1926 23.0655 15.999 23.0655H15.973V23.1232C16.0897 23.1218 16.2105 23.1136 16.3286 23.1136C16.4411 23.1136 16.5551 23.1232 16.6663 23.1232V23.0655H16.632C16.4192 23.0655 16.3656 22.9722 16.3656 22.7374V21.5937L17.7688 23.1616ZM18.5707 22.7456C18.5432 22.8362 18.5103 22.9076 18.5103 22.957C18.5103 23.0381 18.6242 23.0518 18.7135 23.0518H18.7437V23.1328C18.6352 23.1273 18.5254 23.1218 18.4169 23.1218C18.3194 23.1218 18.2219 23.1259 18.1258 23.1328V23.0518H18.1423C18.248 23.0518 18.3373 22.9886 18.3771 22.876L18.8096 21.6349C18.8453 21.5346 18.8933 21.4001 18.9098 21.2985C18.9949 21.2683 19.1048 21.2147 19.1556 21.1818C19.1638 21.179 19.1693 21.1763 19.1775 21.1763C19.1858 21.1763 19.1913 21.1763 19.1968 21.1845C19.205 21.2051 19.2119 21.2312 19.2215 21.2518L19.7185 22.666C19.7514 22.7607 19.783 22.8609 19.8187 22.9419C19.8517 23.0175 19.9093 23.049 19.9972 23.049H20.0137V23.13C19.8915 23.1246 19.7693 23.1191 19.6402 23.1191C19.5071 23.1191 19.3725 23.1232 19.2338 23.13V23.049H19.264C19.3258 23.049 19.4315 23.0381 19.4315 22.9708C19.4315 22.9351 19.4068 22.8637 19.3766 22.7758L19.2709 22.4614H18.6572L18.5707 22.7456ZM18.9661 21.547H18.9606L18.7093 22.3131H19.2146L18.9661 21.547Z" fill="#211E1F"/>
<path id="Vector_9" d="M20.0127 23.1451C19.8905 23.1396 19.7683 23.1341 19.6406 23.1341C19.5075 23.1341 19.3743 23.1396 19.2356 23.1451L19.2232 23.1465V23.0408H19.2644C19.3276 23.0408 19.421 23.027 19.421 22.9749C19.4223 22.9447 19.3962 22.8691 19.3674 22.784L19.2644 22.4792H18.6686L18.5848 22.7524C18.5573 22.8444 18.5258 22.9158 18.5258 22.9598C18.5271 23.0257 18.6274 23.0421 18.7166 23.0421H18.7578V23.1479L18.7454 23.1465C18.637 23.141 18.5271 23.1355 18.4187 23.1355C18.3226 23.1355 18.2237 23.141 18.1276 23.1465L18.1152 23.1479V23.0421H18.1427C18.2443 23.0421 18.3267 22.9845 18.3665 22.8746L18.799 21.6334C18.8347 21.5332 18.8841 21.3987 18.9061 21.2902C18.9912 21.2614 19.0997 21.2064 19.1518 21.1735C19.1601 21.1707 19.167 21.1666 19.1779 21.1666C19.1848 21.1666 19.1985 21.168 19.2081 21.1817C19.2164 21.2037 19.2246 21.2284 19.2329 21.2504L19.7313 22.6646C19.7628 22.7593 19.7944 22.8595 19.8315 22.9392C19.8631 23.0119 19.9125 23.0408 19.999 23.0408H20.0264V23.1465L20.0127 23.1451ZM19.2466 23.1204C19.3811 23.1163 19.5116 23.1108 19.6406 23.1108C19.7656 23.1108 19.8837 23.1163 20.0004 23.1204V23.0641H19.9976C19.9056 23.0655 19.8411 23.0284 19.8081 22.9488C19.7724 22.8664 19.7395 22.7662 19.7079 22.6714L19.2109 21.2572C19.2026 21.2353 19.1944 21.2106 19.1875 21.1927C19.1848 21.19 19.1848 21.19 19.1834 21.19H19.1793C19.1738 21.19 19.1711 21.1927 19.1642 21.1927C19.112 21.227 19.0036 21.2792 18.9239 21.3012C18.9075 21.4028 18.8594 21.5387 18.8223 21.6389L18.3898 22.8801C18.3486 22.9982 18.2539 23.0641 18.1441 23.0641H18.1399V23.1204C18.2319 23.1163 18.3267 23.1108 18.42 23.1108C18.5244 23.1108 18.6315 23.1163 18.7345 23.1204V23.0641H18.7166C18.6287 23.0627 18.5052 23.0531 18.5024 22.957C18.5024 22.9035 18.5354 22.8334 18.5615 22.7428L18.5738 22.7456L18.5615 22.7415L18.6507 22.4531H19.2809L19.3894 22.7744C19.4196 22.8609 19.4443 22.9337 19.4443 22.9735C19.4416 23.0572 19.3262 23.0627 19.2658 23.0641H19.248V23.1204H19.2466ZM18.6933 22.3254L18.9528 21.5373H18.9665H18.9747L19.2315 22.3254H18.6933ZM18.7248 22.3007H19.1985L18.9637 21.5758L18.7248 22.3007ZM20.1322 21.3794C19.929 21.3794 19.9207 21.4275 19.8809 21.6252H19.7999C19.8109 21.5497 19.8246 21.4742 19.8329 21.3959C19.8438 21.3204 19.848 21.2449 19.848 21.1666H19.9125C19.9345 21.2476 20.0017 21.2449 20.0745 21.2449H21.4708C21.5436 21.2449 21.6109 21.2421 21.6164 21.1611L21.6809 21.1721C21.6713 21.2463 21.6603 21.3177 21.6507 21.3918C21.6452 21.4646 21.6452 21.5373 21.6452 21.6101L21.5642 21.6403C21.5587 21.5401 21.545 21.3794 21.3637 21.3794H20.9203V22.8183C20.9203 23.027 21.015 23.0518 21.1441 23.0518H21.1962V23.1328C21.0905 23.1328 20.9024 23.1218 20.7555 23.1218C20.5935 23.1218 20.404 23.1328 20.2983 23.1328V23.0518H20.3505C20.5001 23.0518 20.5756 23.038 20.5756 22.8252V21.3808L20.1322 21.3794Z" fill="#211E1F"/>
<path id="Vector_10" d="M21.1976 23.1455C21.0905 23.1455 20.9024 23.1345 20.7568 23.1345C20.5948 23.1345 20.4054 23.1455 20.2996 23.1455H20.2873V23.0411H20.3504C20.5001 23.0384 20.5591 23.0356 20.5632 22.8256V21.3922H20.1321V21.3674H20.5866V22.8242C20.5866 23.0411 20.4987 23.0631 20.3504 23.0631H20.3106V23.1208C20.4177 23.1194 20.5989 23.1098 20.7568 23.1098C20.8983 23.1098 21.0781 23.1194 21.1852 23.1208V23.0631H21.1454C21.0163 23.0617 20.9106 23.0315 20.9092 22.8187V21.3674H21.3651C21.5463 21.3688 21.571 21.5226 21.5765 21.6228L21.6356 21.6009C21.6356 21.5308 21.6356 21.4594 21.6411 21.3894C21.6493 21.3208 21.6589 21.2494 21.6685 21.1821L21.6273 21.1752C21.615 21.2549 21.5381 21.259 21.4708 21.2576H20.0621C19.9989 21.259 19.9289 21.2549 19.9056 21.178H19.8616C19.8603 21.2521 19.8562 21.3263 19.8452 21.3976C19.8383 21.4718 19.8246 21.5432 19.815 21.6146H19.8726C19.9083 21.4251 19.9317 21.3647 20.1335 21.3674V21.3922C19.933 21.3949 19.9385 21.4292 19.8932 21.6297L19.8905 21.6379H19.7861L19.7889 21.6242C19.7999 21.5487 19.8136 21.4732 19.8218 21.3949C19.8328 21.3194 19.8383 21.2439 19.8383 21.167V21.1546H19.9234L19.9262 21.1629C19.9454 21.2315 19.9948 21.2315 20.0635 21.2329H20.0772H21.4735C21.5477 21.2315 21.6026 21.2301 21.6081 21.1587L21.6095 21.145L21.6232 21.1478L21.7001 21.1601L21.6973 21.1725C21.6864 21.2452 21.6768 21.318 21.6671 21.3908C21.6616 21.4636 21.6616 21.5363 21.6616 21.6091V21.6173L21.6534 21.6201L21.5573 21.6558V21.6407C21.5504 21.5391 21.5395 21.3922 21.3678 21.3922H20.9367V22.8201C20.9394 23.0247 21.0205 23.0384 21.1481 23.0411H21.2113V23.1455H21.1976ZM21.7811 23.0521H21.8195C21.917 23.0521 22.02 23.0384 22.02 22.8983V21.4814C22.02 21.3414 21.9184 21.3263 21.8195 21.3263H21.7811V21.2452C21.8868 21.2452 22.0488 21.2562 22.1806 21.2562C22.3166 21.2562 22.4786 21.2452 22.6063 21.2452V21.3263H22.5692C22.4717 21.3263 22.3687 21.34 22.3687 21.4814V22.8983C22.3687 23.0384 22.4717 23.0521 22.5692 23.0521H22.6063V23.1331C22.4772 23.1331 22.3138 23.1221 22.1793 23.1221C22.0461 23.1221 21.8868 23.1331 21.7811 23.1331V23.0521Z" fill="#211E1F"/>
<path id="Vector_11" d="M22.6061 23.1455C22.4756 23.1455 22.3136 23.1345 22.1791 23.1345C22.0473 23.1345 21.8866 23.1455 21.7809 23.1455H21.7686V23.0412H21.818C21.9155 23.0398 22.0061 23.0316 22.0061 22.8984V21.4814C22.0061 21.3496 21.9155 21.3414 21.818 21.3387H21.7686V21.2343H21.7809C21.8866 21.2343 22.0486 21.2439 22.1805 21.2439C22.315 21.2439 22.477 21.2343 22.6061 21.2343H22.6171V21.3387H22.5676C22.4688 21.3414 22.3795 21.3496 22.3782 21.4814V22.8984C22.3795 23.0316 22.4688 23.0384 22.5676 23.0412H22.6171V23.1455H22.6061ZM22.5937 23.1208V23.0631H22.569C22.4729 23.0631 22.3576 23.0453 22.3576 22.897V21.4801C22.3576 21.3304 22.4715 21.3139 22.569 21.3139H22.5937V21.2563C22.4688 21.2576 22.3123 21.2673 22.1805 21.2673C22.0514 21.2673 21.8976 21.2576 21.7933 21.2563V21.3139H21.8194C21.9155 21.3139 22.0308 21.3304 22.0308 21.4801V22.8984C22.0308 23.048 21.9155 23.0645 21.8194 23.0645H21.7933V23.1222C21.8976 23.1208 22.05 23.1126 22.1791 23.1126C22.3109 23.1112 22.466 23.1208 22.5937 23.1208ZM23.6839 21.2041C24.2605 21.2041 24.7191 21.5611 24.7191 22.1377C24.7191 22.7611 24.2729 23.173 23.6976 23.173C23.1237 23.173 22.6857 22.783 22.6857 22.2023C22.6871 21.6407 23.1223 21.2041 23.6839 21.2041ZM23.7264 23.0549C24.2509 23.0549 24.3429 22.5922 24.3429 22.1982C24.3429 21.8027 24.1301 21.3236 23.6811 21.3236C23.2075 21.3236 23.0674 21.7451 23.0674 22.1075C23.066 22.5908 23.2885 23.0549 23.7264 23.0549Z" fill="#211E1F"/>
<path id="Vector_12" d="M22.6748 22.2019C22.6762 21.6335 23.1169 21.1928 23.684 21.1928V21.2161C23.1279 21.2161 22.6981 21.6472 22.6981 22.2019C22.6995 22.7772 23.1306 23.1603 23.6991 23.1603C24.2689 23.1603 24.7082 22.7525 24.7096 22.136C24.7096 21.5676 24.2565 21.2161 23.6853 21.2147V21.1914C24.2661 21.1914 24.7316 21.5525 24.7329 22.136C24.7329 22.7649 24.2798 23.1823 23.6991 23.1836C23.1197 23.1836 22.6762 22.7896 22.6748 22.2019ZM23.0538 22.1072C23.0551 21.7434 23.1965 21.3109 23.6798 21.3109C24.1384 21.3122 24.3526 21.7996 24.354 22.1978C24.3526 22.5919 24.2606 23.0669 23.7251 23.0669V23.0436C24.2386 23.0422 24.3279 22.5919 24.3293 22.1978C24.3293 21.8051 24.1178 21.3369 23.6785 21.3356C23.2144 21.3369 23.0771 21.7475 23.0771 22.1072C23.0771 22.5891 23.2968 23.0422 23.7251 23.0436V23.0669C23.2776 23.0655 23.0551 22.5946 23.0538 22.1072ZM26.5439 22.6001L26.5494 22.5946V21.58C26.5494 21.3575 26.3943 21.3246 26.3132 21.3246H26.2556V21.2436C26.3819 21.2436 26.5068 21.2546 26.6332 21.2546C26.7444 21.2546 26.8556 21.2436 26.9654 21.2436V21.3246H26.9242C26.8116 21.3246 26.684 21.3466 26.684 21.6678V22.8994C26.684 22.9942 26.6867 23.0889 26.7004 23.1713H26.5988L25.2066 21.6184V22.7333C25.2066 22.9681 25.2533 23.0491 25.4606 23.0491H25.5073V23.1301C25.3906 23.1301 25.2739 23.1191 25.1586 23.1191C25.0364 23.1191 24.9128 23.1301 24.7906 23.1301V23.0491H24.829C25.0158 23.0491 25.0721 22.9228 25.0721 22.7058V21.5662C25.0721 21.4152 24.9485 21.3232 24.8263 21.3232H24.7906V21.2422C24.8936 21.2422 24.9993 21.2532 25.1009 21.2532C25.1819 21.2532 25.2602 21.2422 25.3412 21.2422L26.5439 22.6001Z" fill="#211E1F"/>
<path id="Vector_13" d="M26.7003 23.185L26.5877 23.1808L25.2161 21.6513V22.736C25.2189 22.9708 25.2546 23.0381 25.4578 23.0408H25.5154V23.1465H25.5031C25.385 23.1465 25.2697 23.1355 25.1543 23.1355C25.0335 23.1355 24.9086 23.1465 24.7864 23.1465H24.7754V23.0408H24.8248C25.0033 23.0408 25.0541 22.9255 25.0569 22.7099V21.5703C25.0569 21.4262 24.9388 21.3383 24.8221 21.3383H24.7754V21.2339H24.7864C24.8893 21.2339 24.9951 21.2435 25.0967 21.2435C25.1763 21.2435 25.2546 21.2339 25.3466 21.2367L26.5356 22.574V21.5799C26.5342 21.3644 26.39 21.3383 26.3118 21.3369H26.2404V21.2326H26.2527C26.3804 21.2326 26.504 21.2422 26.6303 21.2422C26.7415 21.2422 26.8514 21.2326 26.9639 21.2326H26.9763V21.3369H26.9241C26.8129 21.3397 26.6976 21.3506 26.6962 21.6692V22.9008C26.6962 22.9955 26.699 23.0902 26.7113 23.1726L26.7141 23.1863L26.7003 23.185ZM26.5974 23.1616H26.6866C26.6742 23.0806 26.6729 22.99 26.6729 22.9008V21.6692C26.6729 21.3438 26.8088 21.3149 26.9255 21.3136H26.9557V21.2559C26.8486 21.2573 26.7429 21.2669 26.6344 21.2669C26.5109 21.2669 26.39 21.2573 26.2678 21.2559V21.3136H26.3145C26.3983 21.3149 26.5617 21.352 26.5617 21.5799L26.5589 22.6028L26.5534 22.6083L26.5452 22.6165L25.3411 21.2573C25.2614 21.2573 25.1832 21.2683 25.1008 21.2683C25.0006 21.2683 24.9003 21.2586 24.8015 21.2573V21.3149H24.8262C24.9539 21.3163 25.0843 21.4111 25.0843 21.5703V22.7099C25.0843 22.9268 25.0239 23.0641 24.8289 23.0655H24.8029V23.1232C24.9209 23.1218 25.0418 23.1136 25.1598 23.1136C25.2724 23.1136 25.385 23.1232 25.4976 23.1232V23.0655H25.4619C25.2504 23.0655 25.1955 22.9722 25.1955 22.7374V21.5923L26.5974 23.1616ZM27.4006 22.7456C27.3745 22.8362 27.3415 22.9076 27.3415 22.957C27.3415 23.0381 27.4555 23.0518 27.5434 23.0518H27.5736V23.1328C27.4651 23.1273 27.3539 23.1218 27.2468 23.1218C27.1493 23.1218 27.0518 23.1259 26.9543 23.1328V23.0518H26.9694C27.0752 23.0518 27.1644 22.9886 27.2042 22.876L27.6367 21.6349C27.6724 21.5346 27.7205 21.4001 27.7369 21.2985C27.8234 21.2683 27.9319 21.2147 27.9827 21.1818C27.991 21.179 27.9964 21.1763 28.0033 21.1763C28.0102 21.1763 28.017 21.1763 28.0225 21.1845C28.0308 21.2051 28.039 21.2312 28.0472 21.2518L28.5443 22.666C28.5772 22.7607 28.6088 22.8609 28.6445 22.9419C28.6774 23.0175 28.7337 23.049 28.823 23.049H28.8395V23.13C28.7173 23.1246 28.5951 23.1191 28.466 23.1191C28.3342 23.1191 28.1983 23.1232 28.061 23.13V23.049H28.0912C28.153 23.049 28.2587 23.0381 28.2587 22.9708C28.2587 22.9351 28.234 22.8637 28.2038 22.7758L28.098 22.4614H27.4843L27.4006 22.7456ZM27.796 21.547H27.7905L27.5392 22.3131H28.0459L27.796 21.547Z" fill="#211E1F"/>
<path id="Vector_14" d="M28.8408 23.1453C28.7186 23.1412 28.5978 23.1343 28.4688 23.1343C28.337 23.1343 28.2024 23.1398 28.0637 23.1453L28.0514 23.1467V23.041H28.0926C28.1557 23.041 28.2491 23.0272 28.2491 22.9737C28.2491 22.9435 28.2244 22.8693 28.1955 22.7828L28.0926 22.478H27.4967L27.4129 22.7513C27.3855 22.8433 27.3539 22.9146 27.3553 22.9586C27.3553 23.0245 27.4569 23.041 27.5461 23.041H27.5873V23.1467L27.5749 23.1453C27.4665 23.1412 27.3566 23.1343 27.2482 23.1343C27.1521 23.1343 27.0532 23.1398 26.9557 23.1453L26.9434 23.1467V23.041H26.9708C27.0724 23.041 27.1562 22.9833 27.196 22.8735L27.6285 21.6323C27.6628 21.532 27.7122 21.3975 27.7356 21.289C27.8207 21.2588 27.9292 21.2053 27.9813 21.1723C27.9882 21.1696 27.9951 21.1668 28.0061 21.1668C28.0143 21.1654 28.0267 21.1682 28.0363 21.1819C28.0445 21.2025 28.0527 21.2286 28.061 21.2506L28.558 22.6648C28.5896 22.7595 28.6225 22.8597 28.6582 22.9407C28.6898 23.0121 28.7392 23.041 28.8257 23.0423H28.8546V23.1481L28.8408 23.1453ZM28.0747 23.1206C28.2093 23.1151 28.3411 23.111 28.4688 23.111C28.5951 23.111 28.7132 23.1165 28.8299 23.1206V23.0643H28.8257C28.7351 23.0643 28.6692 23.0286 28.6363 22.949C28.6006 22.8666 28.5676 22.7664 28.536 22.6716L28.039 21.2574C28.0308 21.2355 28.0225 21.2108 28.0157 21.1929C28.0129 21.1902 28.0129 21.1902 28.0116 21.1902H28.0061C28.0006 21.1902 27.9978 21.1929 27.991 21.1929C27.9388 21.2259 27.8289 21.2794 27.7493 21.3C27.7328 21.4016 27.6834 21.5375 27.6477 21.6378L27.2152 22.8789C27.174 22.997 27.0807 23.0629 26.9694 23.0629H26.9653V23.1192C27.0587 23.1151 27.1507 23.1096 27.2454 23.1096C27.3498 23.1096 27.4569 23.1151 27.5612 23.1192V23.0629H27.542C27.4541 23.0616 27.3305 23.0519 27.3278 22.9558C27.3278 22.9023 27.3621 22.8336 27.3882 22.7416L27.3992 22.7444L27.3882 22.7403L27.4775 22.4519H28.1077L28.2161 22.7732C28.2463 22.8597 28.271 22.9325 28.271 22.9723C28.2669 23.0561 28.153 23.0616 28.0926 23.0629H28.0747V23.1206ZM27.5228 22.3243L27.7823 21.5362H27.796H27.8042L28.0596 22.3243H27.5228ZM27.5543 22.3009H28.028L27.7932 21.576L27.5543 22.3009ZM29.5232 22.868C29.5232 22.9764 29.5974 23.008 29.6852 23.019C29.7964 23.0272 29.9186 23.0272 30.0422 23.0135C30.1548 22.9998 30.2537 22.9339 30.3017 22.868C30.3443 22.8089 30.3704 22.7334 30.3855 22.673H30.4637C30.4335 22.8268 30.3964 22.9792 30.3635 23.133C30.126 23.133 29.8884 23.122 29.6495 23.122C29.4106 23.122 29.1745 23.133 28.9356 23.133V23.0519H28.9727C29.0701 23.0519 29.1759 23.0382 29.1759 22.8707V21.4799C29.1759 21.3398 29.0701 21.3247 28.9727 21.3247H28.9356V21.2437C29.0784 21.2437 29.2184 21.2547 29.3626 21.2547C29.5013 21.2547 29.6358 21.2437 29.7745 21.2437V21.3247H29.7058C29.6042 21.3247 29.5218 21.3275 29.5218 21.4703L29.5232 22.868Z" fill="#211E1F"/>
<path id="Vector_15" d="M30.3641 23.1451C30.1252 23.1451 29.8877 23.1341 29.6501 23.1341C29.4112 23.1341 29.1737 23.1451 28.9348 23.1451H28.9238V23.0407H28.9733C29.0707 23.038 29.1641 23.0325 29.1655 22.8719V21.481C29.1641 21.3492 29.0721 21.341 28.9733 21.3382H28.9238V21.2339H28.9348C29.079 21.2339 29.219 21.2435 29.3618 21.2435C29.4991 21.2435 29.6337 21.2339 29.7723 21.2339H29.7833V21.3382H29.7037C29.5993 21.341 29.5334 21.3355 29.5307 21.4728V22.8691C29.5321 22.9707 29.598 22.9968 29.6817 23.0092C29.7298 23.0119 29.7792 23.0147 29.8328 23.0147C29.8987 23.0147 29.9673 23.0119 30.0373 23.0037C30.1472 22.9899 30.2433 22.9268 30.2886 22.8636C30.3298 22.806 30.3545 22.7318 30.3696 22.6728L30.3723 22.6645H30.4739L30.4712 22.6783C30.441 22.8334 30.4025 22.9831 30.3696 23.1382L30.3668 23.1465H30.3641V23.1451ZM30.3545 23.1204C30.3861 22.9735 30.4218 22.8307 30.4506 22.6838H30.3943C30.3778 22.7428 30.3531 22.8156 30.3106 22.8732C30.2598 22.9433 30.1595 23.0092 30.0428 23.0243C29.9714 23.0325 29.9028 23.0352 29.8355 23.0352C29.7833 23.0352 29.7325 23.0325 29.6845 23.0298C29.5966 23.0201 29.5115 22.9831 29.5115 22.8677V21.4714C29.5115 21.3204 29.6076 21.3135 29.7064 21.3135H29.7627V21.2558C29.6295 21.2572 29.4977 21.2668 29.3632 21.2668C29.2231 21.2668 29.0858 21.2572 28.9472 21.2558V21.3135H28.9733C29.0694 21.3135 29.1874 21.33 29.1874 21.4796V22.8705C29.1874 23.0449 29.0694 23.0641 28.9733 23.0641H28.9472V23.1217C29.1806 23.1217 29.4154 23.1121 29.6501 23.1121C29.8863 23.1108 30.1211 23.1204 30.3545 23.1204ZM30.4328 21.168C30.5948 21.168 30.717 21.2929 30.717 21.4536C30.717 21.6128 30.5948 21.7378 30.4328 21.7378C30.2707 21.7378 30.1485 21.6142 30.1485 21.4536C30.1472 21.2929 30.2694 21.168 30.4328 21.168ZM30.4328 21.6842C30.5604 21.6842 30.6579 21.5757 30.6579 21.4536C30.6579 21.33 30.5618 21.2201 30.4328 21.2201C30.3037 21.2201 30.2062 21.33 30.2062 21.4536C30.2062 21.5757 30.3037 21.6842 30.4328 21.6842ZM30.2913 21.6032V21.5895C30.327 21.5854 30.3325 21.5867 30.3325 21.5648V21.3533C30.3325 21.3231 30.3298 21.3135 30.2913 21.3149V21.3011H30.4369C30.4877 21.3011 30.533 21.3259 30.533 21.3767C30.533 21.4192 30.5041 21.4508 30.4657 21.4618L30.5124 21.5263C30.5344 21.5565 30.5591 21.584 30.5755 21.5936V21.6018H30.5193C30.4932 21.6018 30.4698 21.5455 30.4176 21.47H30.3861V21.5648C30.3861 21.584 30.3929 21.5826 30.4273 21.5867V21.6005L30.2913 21.6032ZM30.3861 21.4536H30.4204C30.4561 21.4536 30.4739 21.4261 30.4739 21.3808C30.4739 21.3355 30.4479 21.319 30.4176 21.319H30.3861V21.4536Z" fill="#211E1F"/>
</g>
<g id="Group_2">
<path id="Vector_16" d="M7.67071 17.2428C7.67071 16.7952 7.4373 16.8254 7.2135 16.8199V16.6908C7.40709 16.7005 7.60618 16.7005 7.79977 16.7005C8.00847 16.7005 8.2913 16.6908 8.65927 16.6908C9.94714 16.6908 10.6474 17.5503 10.6474 18.4304C10.6474 18.922 10.359 20.1604 8.60023 20.1604C8.34622 20.1604 8.11281 20.1508 7.8794 20.1508C7.65561 20.1508 7.4373 20.1549 7.2135 20.1604V20.0314C7.51144 20.0011 7.65561 19.9915 7.67071 19.6538V17.2428ZM8.15812 19.5755C8.15812 19.9572 8.43135 20.0025 8.67574 20.0025C9.74943 20.0025 10.1023 19.1924 10.1023 18.451C10.1023 17.5215 9.50641 16.8501 8.54668 16.8501C8.3421 16.8501 8.24874 16.8638 8.1595 16.8693L8.15812 19.5755ZM10.8231 20.0314H10.9178C11.0579 20.0314 11.1567 20.0314 11.1567 19.8666V18.5197C11.1567 18.3014 11.0826 18.2698 10.8986 18.1709V18.0913C11.132 18.0213 11.4108 17.9279 11.43 17.9128C11.4657 17.8936 11.4945 17.8881 11.5206 17.8881C11.5453 17.8881 11.5563 17.9183 11.5563 17.9581V19.8666C11.5563 20.0314 11.6661 20.0314 11.8048 20.0314H11.8899V20.1604C11.7211 20.1604 11.5467 20.1508 11.3682 20.1508C11.1897 20.1508 11.0098 20.1549 10.8272 20.1604L10.8231 20.0314ZM11.3545 17.1233C11.2254 17.1233 11.1101 17.0039 11.1101 16.8748C11.1101 16.7513 11.2295 16.6359 11.3545 16.6359C11.4835 16.6359 11.5989 16.7403 11.5989 16.8748C11.5975 17.0094 11.4876 17.1233 11.3545 17.1233ZM12.3581 18.5499C12.3581 18.3659 12.3032 18.3165 12.0698 18.2231V18.1284C12.2826 18.0597 12.4872 17.9938 12.7261 17.8895C12.7412 17.8895 12.7563 17.8991 12.7563 17.9389V18.2616C13.0391 18.0584 13.2835 17.8881 13.6172 17.8881C14.0387 17.8881 14.1883 18.197 14.1883 18.5842V19.8666C14.1883 20.0314 14.2982 20.0314 14.4368 20.0314H14.5261V20.1604C14.3517 20.1604 14.1773 20.1508 13.9989 20.1508C13.8204 20.1508 13.6405 20.1549 13.462 20.1604V20.0314H13.5513C13.6913 20.0314 13.7902 20.0314 13.7902 19.8666V18.5787C13.7902 18.2959 13.6172 18.1558 13.333 18.1558C13.1737 18.1558 12.9211 18.2849 12.7563 18.3947V19.8652C12.7563 20.03 12.8661 20.03 13.0062 20.03H13.0954V20.159C12.9224 20.159 12.7467 20.1494 12.5682 20.1494C12.3897 20.1494 12.2098 20.1535 12.0313 20.159V20.03H12.122C12.262 20.03 12.3609 20.03 12.3609 19.8652L12.3581 18.5499ZM14.9037 18.7902C14.894 18.8355 14.894 18.9096 14.9037 19.0785C14.9339 19.5508 15.2359 19.938 15.6341 19.938C15.9073 19.938 16.1215 19.7883 16.3055 19.6057L16.3741 19.6757C16.1462 19.9792 15.862 20.2373 15.4542 20.2373C14.6634 20.2373 14.5041 19.4712 14.5041 19.1526C14.5041 18.1778 15.1604 17.8895 15.5078 17.8895C15.9114 17.8895 16.3439 18.1435 16.3481 18.6693C16.3481 18.6995 16.3481 18.7284 16.3439 18.76L16.2986 18.7902H14.9037ZM15.7824 18.6309C15.9059 18.6309 15.9211 18.5664 15.9211 18.5073C15.9211 18.2533 15.7673 18.0501 15.4886 18.0501C15.1851 18.0501 14.9764 18.2725 14.9174 18.6323L15.7824 18.6309ZM16.4634 20.0314H16.5979C16.7366 20.0314 16.8368 20.0314 16.8368 19.8666V18.4703C16.8368 18.3165 16.6529 18.2863 16.5787 18.2465V18.1723C16.9412 18.0172 17.1416 17.8895 17.1856 17.8895C17.2158 17.8895 17.2295 17.9046 17.2295 17.954V18.4016H17.2405C17.3641 18.208 17.5728 17.8895 17.8762 17.8895C17.9998 17.8895 18.159 17.9746 18.159 18.1531C18.159 18.2876 18.0643 18.4071 17.9256 18.4071C17.7705 18.4071 17.7705 18.2876 17.5975 18.2876C17.5124 18.2876 17.235 18.4016 17.235 18.7009V19.868C17.235 20.0327 17.3339 20.0327 17.4739 20.0327H17.7513V20.1618C17.478 20.1563 17.2707 20.1522 17.0565 20.1522C16.8533 20.1522 16.6432 20.1563 16.4648 20.1618L16.4634 20.0314ZM18.3773 19.4698C18.4419 19.7979 18.641 20.0767 19.0034 20.0767C19.2959 20.0767 19.4057 19.8982 19.4057 19.7238C19.4057 19.1375 18.3224 19.3256 18.3224 18.5252C18.3224 18.2465 18.5462 17.8881 19.0927 17.8881C19.2519 17.8881 19.4648 17.9334 19.6584 18.0336L19.694 18.5403H19.5801C19.5307 18.2272 19.3577 18.0487 19.0391 18.0487C18.84 18.0487 18.6519 18.1627 18.6519 18.3769C18.6519 18.959 19.8053 18.7806 19.8053 19.5604C19.8053 19.8886 19.5416 20.2373 18.9513 20.2373C18.7522 20.2373 18.5188 20.1687 18.3444 20.0684L18.2895 19.4959L18.3773 19.4698ZM24.2922 17.5915H24.1686C24.0739 17.0108 23.6606 16.776 23.1059 16.776C22.5334 16.776 21.7027 17.1577 21.7027 18.3508C21.7027 19.3558 22.4195 20.0767 23.1842 20.0767C23.6757 20.0767 24.0835 19.7389 24.1838 19.2172L24.2977 19.2474L24.1838 19.9737C23.9751 20.1027 23.4135 20.2373 23.0854 20.2373C21.9224 20.2373 21.1879 19.4876 21.1879 18.3673C21.1879 17.3485 22.0968 16.6181 23.0716 16.6181C23.4739 16.6181 23.8611 16.7471 24.2442 16.8817L24.2922 17.5915ZM24.4707 20.0314H24.5654C24.7055 20.0314 24.8043 20.0314 24.8043 19.8666V17.0973C24.8043 16.7746 24.7302 16.765 24.5407 16.7101V16.6304C24.7398 16.5659 24.9485 16.4767 25.0529 16.4162C25.1064 16.386 25.1476 16.3613 25.1613 16.3613C25.1915 16.3613 25.2025 16.3915 25.2025 16.4314V19.8666C25.2025 20.0314 25.311 20.0314 25.451 20.0314H25.5348V20.1604C25.3673 20.1604 25.1915 20.1508 25.013 20.1508C24.8346 20.1508 24.6547 20.1549 24.4721 20.1604L24.4707 20.0314ZM27.6629 19.8872C27.6629 19.9778 27.7178 19.9819 27.8016 19.9819C27.8606 19.9819 27.9362 19.9778 28.0007 19.9778V20.0822C27.7865 20.1014 27.3787 20.2057 27.284 20.2359L27.2593 20.2208V19.8185C26.9613 20.0629 26.732 20.2359 26.3792 20.2359C26.1114 20.2359 25.8327 20.0629 25.8327 19.6455V18.3728C25.8327 18.2437 25.8135 18.1188 25.5348 18.0954V18.0007C25.7133 17.9966 26.1101 17.965 26.1746 17.965C26.2295 17.965 26.2295 18.0007 26.2295 18.1092V19.3915C26.2295 19.5412 26.2295 19.9682 26.6606 19.9682C26.8295 19.9682 27.0533 19.8391 27.262 19.6648V18.3275C27.262 18.2286 27.0231 18.1737 26.8446 18.1243V18.035C27.2922 18.0048 27.5709 17.9664 27.6204 17.9664C27.6616 17.9664 27.6616 18.0021 27.6616 18.057L27.6629 19.8872ZM28.6515 18.2465C28.8506 18.0776 29.1183 17.8881 29.3915 17.8881C29.9682 17.8881 30.3156 18.3906 30.3156 18.933C30.3156 19.5838 29.8391 20.2359 29.1265 20.2359C28.7586 20.2359 28.565 20.1165 28.4359 20.0629L28.2863 20.1769L28.1819 20.1233C28.2259 19.8295 28.2506 19.5412 28.2506 19.2378V17.1C28.2506 16.7773 28.1764 16.7677 27.987 16.7128V16.6332C28.1874 16.5686 28.3947 16.4794 28.4991 16.419C28.554 16.3888 28.5938 16.3641 28.6089 16.3641C28.6391 16.3641 28.6487 16.3943 28.6487 16.4341L28.6515 18.2465ZM28.6515 19.5989C28.6515 19.7883 28.83 20.1069 29.1636 20.1069C29.695 20.1069 29.9188 19.5838 29.9188 19.143C29.9188 18.6062 29.511 18.1586 29.1238 18.1586C28.9398 18.1586 28.786 18.278 28.6515 18.392V19.5989ZM7.20801 23.0519H7.24645C7.34256 23.0519 7.44691 23.0382 7.44691 22.8982V21.4812C7.44691 21.3412 7.34393 21.3261 7.24645 21.3261H7.20801V21.2451C7.31373 21.2451 7.47574 21.2561 7.60892 21.2561C7.74348 21.2561 7.90549 21.2451 8.03318 21.2451V21.3261H7.99474C7.89863 21.3261 7.79428 21.3398 7.79428 21.4812V22.8982C7.79428 23.0382 7.89725 23.0519 7.99474 23.0519H8.03318V23.133C7.90412 23.133 7.74073 23.122 7.60618 23.122C7.473 23.122 7.31373 23.133 7.20801 23.133V23.0519Z" fill="#211E1F"/>
<path id="Vector_17" d="M8.03342 23.1451C7.90299 23.1451 7.7396 23.1341 7.60642 23.1341C7.47461 23.1341 7.31534 23.1451 7.20825 23.1451H7.19727V23.0408H7.24669C7.34418 23.038 7.43479 23.0311 7.43479 22.898V21.481C7.43342 21.3492 7.34418 21.341 7.24669 21.3382H7.19727V21.2339H7.20962C7.31672 21.2339 7.47736 21.2449 7.61054 21.2449C7.74509 21.2449 7.90711 21.2339 8.03479 21.2339H8.04715V21.3382H7.99772C7.90024 21.341 7.80962 21.3492 7.80825 21.481V22.898C7.80825 23.0298 7.89887 23.038 7.99772 23.0408H8.04715V23.1451H8.03342ZM8.02244 23.1218V23.0641H7.99635C7.90024 23.0641 7.78491 23.0476 7.78491 22.898V21.481C7.78628 21.3314 7.90024 21.3149 7.99635 21.3149H8.02244V21.2572C7.89749 21.2572 7.74097 21.2682 7.60916 21.2682C7.4801 21.2682 7.32495 21.2586 7.22061 21.2572V21.3149H7.24669C7.3428 21.3149 7.45814 21.3314 7.45814 21.481V22.898C7.45814 23.0476 7.3428 23.0641 7.24669 23.0641H7.22061V23.1218C7.32495 23.1204 7.47736 23.1108 7.60642 23.1108C7.73685 23.1108 7.89475 23.1204 8.02244 23.1218ZM9.89109 22.6L9.89658 22.5945V21.5799C9.89658 21.3575 9.74143 21.3245 9.6618 21.3245H9.60276V21.2435C9.73045 21.2435 9.85402 21.2545 9.9817 21.2545C10.0929 21.2545 10.2041 21.2435 10.314 21.2435V21.3245H10.2728C10.1588 21.3245 10.0325 21.3465 10.0325 21.6678V22.8993C10.0325 22.9941 10.0353 23.0888 10.049 23.1712H9.94601L8.55379 21.6183V22.7332C8.55379 22.968 8.5991 23.049 8.80779 23.049H8.85447V23.13C8.73777 23.13 8.62244 23.119 8.50573 23.119C8.38491 23.119 8.25997 23.13 8.13777 23.13V23.049H8.17484C8.36157 23.049 8.41786 22.9227 8.41786 22.7057V21.5662C8.41786 21.4151 8.29292 21.3231 8.17209 21.3231H8.1364V21.2421C8.23937 21.2421 8.34509 21.2531 8.44669 21.2531C8.5277 21.2531 8.60596 21.2421 8.68697 21.2421L9.89109 22.6Z" fill="#211E1F"/>
<path id="Vector_18" d="M10.0494 23.1849L9.93678 23.1808L8.56378 21.6513V22.736C8.56652 22.9707 8.6036 23.038 8.8068 23.0408H8.86447V23.1451H8.85211C8.73403 23.1451 8.6187 23.1341 8.50337 23.1341C8.38254 23.1341 8.25897 23.1451 8.1354 23.1451H8.12305V23.0408H8.17247C8.35096 23.0394 8.40177 22.9254 8.40451 22.7085V21.5689C8.40451 21.4247 8.28643 21.3369 8.1711 21.3369H8.12442V21.2325H8.13678C8.23975 21.2325 8.34685 21.2421 8.44707 21.2421C8.52671 21.2421 8.60634 21.2325 8.69696 21.2353L9.88598 22.5726V21.5772C9.8846 21.3616 9.74044 21.3355 9.66218 21.3341H9.59078V21.2298H9.60314C9.73083 21.2298 9.85577 21.2394 9.98209 21.2394C10.0919 21.2394 10.2031 21.2298 10.3144 21.2298H10.3267V21.3341H10.2745C10.1619 21.3369 10.048 21.3479 10.0452 21.6664V22.898C10.0452 22.9927 10.048 23.0874 10.0617 23.1698L10.0645 23.1836L10.0494 23.1849ZM9.94501 23.1616H10.0343C10.0219 23.0806 10.0205 22.99 10.0205 22.9007V21.6691C10.0205 21.3437 10.1565 21.3135 10.2732 21.3135H10.302V21.2559C10.1949 21.2572 10.0892 21.2669 9.98071 21.2669C9.85714 21.2669 9.73632 21.2572 9.61412 21.2559V21.3135H9.66218C9.74593 21.3135 9.90932 21.3506 9.90932 21.5799L9.90657 22.6028L9.90108 22.6083L9.89284 22.6165L8.69009 21.2572C8.61046 21.2572 8.5322 21.2682 8.44982 21.2682C8.35096 21.2682 8.24936 21.2586 8.15051 21.2572L8.14913 21.3149H8.17385C8.30154 21.3149 8.4306 21.411 8.4306 21.5703V22.7099C8.4306 22.9268 8.37019 23.0641 8.17522 23.0655L8.14913 23.0641V23.1218C8.26721 23.1204 8.38666 23.1108 8.50474 23.1108C8.61733 23.1108 8.72991 23.1204 8.8425 23.1218V23.0641H8.80817C8.59536 23.0627 8.54181 22.9707 8.54181 22.736V21.5909L9.94501 23.1616ZM10.7194 21.3794C10.5162 21.3794 10.5079 21.4275 10.4681 21.6252H10.3871C10.3981 21.5497 10.4118 21.4742 10.4201 21.3959C10.4311 21.3204 10.4365 21.2449 10.4365 21.1666H10.5011C10.523 21.2476 10.5903 21.2449 10.6631 21.2449H12.0581C12.1322 21.2449 12.1981 21.2421 12.2036 21.1611L12.2681 21.1721C12.2571 21.2463 12.2475 21.3177 12.2379 21.3918C12.2338 21.4646 12.2338 21.5373 12.2338 21.6101L12.1528 21.6403C12.1473 21.5401 12.1336 21.3794 11.9523 21.3794H11.5089V22.8183C11.5089 23.027 11.6036 23.0518 11.7327 23.0518H11.7848V23.1328C11.6791 23.1328 11.4896 23.1218 11.3441 23.1218C11.1821 23.1218 10.9926 23.1328 10.8869 23.1328V23.0518H10.9391C11.0887 23.0518 11.1629 23.038 11.1629 22.8252V21.3808L10.7194 21.3794Z" fill="#211E1F"/>
<path id="Vector_19" d="M11.7845 23.1451C11.6774 23.1451 11.4893 23.1341 11.3424 23.1341C11.1804 23.1341 10.9909 23.1451 10.8852 23.1451H10.8742V23.0407H10.9373C11.087 23.038 11.146 23.0352 11.1488 22.8252V21.3918H10.7177V21.367H11.1721V22.8238C11.1721 23.0407 11.0843 23.0627 10.936 23.0627H10.8962V23.1204C11.0033 23.1204 11.1845 23.1108 11.3424 23.1108C11.4824 23.1108 11.6637 23.1204 11.7708 23.1204V23.0627H11.7309C11.6005 23.0627 11.4948 23.0311 11.4948 22.8183V21.367H11.9506C12.1319 21.3684 12.1566 21.5222 12.1621 21.6224L12.2197 21.6005C12.2197 21.5304 12.2197 21.459 12.2252 21.389C12.2335 21.3204 12.2431 21.2503 12.2527 21.1817L12.2115 21.1748C12.1991 21.2545 12.1222 21.2572 12.055 21.2572H10.6476C10.5845 21.2572 10.5145 21.2545 10.4911 21.1776H10.4458C10.4458 21.2517 10.4403 21.3245 10.4293 21.3973C10.4211 21.4714 10.4101 21.5428 10.3991 21.6142H10.4568C10.4925 21.4247 10.5158 21.3643 10.7177 21.367V21.3918C10.5172 21.3945 10.5227 21.4288 10.4788 21.6293L10.476 21.6375H10.373L10.3744 21.6238C10.3854 21.5483 10.3991 21.4728 10.4074 21.3945C10.4184 21.3204 10.4238 21.2435 10.4238 21.1666V21.1542H10.509L10.5117 21.1625C10.5309 21.2311 10.5804 21.2311 10.649 21.2325H12.0577C12.1332 21.2311 12.1868 21.2297 12.1923 21.1597L12.1936 21.146L12.206 21.1487L12.2815 21.1611L12.2788 21.1735C12.2678 21.2462 12.2568 21.319 12.2486 21.3918C12.2431 21.4645 12.2431 21.5373 12.2431 21.6101V21.6183L12.2348 21.6211L12.1387 21.6568L12.1373 21.6416C12.1291 21.54 12.1195 21.3931 11.9479 21.3931H11.5168V22.8211C11.5195 23.0256 11.6005 23.0394 11.7282 23.0421H11.7914V23.1465L11.7845 23.1451ZM12.3543 23.0517H12.3927C12.4888 23.0517 12.5932 23.038 12.5932 22.8979V21.481C12.5932 21.341 12.4902 21.3259 12.3927 21.3259H12.3543V21.2449C12.519 21.2449 12.8005 21.2558 13.0271 21.2558C13.2536 21.2558 13.5351 21.2449 13.719 21.2449C13.7149 21.3616 13.7163 21.54 13.7245 21.6595L13.6435 21.6815C13.6298 21.5057 13.5982 21.3657 13.314 21.3657H12.9378V22.0741H13.2591C13.4211 22.0741 13.4568 21.9835 13.4719 21.8352H13.5529C13.5474 21.941 13.5447 22.0467 13.5447 22.151C13.5447 22.254 13.5474 22.357 13.5529 22.46L13.4719 22.4764C13.4554 22.3144 13.4472 22.2087 13.2605 22.2087H12.9364V22.8389C12.9364 23.0146 13.093 23.0146 13.266 23.0146C13.5914 23.0146 13.7341 22.9927 13.8152 22.6851L13.8907 22.7043C13.855 22.8485 13.822 22.9913 13.7987 23.1355C13.6257 23.1355 13.314 23.1245 13.071 23.1245C12.8266 23.1245 12.5053 23.1355 12.3515 23.1355L12.3543 23.0517Z" fill="#211E1F"/>
<path id="Vector_20" d="M13.8009 23.1451C13.6279 23.1451 13.3162 23.1341 13.0732 23.1341C12.8288 23.1341 12.5089 23.1451 12.3538 23.1451H12.3428V23.0408H12.3922C12.4897 23.0394 12.5789 23.0311 12.5803 22.898V21.481C12.5789 21.3492 12.4897 21.341 12.3922 21.3382H12.3428V21.2339H12.3538C12.5185 21.2339 12.8 21.2435 13.0265 21.2435C13.2531 21.2435 13.5345 21.2339 13.7185 21.2339H13.7309L13.7295 21.2462C13.7268 21.2874 13.7268 21.3355 13.7268 21.3863C13.7268 21.4797 13.7295 21.5813 13.735 21.6581V21.6678L13.7268 21.6705L13.6306 21.6952V21.6815C13.6142 21.5057 13.5908 21.3781 13.3135 21.3767H12.9496V22.0604H13.2599C13.4165 22.0591 13.4439 21.9794 13.4618 21.8325L13.4631 21.8215H13.5661V21.8339C13.5606 21.9396 13.5579 22.0453 13.5579 22.1497C13.5579 22.2513 13.5606 22.3556 13.5661 22.4572V22.4668L13.5565 22.4696L13.4618 22.4888L13.4604 22.4751C13.4412 22.3103 13.4412 22.2197 13.2599 22.2183H12.9469V22.8362C12.9469 23.0009 13.0883 22.9996 13.2654 23.0009C13.5908 22.9982 13.7213 22.9831 13.8036 22.6797L13.8064 22.6687L13.8174 22.6714L13.9039 22.6934L13.9011 22.7044C13.8654 22.8472 13.8338 22.9913 13.8105 23.1341L13.8078 23.1437H13.8009V23.1451ZM13.7913 23.1204C13.8146 22.9845 13.8448 22.8472 13.8792 22.7112L13.8256 22.6975C13.7446 23.0009 13.5867 23.027 13.2682 23.0243C13.0979 23.0243 12.9277 23.0243 12.9263 22.8362V22.195H13.2627C13.4522 22.1922 13.4714 22.3076 13.4851 22.4613L13.5428 22.449C13.5373 22.3488 13.5345 22.2499 13.5345 22.1497C13.5345 22.0481 13.5373 21.9465 13.5428 21.8449H13.4851C13.47 21.9849 13.4261 22.0838 13.2613 22.0838H12.9277V21.3506H13.3149C13.5963 21.3478 13.643 21.4934 13.6554 21.6636L13.713 21.6485C13.7089 21.573 13.7048 21.4742 13.7048 21.3835C13.7048 21.3369 13.7062 21.2929 13.7075 21.2545C13.5236 21.2559 13.249 21.2655 13.0279 21.2655C12.8055 21.2655 12.5322 21.2559 12.3661 21.2545V21.3121H12.3922C12.4883 21.3121 12.6036 21.3286 12.6036 21.4783V22.8952C12.6036 23.0449 12.4883 23.0613 12.3922 23.0613H12.3661V23.119C12.524 23.119 12.8357 23.1094 13.0732 23.1094C13.3121 23.1108 13.6169 23.1204 13.7913 23.1204ZM14.2581 21.5305C14.2581 21.3327 14.151 21.3245 14.0659 21.3245H14.0178V21.2435C14.1043 21.2435 14.2718 21.2545 14.438 21.2545C14.6 21.2545 14.7304 21.2435 14.8732 21.2435C15.2137 21.2435 15.5171 21.3355 15.5171 21.7199C15.5171 21.9629 15.3551 22.1126 15.1409 22.195L15.6036 22.887C15.6792 23.0009 15.7327 23.0325 15.8659 23.049V23.13C15.7766 23.13 15.6901 23.119 15.6009 23.119C15.5171 23.119 15.4306 23.13 15.3469 23.13C15.1382 22.8568 14.9597 22.5643 14.784 22.254H14.6055V22.8334C14.6055 23.0421 14.7016 23.0504 14.8265 23.0504H14.8746V23.1314C14.7194 23.1314 14.5643 23.1204 14.4105 23.1204C14.2814 23.1204 14.1538 23.1314 14.0178 23.1314V23.0504H14.0659C14.1675 23.0504 14.2581 23.0051 14.2581 22.9048V21.5305ZM14.6041 22.1593H14.7359C15.0064 22.1593 15.1519 22.0563 15.1519 21.7378C15.1519 21.4975 14.9982 21.3437 14.7565 21.3437C14.6755 21.3437 14.6412 21.352 14.6027 21.3547L14.6041 22.1593Z" fill="#211E1F"/>
<path id="Vector_21" d="M15.8653 23.1451C15.7747 23.1451 15.6882 23.1341 15.5989 23.1341C15.5166 23.1341 15.4301 23.1451 15.3353 23.141C15.128 22.8691 14.9495 22.5781 14.7751 22.2691H14.6159V22.8362C14.6186 23.0394 14.701 23.038 14.8259 23.0408H14.8863V23.1451H14.874C14.7188 23.1451 14.5623 23.1341 14.4099 23.1341C14.2809 23.1341 14.1545 23.1451 14.0172 23.1451H14.0049V23.0408H14.0653C14.1628 23.0394 14.2452 22.9982 14.2452 22.9062V21.5318C14.2424 21.3396 14.149 21.341 14.0653 21.3382H14.0049V21.2339H14.0172C14.1051 21.2339 14.2726 21.2449 14.4374 21.2449C14.5994 21.2449 14.7285 21.2339 14.8726 21.2339C15.2131 21.2353 15.5275 21.3286 15.5289 21.7213C15.5289 21.9657 15.3669 22.1181 15.1582 22.2032L15.6127 22.8829C15.6882 22.9954 15.7362 23.0229 15.868 23.0394L15.8777 23.0408V23.1437H15.8653V23.1451ZM14.6049 22.2444H14.7889L14.7916 22.2499C14.9687 22.5602 15.1458 22.8526 15.3449 23.1204C15.4273 23.1204 15.5138 23.1094 15.5989 23.1094C15.6854 23.1094 15.7692 23.119 15.8529 23.1204V23.0613C15.7252 23.0462 15.6662 23.0078 15.5921 22.8952L15.1225 22.1909L15.1362 22.1854C15.3477 22.1016 15.5042 21.9575 15.5042 21.7199C15.5042 21.3437 15.2117 21.2572 14.8726 21.2559C14.7298 21.2559 14.6008 21.2668 14.4374 21.2668C14.2781 21.2668 14.1175 21.2572 14.0296 21.2559V21.3135H14.0667C14.1504 21.3135 14.2699 21.3273 14.2699 21.5305V22.9048C14.2699 23.0133 14.1683 23.0627 14.0667 23.0627H14.0296V23.1204C14.16 23.1204 14.2836 23.1094 14.4099 23.1094C14.5609 23.1094 14.7147 23.119 14.863 23.1204V23.0627H14.8259C14.7024 23.0627 14.5925 23.0476 14.5925 22.8348V22.2444H14.6049ZM14.6049 22.1703H14.5925V21.3424L14.6021 21.341C14.6392 21.3382 14.6763 21.33 14.7573 21.33C15.0031 21.33 15.1637 21.4906 15.1651 21.7364C15.1637 22.0591 15.0085 22.1689 14.7367 22.1689L14.6049 22.1703ZM14.7367 22.1469C15.0044 22.1442 15.139 22.0508 15.1417 21.7378C15.1404 21.5016 14.9934 21.3547 14.7573 21.3533C14.6831 21.3533 14.6502 21.3602 14.6159 21.3629V22.1469H14.7367ZM17.701 22.6L17.7051 22.5945V21.5799C17.7051 21.3575 17.5513 21.3245 17.4703 21.3245H17.4113V21.2435C17.539 21.2435 17.6625 21.2545 17.7902 21.2545C17.9015 21.2545 18.0127 21.2435 18.1225 21.2435V21.3245H18.0813C17.9687 21.3245 17.841 21.3465 17.841 21.6678V22.8993C17.841 22.9941 17.8438 23.0888 17.8575 23.1712H17.7559L16.3637 21.6183V22.7332C16.3637 22.968 16.4104 23.049 16.6177 23.049H16.6644V23.13C16.5477 23.13 16.431 23.119 16.3156 23.119C16.1934 23.119 16.0699 23.13 15.9477 23.13V23.049H15.9847C16.1715 23.049 16.2291 22.9227 16.2291 22.7057V21.5662C16.2291 21.4151 16.1056 21.3231 15.9834 21.3231H15.9477V21.2421C16.0493 21.2421 16.1564 21.2531 16.258 21.2531C16.3376 21.2531 16.4172 21.2421 16.4982 21.2421L17.701 22.6Z" fill="#211E1F"/>
<path id="Vector_22" d="M17.8581 23.185L17.7469 23.1822L16.3739 21.6527V22.7374C16.3767 22.9722 16.4124 23.0394 16.6169 23.0422H16.6746V23.1465H16.6623C16.5442 23.1465 16.4288 23.1355 16.3135 23.1355C16.1927 23.1355 16.0678 23.1465 15.9469 23.1465H15.9346V23.0422H15.984C16.1625 23.0408 16.2133 22.9268 16.216 22.7099V21.5703C16.216 21.4262 16.098 21.3383 15.9826 21.3383H15.9359V21.2339H15.9483C16.0513 21.2339 16.157 21.2449 16.2586 21.2449C16.3382 21.2449 16.4165 21.2339 16.5071 21.2381L17.6961 22.5767V21.5813C17.6948 21.3657 17.5506 21.3397 17.4737 21.3383H17.4023V21.2339H17.4147C17.5423 21.2339 17.6673 21.2449 17.7936 21.2449C17.9034 21.2449 18.0147 21.2339 18.1259 21.2339H18.1382V21.3383H18.0861C17.9735 21.341 17.8595 21.352 17.8568 21.6705V22.9021C17.8568 22.9969 17.8595 23.0902 17.8732 23.174L17.8746 23.1877L17.8581 23.185ZM17.7538 23.1616H17.843C17.8307 23.0806 17.8293 22.99 17.8293 22.9008V21.6692C17.8293 21.3438 17.9666 21.3149 18.0819 21.3136H18.1108V21.2559C18.0037 21.2573 17.898 21.2669 17.7895 21.2669C17.6659 21.2669 17.5451 21.2573 17.4229 21.2559V21.3136H17.471C17.5547 21.3149 17.7181 21.3506 17.7181 21.5799L17.7153 22.6028L17.7099 22.6083L17.7016 22.6165L16.4975 21.2573C16.4179 21.2573 16.3396 21.2683 16.2572 21.2683C16.157 21.2683 16.0568 21.2586 15.9579 21.2573V21.3149H15.9826C16.1103 21.3163 16.2394 21.4111 16.2394 21.5703V22.7099C16.2394 22.9268 16.1776 23.0655 15.984 23.0655H15.9579V23.1232C16.0746 23.1218 16.1954 23.1136 16.3135 23.1136C16.4261 23.1136 16.5401 23.1232 16.6513 23.1232V23.0655H16.6169C16.4041 23.0655 16.3506 22.9722 16.3506 22.7374V21.5937L17.7538 23.1616ZM18.557 22.7456C18.5295 22.8362 18.4966 22.9076 18.4966 22.957C18.4966 23.0381 18.6105 23.0518 18.6998 23.0518H18.73V23.1328C18.6215 23.1273 18.5117 23.1218 18.4032 23.1218C18.3057 23.1218 18.2083 23.1259 18.1121 23.1328V23.0518H18.1286C18.2343 23.0518 18.3236 22.9886 18.3634 22.876L18.7959 21.6349C18.8316 21.5346 18.8796 21.4001 18.8961 21.2985C18.9813 21.2683 19.0911 21.2147 19.1419 21.1818C19.1501 21.179 19.1556 21.1763 19.1639 21.1763C19.1721 21.1763 19.1776 21.1763 19.1831 21.1845C19.1913 21.2051 19.1982 21.2312 19.2078 21.2518L19.7048 22.666C19.7378 22.7607 19.7694 22.8609 19.8051 22.9419C19.838 23.0175 19.8957 23.049 19.9835 23.049H20V23.13C19.8778 23.1246 19.7556 23.1191 19.6266 23.1191C19.4934 23.1191 19.3588 23.1232 19.2202 23.13V23.049H19.2504C19.3121 23.049 19.4179 23.0381 19.4179 22.9708C19.4179 22.9351 19.3932 22.8637 19.3629 22.7758L19.2572 22.4614H18.6435L18.557 22.7456ZM18.9524 21.547H18.9469L18.6957 22.3131H19.2009L18.9524 21.547Z" fill="#211E1F"/>
<path id="Vector_23" d="M19.999 23.1451C19.8768 23.1396 19.7547 23.1341 19.627 23.1341C19.4938 23.1341 19.3606 23.1396 19.2219 23.1451L19.2096 23.1465V23.0408H19.2508C19.3139 23.0408 19.4073 23.027 19.4073 22.9749C19.4087 22.9447 19.3826 22.8691 19.3537 22.784L19.2508 22.4792H18.6549L18.5711 22.7524C18.5437 22.8444 18.5121 22.9158 18.5121 22.9598C18.5135 23.0257 18.6137 23.0421 18.7029 23.0421H18.7441V23.1479L18.7318 23.1465C18.6233 23.141 18.5135 23.1355 18.405 23.1355C18.3089 23.1355 18.21 23.141 18.1139 23.1465L18.1016 23.1479V23.0421H18.129C18.2306 23.0421 18.313 22.9845 18.3528 22.8746L18.7853 21.6334C18.821 21.5332 18.8704 21.3987 18.8924 21.2902C18.9775 21.2614 19.086 21.2064 19.1382 21.1735C19.1464 21.1707 19.1533 21.1666 19.1643 21.1666C19.1711 21.1666 19.1849 21.168 19.1945 21.1817C19.2027 21.2037 19.2109 21.2284 19.2192 21.2504L19.7176 22.6646C19.7492 22.7593 19.7807 22.8595 19.8178 22.9392C19.8494 23.0119 19.8988 23.0408 19.9853 23.0408H20.0128V23.1465L19.999 23.1451ZM19.2315 23.1204C19.3661 23.1163 19.4965 23.1108 19.6256 23.1108C19.7505 23.1108 19.8686 23.1163 19.9853 23.1204V23.0641H19.9826C19.8906 23.0655 19.826 23.0284 19.7931 22.9488C19.7574 22.8664 19.7244 22.7662 19.6929 22.6714L19.1958 21.2572C19.1876 21.2353 19.1794 21.2106 19.1725 21.1927C19.1698 21.19 19.1698 21.19 19.1684 21.19H19.1643C19.1588 21.19 19.156 21.1927 19.1492 21.1927C19.097 21.227 18.9885 21.2792 18.9089 21.3012C18.8924 21.4028 18.8444 21.5387 18.8073 21.6389L18.3748 22.8801C18.3336 22.9982 18.2389 23.0641 18.129 23.0641H18.1249V23.1204C18.2169 23.1163 18.3116 23.1108 18.405 23.1108C18.5093 23.1108 18.6164 23.1163 18.7194 23.1204V23.0641H18.7016C18.6137 23.0627 18.4901 23.0531 18.4874 22.957C18.4874 22.9035 18.5203 22.8334 18.5464 22.7428L18.5588 22.7456L18.5464 22.7415L18.6357 22.4531H19.2659L19.3743 22.7744C19.4045 22.8609 19.4293 22.9337 19.4293 22.9735C19.4265 23.0572 19.3112 23.0627 19.2508 23.0641H19.2329L19.2315 23.1204ZM18.6796 22.3254L18.9391 21.5373H18.9528H18.9611L19.2178 22.3254H18.6796ZM18.7112 22.3007H19.1849L18.9501 21.5758L18.7112 22.3007ZM20.1185 21.3794C19.9153 21.3794 19.9071 21.4275 19.8672 21.6252H19.7862C19.7972 21.5497 19.8109 21.4742 19.8192 21.3959C19.8302 21.3204 19.8343 21.2449 19.8343 21.1666H19.8988C19.9208 21.2476 19.9881 21.2449 20.0608 21.2449H21.4572C21.5299 21.2449 21.5972 21.2421 21.6027 21.1611L21.6672 21.1721C21.6576 21.2463 21.6466 21.3177 21.637 21.3918C21.6315 21.4646 21.6315 21.5373 21.6315 21.6101L21.5505 21.6403C21.545 21.5401 21.5313 21.3794 21.3501 21.3794H20.9066V22.8183C20.9066 23.027 21.0013 23.0518 21.1304 23.0518H21.1826V23.1328C21.0768 23.1328 20.8887 23.1218 20.7418 23.1218C20.5798 23.1218 20.3903 23.1328 20.2846 23.1328V23.0518H20.3368C20.4865 23.0518 20.562 23.038 20.562 22.8252V21.3808L20.1185 21.3794Z" fill="#211E1F"/>
<path id="Vector_24" d="M21.1839 23.1455C21.0768 23.1455 20.8887 23.1345 20.7432 23.1345C20.5812 23.1345 20.3917 23.1455 20.286 23.1455H20.2736V23.0411H20.3368C20.4864 23.0384 20.5455 23.0356 20.5496 22.8256V21.3922H20.1185V21.3674H20.5729V22.8242C20.5729 23.0411 20.485 23.0631 20.3368 23.0631H20.2969V23.1208C20.404 23.1194 20.5853 23.1098 20.7432 23.1098C20.8846 23.1098 21.0645 23.1194 21.1715 23.1208V23.0631H21.1317C21.0027 23.0617 20.8969 23.0315 20.8956 22.8187V21.3674H21.3514C21.5326 21.3688 21.5574 21.5226 21.5629 21.6228L21.6219 21.6009C21.6219 21.5308 21.6219 21.4594 21.6274 21.3894C21.6356 21.3208 21.6452 21.2494 21.6548 21.1821L21.6137 21.1752C21.6013 21.2549 21.5244 21.259 21.4571 21.2576H20.0484C19.9853 21.259 19.9153 21.2549 19.8919 21.178H19.848C19.8466 21.2521 19.8425 21.3263 19.8315 21.3976C19.8246 21.4718 19.8109 21.5432 19.8013 21.6146H19.859C19.8947 21.4251 19.918 21.3647 20.1198 21.3674V21.3922C19.9194 21.3949 19.9249 21.4292 19.8796 21.6297L19.8768 21.6379H19.7725L19.7752 21.6242C19.7862 21.5487 19.7999 21.4732 19.8082 21.3949C19.8191 21.3194 19.8246 21.2439 19.8246 21.167V21.1546H19.9098L19.9125 21.1629C19.9317 21.2315 19.9812 21.2315 20.0498 21.2329H20.0635H21.4599C21.534 21.2315 21.5889 21.2301 21.5944 21.1587L21.5958 21.145L21.6095 21.1478L21.6864 21.1601L21.6837 21.1725C21.6727 21.2452 21.6631 21.318 21.6535 21.3908C21.648 21.4636 21.648 21.5363 21.648 21.6091V21.6173L21.6397 21.6201L21.5436 21.6558V21.6407C21.5368 21.5391 21.5258 21.3922 21.3542 21.3922H20.923V22.8201C20.9258 23.0247 21.0068 23.0384 21.1345 23.0411H21.1976V23.1455H21.1839ZM21.7674 23.0521H21.8059C21.9034 23.0521 22.0063 23.0384 22.0063 22.8983V21.4814C22.0063 21.3414 21.9047 21.3263 21.8059 21.3263H21.7674V21.2452C21.8731 21.2452 22.0352 21.2562 22.167 21.2562C22.3029 21.2562 22.4649 21.2452 22.5926 21.2452V21.3263H22.5555C22.458 21.3263 22.3551 21.34 22.3551 21.4814V22.8983C22.3551 23.0384 22.458 23.0521 22.5555 23.0521H22.5926V23.1331C22.4635 23.1331 22.3001 23.1221 22.1656 23.1221C22.0324 23.1221 21.8731 23.1331 21.7674 23.1331V23.0521Z" fill="#211E1F"/>
<path id="Vector_25" d="M22.5924 23.1455C22.462 23.1455 22.3 23.1345 22.1654 23.1345C22.0336 23.1345 21.873 23.1455 21.7672 23.1455H21.7549V23.0412H21.8043C21.9018 23.0398 21.9924 23.0316 21.9924 22.8984V21.4814C21.9924 21.3496 21.9018 21.3414 21.8043 21.3387H21.7549V21.2343H21.7672C21.873 21.2343 22.035 21.2439 22.1668 21.2439C22.3013 21.2439 22.4633 21.2343 22.5924 21.2343H22.6034V21.3387H22.554C22.4551 21.3414 22.3659 21.3496 22.3645 21.4814V22.8984C22.3659 23.0316 22.4551 23.0384 22.554 23.0412H22.6034V23.1455H22.5924ZM22.5801 23.1208V23.0631H22.5553C22.4592 23.0631 22.3439 23.0453 22.3439 22.897V21.4801C22.3439 21.3304 22.4579 21.3139 22.5553 21.3139H22.5801V21.2563C22.4551 21.2576 22.2986 21.2673 22.1668 21.2673C22.0377 21.2673 21.8839 21.2576 21.7796 21.2563V21.3139H21.8057C21.9018 21.3139 22.0171 21.3304 22.0171 21.4801V22.8984C22.0171 23.048 21.9018 23.0645 21.8057 23.0645H21.7796V23.1222C21.8839 23.1208 22.0363 23.1126 22.1654 23.1126C22.2958 23.1112 22.4524 23.1208 22.5801 23.1208ZM23.6702 21.2041C24.2469 21.2041 24.7055 21.5611 24.7055 22.1377C24.7055 22.7611 24.2592 23.173 23.6839 23.173C23.11 23.173 22.672 22.783 22.672 22.2023C22.6734 21.6407 23.1087 21.2041 23.6702 21.2041ZM23.7128 23.0549C24.2373 23.0549 24.3293 22.5922 24.3293 22.1982C24.3293 21.8027 24.1164 21.3236 23.6675 21.3236C23.1938 21.3236 23.0537 21.7451 23.0537 22.1075C23.0524 22.5908 23.2734 23.0549 23.7128 23.0549Z" fill="#211E1F"/>
<path id="Vector_26" d="M22.6611 22.2019C22.6625 21.6335 23.1032 21.1928 23.6703 21.1928V21.2161C23.1142 21.2161 22.6845 21.6472 22.6845 22.2019C22.6858 22.7772 23.117 23.1603 23.6854 23.1603C24.2552 23.1603 24.6945 22.7525 24.6959 22.136C24.6959 21.5676 24.2428 21.2161 23.6717 21.2147V21.1914C24.2524 21.1914 24.7179 21.5525 24.7193 22.136C24.7193 22.7649 24.2662 23.1823 23.6854 23.1836C23.106 23.1836 22.6625 22.7896 22.6611 22.2019ZM23.0401 22.1072C23.0415 21.7434 23.1829 21.3109 23.6662 21.3109C24.1247 21.3122 24.3389 21.7996 24.3403 22.1978C24.3389 22.5919 24.2469 23.0669 23.7115 23.0669V23.0436C24.225 23.0422 24.3142 22.5919 24.3156 22.1978C24.3156 21.8051 24.1042 21.3369 23.6648 21.3356C23.2007 21.3369 23.0634 21.7475 23.0634 22.1072C23.0634 22.5891 23.2831 23.0422 23.7115 23.0436V23.0669C23.2625 23.0655 23.0415 22.5946 23.0401 22.1072ZM26.5302 22.6001L26.5357 22.5946V21.58C26.5357 21.3575 26.3806 21.3246 26.2996 21.3246H26.2419V21.2436C26.3682 21.2436 26.4932 21.2546 26.6195 21.2546C26.7307 21.2546 26.8419 21.2436 26.9518 21.2436V21.3246H26.9106C26.798 21.3246 26.6703 21.3466 26.6703 21.6678V22.8994C26.6703 22.9942 26.673 23.0889 26.6868 23.1713H26.5852L25.1929 21.6184V22.7333C25.1929 22.9681 25.2396 23.0491 25.4469 23.0491H25.4936V23.1301C25.3769 23.1301 25.2602 23.1191 25.1449 23.1191C25.0227 23.1191 24.8991 23.1301 24.7769 23.1301V23.0491H24.8154C25.0021 23.0491 25.0584 22.9228 25.0584 22.7058V21.5662C25.0584 21.4152 24.9348 21.3232 24.8126 21.3232H24.7769V21.2422C24.8799 21.2422 24.9856 21.2532 25.0872 21.2532C25.1682 21.2532 25.2465 21.2422 25.3275 21.2422L26.5302 22.6001Z" fill="#211E1F"/>
<path id="Vector_27" d="M26.6867 23.185L26.5741 23.1808L25.2025 21.6513V22.736C25.2052 22.9708 25.2409 23.0381 25.4441 23.0408H25.5018V23.1465H25.4894C25.3713 23.1465 25.256 23.1355 25.1407 23.1355C25.0198 23.1355 24.8949 23.1465 24.7727 23.1465H24.7617V23.0408H24.8111C24.9896 23.0408 25.0404 22.9255 25.0432 22.7099V21.5703C25.0432 21.4262 24.9251 21.3383 24.8084 21.3383H24.7617V21.2339H24.7727C24.8757 21.2339 24.9814 21.2435 25.083 21.2435C25.1626 21.2435 25.2409 21.2339 25.3329 21.2367L26.5219 22.574V21.5799C26.5205 21.3644 26.3764 21.3383 26.2981 21.3369H26.2267V21.2326H26.2391C26.3668 21.2326 26.4903 21.2422 26.6166 21.2422C26.7279 21.2422 26.8377 21.2326 26.9503 21.2326H26.9626V21.3369H26.9105C26.7992 21.3397 26.6839 21.3506 26.6825 21.6692V22.9008C26.6825 22.9955 26.6853 23.0902 26.6976 23.1726L26.7004 23.1863L26.6867 23.185ZM26.5837 23.1616H26.6729C26.6606 23.0806 26.6592 22.99 26.6592 22.9008V21.6692C26.6592 21.3438 26.7951 21.3149 26.9118 21.3136H26.942V21.2559C26.8349 21.2573 26.7292 21.2669 26.6208 21.2669C26.4972 21.2669 26.3764 21.2573 26.2542 21.2559V21.3136H26.3008C26.3846 21.3149 26.548 21.352 26.548 21.5799L26.5452 22.6028L26.5398 22.6083L26.5315 22.6165L25.3274 21.2573C25.2478 21.2573 25.1695 21.2683 25.0871 21.2683C24.9869 21.2683 24.8867 21.2586 24.7878 21.2573V21.3149H24.8125C24.9402 21.3163 25.0706 21.4111 25.0706 21.5703V22.7099C25.0706 22.9268 25.0102 23.0641 24.8153 23.0655H24.7892V23.1232C24.9073 23.1218 25.0281 23.1136 25.1462 23.1136C25.2587 23.1136 25.3713 23.1232 25.4839 23.1232V23.0655H25.4482C25.2368 23.0655 25.1819 22.9722 25.1819 22.7374V21.5923L26.5837 23.1616ZM27.3869 22.7456C27.3608 22.8362 27.3279 22.9076 27.3279 22.957C27.3279 23.0381 27.4418 23.0518 27.5297 23.0518H27.5599V23.1328C27.4514 23.1273 27.3402 23.1218 27.2331 23.1218C27.1356 23.1218 27.0381 23.1259 26.9407 23.1328V23.0518H26.9558C27.0615 23.0518 27.1507 22.9886 27.1906 22.876L27.623 21.6349C27.6587 21.5346 27.7068 21.4001 27.7233 21.2985C27.8098 21.2683 27.9182 21.2147 27.969 21.1818C27.9773 21.179 27.9828 21.1763 27.9896 21.1763C27.9979 21.1763 28.0034 21.1763 28.0089 21.1845C28.0171 21.2051 28.0253 21.2312 28.0336 21.2518L28.5306 22.666C28.5635 22.7607 28.5951 22.8609 28.6308 22.9419C28.6638 23.0175 28.7201 23.049 28.8093 23.049H28.8258V23.13C28.7036 23.1246 28.5814 23.1191 28.4523 23.1191C28.3205 23.1191 28.1846 23.1232 28.0473 23.13V23.049H28.0775C28.1393 23.049 28.245 23.0381 28.245 22.9708C28.245 22.9351 28.2203 22.8637 28.1901 22.7758L28.0844 22.4614H27.4706L27.3869 22.7456ZM27.7823 21.547H27.7768L27.5256 22.3131H28.0322L27.7823 21.547Z" fill="#211E1F"/>
<path id="Vector_28" d="M28.8272 23.1453C28.705 23.1412 28.5842 23.1343 28.4551 23.1343C28.3233 23.1343 28.1887 23.1398 28.0501 23.1453L28.0377 23.1467V23.041H28.0789C28.142 23.041 28.2354 23.0272 28.2354 22.9737C28.2354 22.9435 28.2107 22.8693 28.1819 22.7828L28.0789 22.478H27.483L27.3993 22.7513C27.3718 22.8433 27.3402 22.9146 27.3416 22.9586C27.3416 23.0245 27.4432 23.041 27.5324 23.041H27.5736V23.1467L27.5613 23.1453C27.4528 23.1412 27.343 23.1343 27.2345 23.1343C27.1384 23.1343 27.0395 23.1398 26.942 23.1453L26.9297 23.1467V23.041H26.9571C27.0587 23.041 27.1425 22.9833 27.1823 22.8735L27.6148 21.6323C27.6491 21.532 27.6986 21.3975 27.7219 21.289C27.807 21.2588 27.9155 21.2053 27.9677 21.1723C27.9745 21.1696 27.9814 21.1668 27.9924 21.1668C28.0006 21.1654 28.013 21.1682 28.0226 21.1819C28.0308 21.2025 28.0391 21.2286 28.0473 21.2506L28.5443 22.6648C28.5759 22.7595 28.6089 22.8597 28.6446 22.9407C28.6761 23.0121 28.7256 23.041 28.8121 23.0423H28.8409V23.1481L28.8272 23.1453ZM28.061 23.1206C28.1956 23.1151 28.3274 23.111 28.4551 23.111C28.5814 23.111 28.6995 23.1165 28.8162 23.1206V23.0643H28.8121C28.7215 23.0643 28.6555 23.0286 28.6226 22.949C28.5869 22.8666 28.5539 22.7664 28.5224 22.6716L28.0253 21.2574C28.0171 21.2355 28.0089 21.2108 28.002 21.1929C27.9993 21.1902 27.9993 21.1902 27.9979 21.1902H27.9924C27.9869 21.1902 27.9842 21.1929 27.9773 21.1929C27.9251 21.2259 27.8153 21.2794 27.7356 21.3C27.7192 21.4016 27.6697 21.5375 27.634 21.6378L27.2015 22.8789C27.1604 22.997 27.067 23.0629 26.9558 23.0629H26.9517V23.1192C27.045 23.1151 27.137 23.1096 27.2317 23.1096C27.3361 23.1096 27.4432 23.1151 27.5475 23.1192V23.0629H27.5283C27.4404 23.0616 27.3169 23.0519 27.3141 22.9558C27.3141 22.9023 27.3485 22.8336 27.3745 22.7416L27.3855 22.7444L27.3745 22.7403L27.4638 22.4519H28.094L28.2025 22.7732C28.2327 22.8597 28.2574 22.9325 28.2574 22.9723C28.2533 23.0561 28.1393 23.0616 28.0789 23.0629H28.061V23.1206ZM27.5077 22.3243L27.7672 21.5362H27.7809H27.7892L28.0446 22.3243H27.5077ZM27.5407 22.3009H28.0144L27.7796 21.576L27.5407 22.3009ZM29.5096 22.868C29.5096 22.9764 29.5837 23.008 29.6716 23.019C29.7828 23.0272 29.905 23.0272 30.0285 23.0135C30.1411 22.9998 30.24 22.9339 30.288 22.868C30.3306 22.8089 30.3567 22.7334 30.3718 22.673H30.4501C30.4198 22.8268 30.3828 22.9792 30.3498 23.133C30.1123 23.133 29.8748 23.122 29.6359 23.122C29.397 23.122 29.1608 23.133 28.9219 23.133V23.0519H28.959C29.0565 23.0519 29.1622 23.0382 29.1622 22.8707V21.4799C29.1622 21.3398 29.0565 21.3247 28.959 21.3247H28.9219V21.2437C29.0647 21.2437 29.2047 21.2547 29.3489 21.2547C29.4876 21.2547 29.6221 21.2437 29.7608 21.2437V21.3247H29.6922C29.5906 21.3247 29.5082 21.3275 29.5082 21.4703L29.5096 22.868Z" fill="#211E1F"/>
<path id="Vector_29" d="M30.3504 23.1451C30.1115 23.1451 29.874 23.1341 29.6365 23.1341C29.3976 23.1341 29.16 23.1451 28.9211 23.1451H28.9102V23.0407H28.9596C29.0571 23.038 29.1504 23.0325 29.1518 22.8719V21.481C29.1504 21.3492 29.0584 21.341 28.9596 21.3382H28.9102V21.2339H28.9211C29.0653 21.2339 29.2054 21.2435 29.3481 21.2435C29.4854 21.2435 29.62 21.2339 29.7587 21.2339H29.7697V21.3382H29.69C29.5857 21.341 29.5198 21.3355 29.517 21.4728V22.8691C29.5184 22.9707 29.5843 22.9968 29.6681 23.0092C29.7161 23.0119 29.7655 23.0147 29.8191 23.0147C29.885 23.0147 29.9536 23.0119 30.0237 23.0037C30.1335 22.9899 30.2296 22.9268 30.2749 22.8636C30.3161 22.806 30.3408 22.7318 30.3559 22.6728L30.3587 22.6645H30.4603L30.4575 22.6783C30.4273 22.8334 30.3889 22.9831 30.3559 23.1382L30.3532 23.1465H30.3504V23.1451ZM30.3408 23.1204C30.3724 22.9735 30.4081 22.8307 30.4369 22.6838H30.3806C30.3642 22.7428 30.3394 22.8156 30.2969 22.8732C30.2461 22.9433 30.1459 23.0092 30.0291 23.0243C29.9578 23.0325 29.8891 23.0352 29.8218 23.0352C29.7697 23.0352 29.7189 23.0325 29.6708 23.0298C29.5829 23.0201 29.4978 22.9831 29.4978 22.8677V21.4714C29.4978 21.3204 29.5939 21.3135 29.6928 21.3135H29.7491V21.2558C29.6159 21.2572 29.4841 21.2668 29.3495 21.2668C29.2095 21.2668 29.0722 21.2572 28.9335 21.2558V21.3135H28.9596C29.0557 21.3135 29.1738 21.33 29.1738 21.4796V22.8705C29.1738 23.0449 29.0557 23.0641 28.9596 23.0641H28.9335V23.1217C29.1669 23.1217 29.4017 23.1121 29.6365 23.1121C29.8726 23.1108 30.106 23.1204 30.3408 23.1204ZM30.4191 21.168C30.5811 21.168 30.7033 21.2929 30.7033 21.4536C30.7033 21.6128 30.5811 21.7378 30.4191 21.7378C30.2571 21.7378 30.1349 21.6142 30.1349 21.4536C30.1335 21.2929 30.2543 21.168 30.4191 21.168ZM30.4191 21.6842C30.5468 21.6842 30.6443 21.5757 30.6443 21.4536C30.6443 21.33 30.5481 21.2201 30.4191 21.2201C30.29 21.2201 30.1925 21.33 30.1925 21.4536C30.1925 21.5757 30.29 21.6842 30.4191 21.6842ZM30.2763 21.6032V21.5895C30.312 21.5854 30.3175 21.5867 30.3175 21.5648V21.3533C30.3175 21.3231 30.3147 21.3135 30.2763 21.3149V21.3011H30.4218C30.4726 21.3011 30.5179 21.3259 30.5179 21.3767C30.5179 21.4192 30.4891 21.4508 30.4507 21.4618L30.4973 21.5263C30.5193 21.5565 30.544 21.584 30.5605 21.5936V21.6018H30.5042C30.4781 21.6018 30.4548 21.5455 30.4026 21.47H30.371V21.5648C30.371 21.584 30.3779 21.5826 30.4122 21.5867V21.6005L30.2763 21.6032ZM30.3724 21.4536H30.4067C30.4424 21.4536 30.4603 21.4261 30.4603 21.3808C30.4603 21.3355 30.4342 21.319 30.404 21.319H30.3724V21.4536Z" fill="#211E1F"/>
</g>
<path id="Vector_30" d="M20.6565 16.1276C24.8607 16.1468 28.6996 12.6979 28.6996 8.50197C28.6996 3.91342 24.862 0.741792 20.6565 0.743165H17.0387C12.7838 0.741792 9.28125 3.91479 9.28125 8.50197C9.28125 12.6992 12.7838 16.1468 17.0387 16.1276H20.6565Z" fill="#234B8D"/>
<path id="Vector_31" d="M17.055 1.38037C13.1667 1.38174 10.017 4.53277 10.0156 8.42385C10.017 12.3136 13.1667 15.4646 17.055 15.466C20.9447 15.4646 24.0957 12.3136 24.0957 8.42385C24.0957 4.53415 20.9433 1.38174 17.055 1.38037ZM12.5927 8.42248C12.5955 6.52225 13.7831 4.90074 15.4568 4.2568V12.5868C13.7831 11.9428 12.5955 10.3241 12.5927 8.42248ZM18.6518 12.5895V4.2568C20.3268 4.89936 21.5159 6.52087 21.5186 8.42248C21.5145 10.3255 20.3268 11.9456 18.6518 12.5895Z" fill="white"/>
</g>
<defs>
<clipPath id="clip0_7130_3718">
<rect width="36" height="24.5835" fill="white" transform="translate(0.950195 -0.291992)"/>
</clipPath>
</defs>
</svg>
