<svg width="40" height="40" viewBox="0 0 40 40" fill="none" xmlns="http://www.w3.org/2000/svg">
<g id="eu-ecolabel 1" clip-path="url(#clip0_7103_675)">
<g id="Group">
<path id="Vector" d="M39.2402 24.0243C39.2402 24.0353 39.2402 24.0353 39.2402 24.0463L39.3394 23.9692C39.3063 23.9913 39.2733 24.0133 39.2402 24.0243Z" fill="#29235C"/>
<path id="Vector_2" d="M39.6806 0.341536C39.4824 0.143353 39.2181 0.0112305 38.9207 0.0112305H1.0793C0.781938 0.0112305 0.506608 0.132343 0.319383 0.341536C0.121145 0.539719 0 0.825984 0 1.13427V38.8772C0 39.1855 0.121145 39.4607 0.319383 39.6699C0.517621 39.8681 0.781938 40.0002 1.0793 40.0002H38.9097C39.207 40.0002 39.4824 39.8791 39.6696 39.6699C39.8568 39.4717 39.978 39.2185 39.978 38.9212V38.8772V38.8331V1.12326C39.989 0.814974 39.8678 0.539719 39.6806 0.341536ZM38.9097 0.0883018L38.9207 0.0222407L38.9317 0.0112305C38.9317 0.0222407 38.9427 0.000220285 38.9537 0.0552712C38.9427 0.0993119 38.9207 0.0883018 38.9097 0.0883018Z" fill="white"/>
<path id="Vector_3" d="M1.0793 39.989C0.781938 39.989 0.506608 39.8679 0.319383 39.6587C0.121145 39.4605 0 39.1742 0 38.866V1.12304C0 0.814754 0.121145 0.539499 0.319383 0.330306C0.517621 0.132122 0.781938 0 1.0793 0H38.9207C39.2181 0 39.4934 0.121112 39.6806 0.330306C39.8789 0.528489 40 0.814754 40 1.12304V38.8329V38.877V38.921C39.989 39.2073 39.8678 39.4715 39.6806 39.6697C39.4824 39.8679 39.2181 40 38.9207 40L1.0793 39.989ZM0.429515 0.451418C0.264317 0.627581 0.165198 0.858794 0.165198 1.12304V38.866C0.165198 39.1302 0.264317 39.3614 0.429515 39.5376C0.594714 39.7137 0.814978 39.8128 1.06828 39.8128H38.9097C39.163 39.8128 39.3833 39.7027 39.5485 39.5376C39.7137 39.3614 39.8128 39.1302 39.8128 38.866V38.8329V1.12304C39.8128 0.858794 39.7137 0.627581 39.5485 0.451418C39.3833 0.275255 39.163 0.176163 38.9097 0.176163H1.0793C0.825991 0.176163 0.594714 0.286265 0.429515 0.451418ZM0.770925 0.143132C0.859031 0.110102 0.95815 0.0990917 1.05727 0.0990917C0.969163 0.0990917 0.870044 0.110102 0.770925 0.143132ZM38.9097 0.0880815C38.9207 0.0880815 38.9317 0.0880815 38.9537 0.0550509C38.9537 0.0110102 38.9317 0.0220204 38.9317 0.0110102L38.9207 0.0220204L38.9097 0.0880815Z" fill="#2A639B"/>
<path id="Vector_4" d="M7.87412 35.1997L7.34549 36.9173H6.75077L6.39835 35.7612L6.05694 36.9173H5.46223L4.93359 35.1997H5.51729L5.81465 36.3888L6.17809 35.1997H6.66267L7.01509 36.3888L7.30144 35.1997H7.87412Z" fill="#52A733"/>
<path id="Vector_5" d="M10.9471 35.1997L10.4185 36.9173H9.83476L9.48234 35.7612L9.12991 36.9173H8.54621L8.01758 35.1997H8.59026L8.88762 36.3888L9.25106 35.1997H9.74665L10.0881 36.3888L10.3854 35.1997H10.9471Z" fill="#52A733"/>
<path id="Vector_6" d="M14.0304 35.1997L13.4907 36.9173H12.907L12.5546 35.7612L12.2132 36.9173H11.6185L11.0898 35.1997H11.6735L11.9599 36.3888L12.3343 35.1997H12.8189L13.1713 36.3888L13.4577 35.1997H14.0304Z" fill="#52A733"/>
<path id="Vector_7" d="M14.9555 36.3115H14.3828V36.9171H14.9555V36.3115Z" fill="#52A733"/>
<path id="Vector_8" d="M17.1919 36.1575H15.9254C15.9364 36.2896 15.9805 36.3997 16.0796 36.4658C16.1787 36.5318 16.3109 36.5759 16.4981 36.5759C16.6192 36.5759 16.7294 36.5538 16.8395 36.5098C16.9496 36.4658 17.0377 36.4217 17.1038 36.3777H17.1699V36.8181C17.0487 36.8731 16.9276 36.9062 16.8175 36.9282C16.7073 36.9502 16.5862 36.9612 16.454 36.9612C16.1126 36.9612 15.8483 36.8841 15.6611 36.73C15.4738 36.5759 15.3857 36.3557 15.3857 36.0694C15.3857 35.7831 15.4738 35.5629 15.6501 35.3978C15.8263 35.2326 16.0686 35.1445 16.3659 35.1445C16.6412 35.1445 16.8615 35.2106 16.9937 35.3537C17.1368 35.4969 17.2029 35.695 17.2029 35.9703L17.1919 36.1575ZM16.6412 35.8382C16.6412 35.7281 16.6082 35.64 16.5531 35.5739C16.4981 35.5189 16.41 35.4858 16.2998 35.4858C16.1897 35.4858 16.1016 35.5079 16.0355 35.5629C15.9694 35.618 15.9254 35.706 15.9254 35.8272L16.6412 35.8382Z" fill="#52A733"/>
<path id="Vector_9" d="M18.48 36.961C18.3258 36.961 18.1937 36.939 18.0725 36.9059C17.9514 36.8729 17.8412 36.8179 17.7531 36.7408C17.665 36.6637 17.5879 36.5756 17.5439 36.4545C17.4888 36.3444 17.4668 36.2123 17.4668 36.0582C17.4668 35.893 17.4888 35.7609 17.5439 35.6398C17.599 35.5187 17.676 35.4306 17.7642 35.3535C17.8523 35.2764 17.9624 35.2324 18.0835 35.1884C18.2047 35.1443 18.3368 35.1333 18.458 35.1333C18.5791 35.1333 18.6893 35.1443 18.7884 35.1663C18.8875 35.1884 18.9756 35.2214 19.0637 35.2654V35.7389H18.9866C18.9646 35.7168 18.9426 35.6948 18.9095 35.6728C18.8765 35.6508 18.8434 35.6288 18.7994 35.5957C18.7553 35.5737 18.7113 35.5517 18.6562 35.5407C18.6012 35.5297 18.5461 35.5187 18.48 35.5187C18.3368 35.5187 18.2157 35.5627 18.1386 35.6618C18.0615 35.7609 18.0175 35.882 18.0175 36.0471C18.0175 36.2123 18.0615 36.3334 18.1386 36.4215C18.2157 36.5096 18.3368 36.5536 18.48 36.5536C18.5461 36.5536 18.6122 36.5426 18.6672 36.5316C18.7223 36.5206 18.7664 36.4986 18.8104 36.4765C18.8434 36.4545 18.8765 36.4325 18.8985 36.4105C18.9205 36.3885 18.9536 36.3664 18.9756 36.3444H19.0527V36.8179C18.9646 36.8619 18.8765 36.8949 18.7774 36.9169C18.7003 36.95 18.5901 36.961 18.48 36.961Z" fill="#52A733"/>
<path id="Vector_10" d="M21.1899 36.0584C21.1899 36.3446 21.1018 36.5648 20.9366 36.73C20.7714 36.8952 20.5401 36.9722 20.2428 36.9722C19.9454 36.9722 19.7141 36.8952 19.5489 36.73C19.3837 36.5648 19.3066 36.3446 19.3066 36.0584C19.3066 35.7721 19.3947 35.5519 19.5599 35.3868C19.7251 35.2216 19.9564 35.1445 20.2538 35.1445C20.5511 35.1445 20.7824 35.2216 20.9476 35.3868C21.1128 35.5519 21.1899 35.7721 21.1899 36.0584ZM20.5071 36.4768C20.5401 36.4327 20.5732 36.3777 20.5842 36.3226C20.5952 36.2676 20.6062 36.1795 20.6062 36.0694C20.6062 35.9703 20.5952 35.8822 20.5842 35.8161C20.5621 35.7501 20.5401 35.695 20.5071 35.651C20.474 35.607 20.43 35.5849 20.3859 35.5629C20.3419 35.5409 20.2868 35.5409 20.2318 35.5409C20.1767 35.5409 20.1326 35.5519 20.0886 35.5629C20.0445 35.5739 20.0115 35.607 19.9674 35.651C19.9344 35.695 19.9124 35.7501 19.8903 35.8161C19.8683 35.8822 19.8573 35.9703 19.8573 36.0804C19.8573 36.1795 19.8683 36.2566 19.8793 36.3226C19.9014 36.3887 19.9234 36.4437 19.9564 36.4878C19.9895 36.5318 20.0335 36.5538 20.0776 36.5759C20.1216 36.5979 20.1767 36.5979 20.2318 36.5979C20.2868 36.5979 20.3309 36.5869 20.3749 36.5759C20.441 36.5428 20.474 36.5208 20.5071 36.4768Z" fill="#52A733"/>
<path id="Vector_11" d="M22.1366 34.5391H21.5859V36.9283H22.1366V34.5391Z" fill="#52A733"/>
<path id="Vector_12" d="M23.7003 36.741C23.6673 36.763 23.6343 36.785 23.5902 36.8181C23.5461 36.8511 23.5021 36.8731 23.4691 36.8952C23.414 36.9172 23.3589 36.9392 23.3039 36.9502C23.2488 36.9612 23.1827 36.9722 23.1166 36.9722C22.9514 36.9722 22.8193 36.9172 22.7091 36.8181C22.599 36.719 22.5439 36.5869 22.5439 36.4327C22.5439 36.3116 22.577 36.2015 22.6321 36.1244C22.6871 36.0474 22.7642 35.9813 22.8743 35.9373C22.9735 35.8932 23.1056 35.8602 23.2598 35.8382C23.414 35.8162 23.5682 35.8051 23.7334 35.7941V35.7831C23.7334 35.684 23.6893 35.618 23.6122 35.5849C23.5351 35.5519 23.425 35.5299 23.2708 35.5299C23.1827 35.5299 23.0836 35.5409 22.9845 35.5739C22.8854 35.607 22.8083 35.629 22.7642 35.651H22.7091V35.2326C22.7642 35.2216 22.8633 35.1996 22.9955 35.1776C23.1276 35.1555 23.2598 35.1445 23.392 35.1445C23.7003 35.1445 23.9316 35.1886 24.0748 35.2877C24.218 35.3868 24.284 35.5409 24.284 35.7391V36.9062H23.7334V36.741H23.7003ZM23.7003 36.4658V36.1134C23.6232 36.1244 23.5461 36.1244 23.458 36.1354C23.3699 36.1465 23.3039 36.1575 23.2598 36.1685C23.2047 36.1905 23.1607 36.2125 23.1387 36.2455C23.1056 36.2786 23.0946 36.3226 23.0946 36.3777C23.0946 36.4107 23.0946 36.4437 23.1056 36.4658C23.1166 36.4878 23.1276 36.5098 23.1497 36.5318C23.1717 36.5538 23.2047 36.5648 23.2378 36.5759C23.2708 36.5869 23.3259 36.5869 23.392 36.5869C23.447 36.5869 23.5021 36.5759 23.5572 36.5538C23.6122 36.5318 23.6563 36.5098 23.7003 36.4658Z" fill="#52A733"/>
<path id="Vector_13" d="M26.553 36.0364C26.553 36.3117 26.4759 36.5319 26.3327 36.6971C26.1785 36.8732 25.9913 36.9503 25.771 36.9503C25.6719 36.9503 25.5948 36.9393 25.5177 36.9173C25.4406 36.8952 25.3746 36.8622 25.3085 36.8292L25.2864 36.9173H24.7578V34.5391H25.3085V35.3868C25.3966 35.3208 25.4847 35.2657 25.5728 35.2217C25.6609 35.1777 25.76 35.1556 25.8812 35.1556C26.1014 35.1556 26.2666 35.2327 26.3878 35.3868C26.4979 35.541 26.553 35.7612 26.553 36.0364ZM25.9913 36.0475C25.9913 35.8933 25.9693 35.7722 25.9142 35.6951C25.8591 35.6181 25.771 35.574 25.6389 35.574C25.5838 35.574 25.5287 35.585 25.4737 35.596C25.4186 35.607 25.3635 35.6291 25.3195 35.6621V36.5209C25.3635 36.5319 25.3966 36.5429 25.4296 36.5539C25.4627 36.5539 25.5067 36.5649 25.5618 36.5649C25.7049 36.5649 25.8151 36.5209 25.8922 36.4328C25.9472 36.3447 25.9913 36.2236 25.9913 36.0475Z" fill="#52A733"/>
<path id="Vector_14" d="M28.6568 36.1575H27.3902C27.4012 36.2896 27.4453 36.3997 27.5444 36.4658C27.6435 36.5318 27.7757 36.5759 27.9629 36.5759C28.0841 36.5759 28.1942 36.5538 28.3043 36.5098C28.4145 36.4658 28.5026 36.4217 28.5686 36.3777H28.6347V36.8181C28.5136 36.8731 28.3924 36.9062 28.2823 36.9282C28.1722 36.9502 28.051 36.9612 27.9189 36.9612C27.5775 36.9612 27.3131 36.8841 27.1259 36.73C26.9387 36.5759 26.8506 36.3557 26.8506 36.0694C26.8506 35.7831 26.9387 35.5629 27.1149 35.3978C27.2911 35.2326 27.5334 35.1445 27.8308 35.1445C28.1061 35.1445 28.3264 35.2106 28.4585 35.3537C28.6017 35.4969 28.6678 35.695 28.6678 35.9703L28.6568 36.1575ZM28.1061 35.8382C28.1061 35.7281 28.0731 35.64 28.018 35.5739C27.9629 35.5189 27.8748 35.4858 27.7647 35.4858C27.6546 35.4858 27.5664 35.5079 27.5004 35.5629C27.4343 35.618 27.3902 35.706 27.3902 35.8272L28.1061 35.8382Z" fill="#52A733"/>
<path id="Vector_15" d="M29.5927 34.5391H29.042V36.9283H29.5927V34.5391Z" fill="#52A733"/>
<path id="Vector_16" d="M30.7045 36.3115H30.1318V36.9171H30.7045V36.3115Z" fill="#52A733"/>
<path id="Vector_17" d="M32.9517 36.1575H31.6852C31.6962 36.2896 31.7402 36.3997 31.8393 36.4658C31.9385 36.5318 32.0706 36.5759 32.2578 36.5759C32.379 36.5759 32.4891 36.5538 32.5993 36.5098C32.7094 36.4658 32.7975 36.4217 32.8636 36.3777H32.9296V36.8181C32.8085 36.8731 32.6874 36.9062 32.5772 36.9282C32.4671 36.9502 32.3459 36.9612 32.2138 36.9612C31.8724 36.9612 31.6081 36.8841 31.4208 36.73C31.2336 36.5759 31.1455 36.3557 31.1455 36.0694C31.1455 35.7831 31.2336 35.5629 31.4098 35.3978C31.586 35.2326 31.8283 35.1445 32.1257 35.1445C32.401 35.1445 32.6213 35.2106 32.7534 35.3537C32.8966 35.4969 32.9627 35.695 32.9627 35.9703V36.1575H32.9517ZM32.401 35.8382C32.401 35.7281 32.368 35.64 32.3129 35.5739C32.2578 35.5189 32.1697 35.4858 32.0596 35.4858C31.9495 35.4858 31.8614 35.5079 31.7953 35.5629C31.7292 35.618 31.6852 35.706 31.6852 35.8272L32.401 35.8382Z" fill="#52A733"/>
<path id="Vector_18" d="M35.0555 36.9173H34.5049V36.7301C34.4057 36.8072 34.3066 36.8622 34.2185 36.9063C34.1304 36.9503 34.0313 36.9723 33.9101 36.9723C33.7229 36.9723 33.5687 36.9173 33.4696 36.8072C33.3705 36.6971 33.3154 36.5319 33.3154 36.3227V35.1997H33.8661V36.0585C33.8661 36.1466 33.8661 36.2126 33.8771 36.2787C33.8881 36.3338 33.8991 36.3888 33.9212 36.4218C33.9432 36.4549 33.9652 36.4879 34.0093 36.5099C34.0533 36.5319 34.1084 36.5319 34.1745 36.5319C34.2185 36.5319 34.2736 36.5209 34.3286 36.5099C34.3837 36.4879 34.4388 36.4659 34.4938 36.4328V35.1997H35.0445L35.0555 36.9173Z" fill="#52A733"/>
<path id="Vector_19" d="M6.81738 33.5479V23.5947H9.60373V24.3875H7.58831V28.5713H8.81077V29.3641H7.58831V32.7662H9.60373V33.5479H6.81738Z" fill="#2A639B"/>
<path id="Vector_20" d="M12.5444 29.0231V27.889C12.5444 27.7239 12.4894 27.5697 12.3682 27.4596C12.2471 27.3385 12.1039 27.2835 11.9277 27.2835C11.7515 27.2835 11.6083 27.3385 11.4872 27.4596C11.366 27.5807 11.311 27.7239 11.311 27.889V32.238C11.311 32.4032 11.366 32.5573 11.4872 32.6674C11.6083 32.7885 11.7515 32.8436 11.9277 32.8436C12.1039 32.8436 12.2471 32.7885 12.3682 32.6674C12.4894 32.5463 12.5444 32.4032 12.5444 32.238V31.1921H13.3264V32.238C13.3264 32.4362 13.2933 32.6124 13.2163 32.7885C13.1392 32.9537 13.04 33.1078 12.9189 33.229C12.7867 33.3611 12.6436 33.4602 12.4784 33.5262C12.3132 33.6033 12.1259 33.6363 11.9387 33.6363C11.7405 33.6363 11.5643 33.6033 11.3881 33.5262C11.2229 33.4492 11.0687 33.3501 10.9475 33.229C10.8154 33.0968 10.7163 32.9537 10.6502 32.7885C10.5731 32.6234 10.54 32.4362 10.54 32.238V27.889C10.54 27.6908 10.5731 27.5147 10.6502 27.3385C10.7163 27.1734 10.8264 27.0192 10.9475 26.8981C11.0797 26.766 11.2229 26.6669 11.3881 26.6008C11.5533 26.5238 11.7405 26.4907 11.9387 26.4907C12.137 26.4907 12.3132 26.5238 12.4784 26.6008C12.6436 26.6779 12.7977 26.777 12.9189 26.8981C13.04 27.0302 13.1502 27.1734 13.2163 27.3385C13.2823 27.5037 13.3264 27.6908 13.3264 27.889V29.0231H12.5444Z" fill="#2A639B"/>
<path id="Vector_21" d="M17.2466 32.2378C17.2466 32.436 17.2135 32.6122 17.1364 32.7883C17.0594 32.9535 16.9602 33.1076 16.8391 33.2287C16.7069 33.3609 16.5638 33.4599 16.3986 33.526C16.2334 33.6031 16.0461 33.6361 15.8479 33.6361C15.6497 33.6361 15.4734 33.6031 15.2972 33.526C15.132 33.4489 14.9779 33.3498 14.8567 33.2287C14.7245 33.0966 14.6254 32.9535 14.5594 32.7883C14.4823 32.6232 14.4492 32.436 14.4492 32.2378V27.8778C14.4492 27.6796 14.4823 27.5034 14.5594 27.3273C14.6254 27.1621 14.7356 27.008 14.8567 26.8869C14.9779 26.7547 15.132 26.6557 15.2972 26.5896C15.4624 26.5125 15.6497 26.4795 15.8479 26.4795C16.0461 26.4795 16.2223 26.5125 16.3986 26.5896C16.5638 26.6667 16.7179 26.7658 16.8391 26.8869C16.9602 27.019 17.0704 27.1621 17.1364 27.3273C17.2025 27.4924 17.2466 27.6796 17.2466 27.8778V32.2378ZM16.4646 27.8888C16.4646 27.7236 16.4096 27.5805 16.2884 27.4594C16.1673 27.3383 16.0241 27.2832 15.8479 27.2832C15.6717 27.2832 15.5285 27.3383 15.4074 27.4594C15.2862 27.5805 15.2312 27.7236 15.2312 27.8888V32.2488C15.2312 32.414 15.2862 32.5681 15.4074 32.6782C15.5285 32.7993 15.6717 32.8544 15.8479 32.8544C16.0241 32.8544 16.1673 32.7993 16.2884 32.6782C16.4096 32.5571 16.4646 32.414 16.4646 32.2488V27.8888Z" fill="#2A639B"/>
<path id="Vector_22" d="M19.1628 23.606H18.3809V33.5482H19.1628V23.606Z" fill="#2A639B"/>
<path id="Vector_23" d="M22.3016 33.5042C22.2024 33.5482 22.1143 33.5813 22.0152 33.6033C21.9161 33.6253 21.806 33.6363 21.6848 33.6363C21.4866 33.6363 21.3104 33.6033 21.1342 33.5262C20.969 33.4492 20.8148 33.3501 20.6936 33.229C20.5615 33.0968 20.4623 32.9537 20.3963 32.7885C20.3192 32.6234 20.2861 32.4362 20.2861 32.238V30.1461C20.2861 29.9479 20.3192 29.7718 20.3963 29.5956C20.4734 29.4304 20.5725 29.2763 20.6936 29.1552C20.8258 29.0231 20.969 28.924 21.1342 28.8579C21.2993 28.7808 21.4866 28.7478 21.6848 28.7478C21.806 28.7478 21.9161 28.7588 22.0262 28.7919C22.1364 28.8249 22.2245 28.8579 22.3016 28.8909V27.889C22.3016 27.7239 22.2465 27.5807 22.1253 27.4596C22.0042 27.3385 21.861 27.2835 21.6848 27.2835C21.5086 27.2835 21.3654 27.3385 21.2443 27.4596C21.1231 27.5807 21.0681 27.7239 21.0681 27.889V28.2303H20.2861V27.889C20.2861 27.6908 20.3192 27.5147 20.3963 27.3385C20.4734 27.1734 20.5725 27.0192 20.6936 26.8981C20.8148 26.766 20.969 26.6669 21.1342 26.6008C21.2993 26.5238 21.4866 26.4907 21.6738 26.4907C21.861 26.4907 22.0482 26.5238 22.2245 26.6008C22.3897 26.6779 22.5438 26.777 22.665 26.8981C22.7861 27.0302 22.8963 27.1734 22.9623 27.3385C23.0394 27.5037 23.0725 27.6908 23.0725 27.889V33.5483H22.2905V33.5042H22.3016ZM21.0681 32.238C21.0681 32.4032 21.1231 32.5573 21.2443 32.6674C21.3654 32.7885 21.5086 32.8436 21.6848 32.8436C21.861 32.8436 22.0042 32.7885 22.1253 32.6674C22.2465 32.5463 22.3016 32.4032 22.3016 32.238V30.1461C22.3016 29.9809 22.2465 29.8268 22.1253 29.7167C22.0042 29.5956 21.861 29.5405 21.6848 29.5405C21.5086 29.5405 21.3654 29.5956 21.2443 29.7167C21.1231 29.8378 21.0681 29.9809 21.0681 30.1461V32.238Z" fill="#2A639B"/>
<path id="Vector_24" d="M25.264 26.5347C25.3742 26.5016 25.4843 26.4906 25.6054 26.4906C25.8037 26.4906 25.9799 26.5237 26.1561 26.6007C26.3213 26.6778 26.4755 26.7769 26.5966 26.898C26.7288 27.0301 26.8279 27.1733 26.894 27.3384C26.9711 27.5036 27.0041 27.6907 27.0041 27.8889V32.2379C27.0041 32.4361 26.9711 32.6123 26.894 32.7885C26.8169 32.9536 26.7178 33.1077 26.5966 33.2289C26.4645 33.361 26.3213 33.4601 26.1561 33.5261C25.9909 33.6032 25.8037 33.6362 25.6054 33.6362C25.4843 33.6362 25.3742 33.6252 25.2861 33.5922C25.1869 33.5702 25.0878 33.5371 24.9997 33.4931V33.5482H24.2178V23.606H24.9997V26.6227C25.0658 26.5897 25.1539 26.5567 25.264 26.5347ZM26.046 27.4485C25.9248 27.3274 25.7817 27.2723 25.6054 27.2723C25.4292 27.2723 25.2861 27.3274 25.1649 27.4485C25.0438 27.5696 24.9887 27.7128 24.9887 27.8779V32.2269C24.9887 32.3921 25.0438 32.5462 25.1649 32.6563C25.2861 32.7774 25.4292 32.8325 25.6054 32.8325C25.7817 32.8325 25.9248 32.7774 26.046 32.6563C26.1671 32.5352 26.2222 32.3921 26.2222 32.2269V27.8779C26.2222 27.7128 26.1671 27.5696 26.046 27.4485Z" fill="#2A639B"/>
<path id="Vector_25" d="M28.1387 27.889C28.1387 27.6908 28.1717 27.5147 28.2488 27.3385C28.3259 27.1734 28.425 27.0192 28.5462 26.8981C28.6673 26.766 28.8215 26.6669 28.9867 26.6008C29.1519 26.5238 29.3391 26.4907 29.5374 26.4907C29.7356 26.4907 29.9118 26.5238 30.077 26.6008C30.2422 26.6779 30.3964 26.777 30.5175 26.8981C30.6387 27.0302 30.7488 27.1734 30.8149 27.3385C30.892 27.5037 30.925 27.6908 30.925 27.889V30.5865H28.9096V32.238C28.9096 32.4032 28.9647 32.5573 29.0858 32.6674C29.207 32.7885 29.3501 32.8436 29.5263 32.8436C29.7025 32.8436 29.8457 32.7885 29.9669 32.6674C30.088 32.5463 30.1431 32.4032 30.1431 32.238V31.7206H30.925V32.238C30.925 32.4362 30.892 32.6124 30.8149 32.7885C30.7378 32.9537 30.6387 33.1078 30.5175 33.229C30.3854 33.3611 30.2422 33.4602 30.077 33.5262C29.9118 33.6033 29.7246 33.6363 29.5374 33.6363C29.3391 33.6363 29.1629 33.6033 28.9867 33.5262C28.8215 33.4492 28.6673 33.3501 28.5462 33.229C28.414 33.0968 28.3149 32.9537 28.2488 32.7885C28.1717 32.6234 28.1387 32.4362 28.1387 32.238V27.889ZM28.9096 29.7938H30.1431V27.889C30.1431 27.7239 30.088 27.5697 29.9669 27.4596C29.8457 27.3385 29.7025 27.2835 29.5263 27.2835C29.3501 27.2835 29.207 27.3385 29.0858 27.4596C28.9647 27.5807 28.9096 27.7239 28.9096 27.889V29.7938Z" fill="#2A639B"/>
<path id="Vector_26" d="M32.8415 23.606H32.0596V33.5482H32.8415V23.606Z" fill="#2A639B"/>
<path id="Vector_27" d="M9.14106 23.1652H6.86133V19.708H9.14106V20.1154H7.32388V21.0623H9.14106V21.4696H7.32388V22.7578H9.14106V23.1652Z" fill="#52A733"/>
<path id="Vector_28" d="M12.4777 21.778C12.4777 22.0312 12.4557 22.2514 12.4006 22.4386C12.3455 22.6258 12.2574 22.7799 12.1253 22.901C12.0041 23.0221 11.872 23.1102 11.7068 23.1542C11.5416 23.2093 11.3654 23.2313 11.1451 23.2313C10.9248 23.2313 10.7376 23.1983 10.5724 23.1432C10.4072 23.0882 10.2751 23.0001 10.1649 22.89C10.0438 22.7579 9.94466 22.6147 9.88959 22.4276C9.83453 22.2514 9.8125 22.0312 9.8125 21.767V19.697H10.2751V21.789C10.2751 21.9762 10.2861 22.1303 10.3081 22.2294C10.3301 22.3395 10.3742 22.4386 10.4403 22.5267C10.5063 22.6258 10.6055 22.7028 10.7156 22.7579C10.8367 22.8129 10.9689 22.8349 11.1341 22.8349C11.2993 22.8349 11.4425 22.8129 11.5526 22.7579C11.6737 22.7028 11.7618 22.6258 11.8279 22.5267C11.883 22.4386 11.927 22.3395 11.9601 22.2184C11.9821 22.1083 11.9931 21.9651 11.9931 21.789V19.686H12.4557V21.778H12.4777Z" fill="#52A733"/>
<path id="Vector_29" d="M23.1391 6.72726C23.04 6.67221 22.9299 6.61716 22.8197 6.58412C21.5092 6.07766 20.0444 6.73827 19.5378 8.04848C19.0312 9.35869 19.692 10.823 21.0025 11.3295C21.1127 11.3736 21.2228 11.4066 21.344 11.4286C21.5312 11.4726 21.6854 11.3625 21.7184 11.1754C21.7625 10.9882 21.6743 10.801 21.4981 10.757C21.421 10.735 21.3329 10.7129 21.2558 10.6799C20.4078 10.3496 19.9343 9.46879 20.0995 8.61L21.4651 9.12748C21.6413 9.19354 21.8065 9.10546 21.8726 8.92929C21.9387 8.75313 21.8836 8.55495 21.7074 8.48889L20.3417 7.97141C20.8043 7.22272 21.7404 6.8814 22.5884 7.21171C22.6655 7.24474 22.7536 7.27777 22.8307 7.32181C22.9959 7.40989 23.1721 7.34383 23.2603 7.17867C23.3373 7.02453 23.3043 6.81534 23.1391 6.72726Z" fill="#52A733"/>
<path id="Vector_30" d="M19.956 17.4292C19.8679 19.477 19.13 18.9816 19.2292 22.5489C18.9098 20.3579 19.2512 20.0606 19.7578 18.1338C19.1961 19.8624 18.8988 19.7413 19.13 22.615C18.9869 22.7691 19.1631 23.3857 18.6124 23.0994C18.1609 22.3507 18.1719 21.1066 19.3723 16.7025C19.4164 16.5153 20.0001 16.207 19.956 17.4292Z" fill="#52A733"/>
<path id="Vector_31" d="M14.5928 19.7855C14.9342 19.7855 16.0465 19.6423 16.7183 20.1158C17.1478 20.413 17.5113 20.6773 17.6214 20.8534C17.7205 21.0076 17.7756 21.1948 17.8527 21.3379C17.9188 21.481 17.3571 21.481 17.0597 21.481C16.6082 21.47 15.3196 19.7855 14.5928 19.7855Z" fill="#52A733"/>
<path id="Vector_32" d="M18.0288 19.3888C18.1719 19.6421 18.1389 19.9504 17.8415 19.8182C17.4671 19.6421 16.8944 19.3888 16.6191 19.2237C15.1653 18.3098 13.1719 13.9058 11.1455 13.3773C11.5089 13.3663 11.7843 13.3443 12.0816 13.4103C12.4451 13.4764 17.7534 16.284 18.0288 19.3888Z" fill="#52A733"/>
<path id="Vector_33" d="M20.7491 19.9394C19.6477 18.442 22.8856 16.3501 26.3988 17.7374C26.0024 17.7704 25.2865 17.7263 24.9121 17.9025C25.0222 18.0677 25.8041 18.1337 26.509 18.1888C26.2777 18.0566 26.2006 17.9906 26.0024 17.9576C27.1367 17.8254 27.7975 18.5191 28.5354 18.7173C28.1499 18.7503 27.8966 18.7503 27.7975 18.7503C27.8085 18.8053 27.8416 18.7943 27.9077 18.8824C27.5222 18.7283 26.1676 18.8274 25.683 18.9485C25.1984 19.0806 24.901 18.9595 24.5927 18.9815C24.6477 19.0476 24.7248 19.0696 24.7579 19.1356C24.2292 19.0035 23.0618 19.1026 22.2579 19.499C22.324 19.4109 22.401 19.3448 22.4892 19.3008C21.7513 19.477 20.9583 20.0715 20.7491 19.9394Z" fill="#52A733"/>
<path id="Vector_34" d="M20.209 21.404C20.209 20.9416 21.1671 20.7654 21.5416 20.6773C21.905 20.5893 22.687 20.358 23.3367 20.347C24.2178 20.336 25.6605 20.5783 26.3103 21.1067C26.0019 20.9966 25.264 20.7654 24.8786 20.8095C24.9777 20.8755 24.9887 20.9086 25.0107 20.9526C25.0107 20.9526 24.7464 20.9526 24.6143 21.0627C24.7134 21.0297 25.2641 21.0957 25.5063 21.1067C25.242 21.1618 24.372 21.3049 24.1848 21.36C24.2949 21.404 24.35 21.426 24.427 21.4701C23.8103 21.5251 22.3566 22.2188 21.7618 22.2298C21.1671 22.2628 20.209 22.2188 20.209 21.404Z" fill="#52A733"/>
<path id="Vector_35" d="M22.181 3.08286L22.7427 2.67548H22.0489L21.8396 2.02588L21.6304 2.67548H20.9365L21.4982 3.08286L21.2889 3.73246L21.8396 3.32508L22.4013 3.73246L22.181 3.08286Z" fill="#2A639B"/>
<path id="Vector_36" d="M25.2972 3.87583L25.8479 3.46845H25.1651L24.9558 2.81885L24.7466 3.46845H24.0527L24.6144 3.87583L24.3941 4.52543L24.9558 4.11805L25.5065 4.52543L25.2972 3.87583Z" fill="#2A639B"/>
<path id="Vector_37" d="M27.4779 6.22055L28.0286 5.81317H27.3457L27.1365 5.16357L26.9162 5.81317H26.2334L26.7841 6.22055L26.5748 6.87015L27.1365 6.47379L27.6871 6.87015L27.4779 6.22055Z" fill="#2A639B"/>
<path id="Vector_38" d="M19.0636 3.87583L19.6252 3.46845H18.9424L18.7221 2.81885L18.5129 3.46845H17.8301L18.3807 3.87583L18.1715 4.52543L18.7221 4.11805L19.2838 4.52543L19.0636 3.87583Z" fill="#2A639B"/>
<path id="Vector_39" d="M16.8939 6.22055L17.4446 5.81317H16.7617L16.5415 5.16357L16.3322 5.81317H15.6494L16.2001 6.22055L15.9908 6.87015L16.5415 6.47379L17.1032 6.87015L16.8939 6.22055Z" fill="#2A639B"/>
<path id="Vector_40" d="M28.2377 9.16049L28.7993 8.76413H28.1055L27.8962 8.10352L27.687 8.76413H26.9932L27.5548 9.16049L27.3456 9.8211L27.8962 9.41373L28.4579 9.8211L28.2377 9.16049Z" fill="#2A639B"/>
<path id="Vector_41" d="M27.39 12.2215L27.9517 11.8252H27.2578L27.0486 11.1646L26.8393 11.8252H26.1455L26.7072 12.2215L26.4869 12.8821L27.0486 12.4748L27.5993 12.8821L27.39 12.2215Z" fill="#2A639B"/>
<path id="Vector_42" d="M25.1429 14.4232L25.6936 14.0158H25.0108L24.7905 13.3662L24.5813 14.0158H23.8984L24.4491 14.4232L24.2398 15.0728L24.7905 14.6654L25.3522 15.0728L25.1429 14.4232Z" fill="#2A639B"/>
<path id="Vector_43" d="M16.9711 12.2215L17.5327 11.8252H16.8389L16.6296 11.1646L16.4204 11.8252H15.7266L16.2882 12.2215L16.079 12.8821L16.6296 12.4748L17.1913 12.8821L16.9711 12.2215Z" fill="#2A639B"/>
<path id="Vector_44" d="M19.2289 14.4232L19.7795 14.0158H19.0967L18.8875 13.3662L18.6672 14.0158H17.9844L18.535 14.4232L18.3258 15.0728L18.8875 14.6654L19.4381 15.0728L19.2289 14.4232Z" fill="#2A639B"/>
<path id="Vector_45" d="M16.1234 9.16049L16.6851 8.76413H15.9912L15.782 8.10352L15.5727 8.76413H14.8789L15.4406 9.16049L15.2203 9.8211L15.782 9.41373L16.3327 9.8211L16.1234 9.16049Z" fill="#2A639B"/>
<path id="Vector_46" d="M22.181 15.3153L22.7427 14.9079H22.0489L21.8396 14.2583L21.6304 14.9079H20.9365L21.4982 15.3153L21.2889 15.9649L21.8396 15.5575L22.4013 15.9649L22.181 15.3153Z" fill="#2A639B"/>
</g>
</g>
<defs>
<clipPath id="clip0_7103_675">
<rect width="40" height="40" fill="white"/>
</clipPath>
</defs>
</svg>
