<svg width="58" height="48" viewBox="0 0 58 48" fill="none" xmlns="http://www.w3.org/2000/svg">
<g id="hus_2.svg" clip-path="url(#clip0_7101_144)">
<g id="Group">
<g id="Group_2">
<path id="Vector" d="M3.93262 26.4478H7.86482V28.4139H3.93262V26.4478ZM21.6275 26.4478H24.5767V28.4139H21.6275V26.4478ZM38.3394 26.4478H42.2716V28.4139H38.3394V26.4478ZM3.93262 43.1596H42.2716V45.1257H3.93262V43.1596ZM44.2377 43.1596H54.0682V45.1257H44.2377V43.1596ZM44.2377 26.4478H48.1699V28.4139H44.2377V26.4478ZM50.136 26.4478H54.0682V28.4139H50.136V26.4478Z" fill="#D0D3E1"/>
</g>
<g id="Group_3">
<path id="Vector_2" d="M1.96582 10.7192H44.237V12.6853H1.96582V10.7192ZM50.1353 28.4142H54.0675V41.1938H50.1353V28.4142ZM44.237 28.4142H48.1692V41.1938H44.237V28.4142ZM26.5421 32.3464H30.4743V37.2616H26.5421V32.3464ZM26.5421 26.4481H30.4743V30.3803H26.5421V26.4481ZM32.4404 32.3464H36.3726V37.2616H32.4404V32.3464ZM32.4404 26.4481H36.3726V30.3803H32.4404V26.4481ZM15.7285 26.4481H19.6607V30.3803H15.7285V26.4481ZM9.83023 32.3464H13.7624V37.2616H9.83023V32.3464ZM9.83023 26.4481H13.7624V30.3803H9.83023V26.4481ZM15.7285 32.3464H19.6607V37.2616H15.7285V32.3464Z" fill="white"/>
</g>
<path id="Vector_3" d="M52.1017 20.5497V0.888672H40.3051V8.75308H0V26.448H1.9661V47.0921H56.0339V26.448H58V20.5497H52.1017ZM42.2712 6.78698H45.2203V4.82088H42.2712V2.85477H50.1356V11.7022H48.1695V13.6683H50.1356V20.5497H46.2034V8.75308H42.2712V6.78698ZM42.2712 45.126H3.9322V43.1599H42.2712V45.126ZM42.2712 41.1938H3.9322V26.448H7.86441V39.2277H21.6271V26.448H24.5763V39.2277H38.339V26.448H42.2712V41.1938ZM9.83051 32.3463H13.7627V37.2616H9.83051V32.3463ZM15.7288 32.3463H19.661V37.2616H15.7288V32.3463ZM19.661 30.3802H15.7288V26.448H19.661V30.3802ZM13.7627 30.3802H9.83051V26.448H13.7627V30.3802ZM26.5424 32.3463H30.4746V37.2616H26.5424V32.3463ZM32.4407 32.3463H36.3729V37.2616H32.4407V32.3463ZM36.3729 30.3802H32.4407V26.448H36.3729V30.3802ZM30.4746 30.3802H26.5424V26.448H30.4746V30.3802ZM42.2712 24.4819H1.9661V10.7192H44.2373V24.4819H42.2712ZM46.2034 26.448H48.1695V41.1938H44.2373V26.448H46.2034ZM54.0678 45.126H44.2373V43.1599H54.0678V45.126ZM54.0678 41.1938H50.1356V26.448H54.0678V41.1938ZM56.0339 24.4819H46.2034V22.5158H56.0339V24.4819Z" fill="#122568"/>
</g>
</g>
<defs>
<clipPath id="clip0_7101_144">
<rect width="58" height="46.2034" fill="white" transform="translate(0 0.888672)"/>
</clipPath>
</defs>
</svg>
