<svg width="21" height="20" viewBox="0 0 21 20" fill="none" xmlns="http://www.w3.org/2000/svg">
<g id="mi:filter">
<path id="Vector" d="M8.27995 4.16676C8.05893 4.16676 7.84697 4.25455 7.69069 4.41083C7.53441 4.56711 7.44661 4.77908 7.44661 5.00009C7.44661 5.2211 7.53441 5.43306 7.69069 5.58934C7.84697 5.74562 8.05893 5.83342 8.27995 5.83342C8.50096 5.83342 8.71292 5.74562 8.8692 5.58934C9.02548 5.43306 9.11328 5.2211 9.11328 5.00009C9.11328 4.77908 9.02548 4.56711 8.8692 4.41083C8.71292 4.25455 8.50096 4.16676 8.27995 4.16676ZM5.92161 4.16676C6.09378 3.67881 6.41306 3.25628 6.83545 2.95741C7.25783 2.65854 7.76252 2.49805 8.27995 2.49805C8.79738 2.49805 9.30206 2.65854 9.72445 2.95741C10.1468 3.25628 10.4661 3.67881 10.6383 4.16676H16.6133C16.8343 4.16676 17.0463 4.25455 17.2025 4.41083C17.3588 4.56711 17.4466 4.77908 17.4466 5.00009C17.4466 5.2211 17.3588 5.43306 17.2025 5.58934C17.0463 5.74562 16.8343 5.83342 16.6133 5.83342H10.6383C10.4661 6.32137 10.1468 6.74389 9.72445 7.04276C9.30206 7.34163 8.79738 7.50213 8.27995 7.50213C7.76252 7.50213 7.25783 7.34163 6.83545 7.04276C6.41306 6.74389 6.09378 6.32137 5.92161 5.83342H4.94661C4.7256 5.83342 4.51364 5.74562 4.35736 5.58934C4.20108 5.43306 4.11328 5.2211 4.11328 5.00009C4.11328 4.77908 4.20108 4.56711 4.35736 4.41083C4.51364 4.25455 4.7256 4.16676 4.94661 4.16676H5.92161ZM13.2799 9.16676C13.0589 9.16676 12.847 9.25455 12.6907 9.41083C12.5344 9.56711 12.4466 9.77908 12.4466 10.0001C12.4466 10.2211 12.5344 10.4331 12.6907 10.5893C12.847 10.7456 13.0589 10.8334 13.2799 10.8334C13.501 10.8334 13.7129 10.7456 13.8692 10.5893C14.0255 10.4331 14.1133 10.2211 14.1133 10.0001C14.1133 9.77908 14.0255 9.56711 13.8692 9.41083C13.7129 9.25455 13.501 9.16676 13.2799 9.16676ZM10.9216 9.16676C11.0938 8.67881 11.4131 8.25628 11.8354 7.95741C12.2578 7.65854 12.7625 7.49805 13.2799 7.49805C13.7974 7.49805 14.3021 7.65854 14.7244 7.95741C15.1468 8.25628 15.4661 8.67881 15.6383 9.16676H16.6133C16.8343 9.16676 17.0463 9.25455 17.2025 9.41083C17.3588 9.56711 17.4466 9.77908 17.4466 10.0001C17.4466 10.2211 17.3588 10.4331 17.2025 10.5893C17.0463 10.7456 16.8343 10.8334 16.6133 10.8334H15.6383C15.4661 11.3214 15.1468 11.7439 14.7244 12.0428C14.3021 12.3416 13.7974 12.5021 13.2799 12.5021C12.7625 12.5021 12.2578 12.3416 11.8354 12.0428C11.4131 11.7439 11.0938 11.3214 10.9216 10.8334H4.94661C4.7256 10.8334 4.51364 10.7456 4.35736 10.5893C4.20108 10.4331 4.11328 10.2211 4.11328 10.0001C4.11328 9.77908 4.20108 9.56711 4.35736 9.41083C4.51364 9.25455 4.7256 9.16676 4.94661 9.16676H10.9216ZM8.27995 14.1668C8.05893 14.1668 7.84697 14.2546 7.69069 14.4108C7.53441 14.5671 7.44661 14.7791 7.44661 15.0001C7.44661 15.2211 7.53441 15.4331 7.69069 15.5893C7.84697 15.7456 8.05893 15.8334 8.27995 15.8334C8.50096 15.8334 8.71292 15.7456 8.8692 15.5893C9.02548 15.4331 9.11328 15.2211 9.11328 15.0001C9.11328 14.7791 9.02548 14.5671 8.8692 14.4108C8.71292 14.2546 8.50096 14.1668 8.27995 14.1668ZM5.92161 14.1668C6.09378 13.6788 6.41306 13.2563 6.83545 12.9574C7.25783 12.6585 7.76252 12.498 8.27995 12.498C8.79738 12.498 9.30206 12.6585 9.72445 12.9574C10.1468 13.2563 10.4661 13.6788 10.6383 14.1668H16.6133C16.8343 14.1668 17.0463 14.2546 17.2025 14.4108C17.3588 14.5671 17.4466 14.7791 17.4466 15.0001C17.4466 15.2211 17.3588 15.4331 17.2025 15.5893C17.0463 15.7456 16.8343 15.8334 16.6133 15.8334H10.6383C10.4661 16.3214 10.1468 16.7439 9.72445 17.0428C9.30206 17.3416 8.79738 17.5021 8.27995 17.5021C7.76252 17.5021 7.25783 17.3416 6.83545 17.0428C6.41306 16.7439 6.09378 16.3214 5.92161 15.8334H4.94661C4.7256 15.8334 4.51364 15.7456 4.35736 15.5893C4.20108 15.4331 4.11328 15.2211 4.11328 15.0001C4.11328 14.7791 4.20108 14.5671 4.35736 14.4108C4.51364 14.2546 4.7256 14.1668 4.94661 14.1668H5.92161Z" fill="#363433"/>
</g>
</svg>
