<svg width="58" height="44" viewBox="0 0 58 44" fill="none" xmlns="http://www.w3.org/2000/svg">
<g id="garage_2.svg" clip-path="url(#clip0_7101_209)">
<g id="Group">
<path id="Vector" d="M5.08789 14.7706V16.6021L29.0002 9.7846L52.9125 16.6021V14.7706L29.0002 7.74951L5.08789 14.7706Z" fill="#D0D3E1"/>
<g id="Group_2">
<path id="Vector_2" d="M10.1758 18.9424H47.8249V20.9775H10.1758V18.9424ZM10.1758 25.0476H47.8249V27.0827H10.1758V25.0476ZM10.1758 31.1529H47.8249V33.188H10.1758V31.1529ZM10.1758 39.2933H25.4389V38.2757H32.5617V39.2933H47.8249V37.2582H10.1758V39.2933Z" fill="white"/>
</g>
<g id="Group_3">
<path id="Vector_3" d="M25.4385 38.2754H32.5613V40.3105H25.4385V38.2754Z" fill="#122568"/>
<path id="Vector_4" d="M29 0.626465L0 8.97032V16.1949L3.05263 15.3809V43.3633H54.9474V15.3809L58 16.2966V9.07208L29 0.626465ZM47.8246 41.3282H10.1754V37.258H47.8246V41.3282ZM47.8246 35.223H10.1754V31.1528H47.8246V35.223ZM47.8246 29.1177H10.1754V25.0475H47.8246V29.1177ZM47.8246 23.0124H10.1754V18.9423H47.8246V23.0124ZM52.9123 41.3282H49.8597V16.9072H8.14035V41.3282H5.08772V14.7703L29 7.74927L52.9123 14.7703V41.3282ZM55.9649 13.5493L29 5.71418L2.03509 13.5493V10.5984L29 2.66155L55.9649 10.5984V13.5493Z" fill="#122568"/>
</g>
</g>
</g>
<defs>
<clipPath id="clip0_7101_209">
<rect width="58" height="42.7368" fill="white" transform="translate(0 0.626465)"/>
</clipPath>
</defs>
</svg>
