<svg width="58" height="52" viewBox="0 0 58 52" fill="none" xmlns="http://www.w3.org/2000/svg">
<g id="havemoe_2.svg" clip-path="url(#clip0_7101_179)">
<g id="Group">
<path id="Vector" d="M38.7375 13.674L39.5796 12.6214L40.1059 13.2529V12.7266L31.6848 3.25293L24.3164 12.7266V13.1477L24.6322 13.5687C25.4743 14.6214 28.0006 15.8845 31.6848 15.8845C35.369 15.7792 37.8954 14.7266 38.7375 13.674Z" fill="white"/>
<path id="Vector_2" d="M31.6848 17.8846C28.4217 17.8846 25.4743 17.0425 23.7901 15.6741C22.1059 16.9372 19.2638 17.7793 15.8954 17.7793C10.948 17.7793 6.84272 15.6741 6.42167 12.9372L6.31641 12.2004L31.6848 0.305664L57.0532 12.0951L56.948 12.832C56.5269 15.5688 52.4217 17.6741 47.4743 17.6741C44.1059 17.6741 41.2638 16.9372 39.5796 15.6741C37.8954 17.1478 34.948 17.8846 31.6848 17.8846ZM23.7901 12.5162L24.6322 13.5688C25.4743 14.6215 28.0006 15.8846 31.6848 15.8846C35.369 15.8846 37.8954 14.7267 38.7375 13.6741L39.5796 12.6215L40.4217 13.6741C41.369 14.9372 44.1059 15.6741 47.4743 15.6741C51.0532 15.6741 53.6848 14.4109 54.5269 13.253L31.6848 2.62145L8.84272 13.253C9.68483 14.4109 12.3164 15.6741 15.8954 15.6741C19.6848 15.6741 22.1059 14.6215 22.948 13.5688L23.7901 12.5162Z" fill="#787878"/>
<path id="Vector_3" d="M8.52637 48.5161H19.0527V51.674H8.52637V48.5161ZM8.52637 33.7793H10.6316V39.0425H8.52637V33.7793ZM12.7369 33.7793H14.8422V39.0425H12.7369V33.7793ZM16.9474 33.7793H19.0527V39.0425H16.9474V33.7793ZM44.3158 48.5161H51.6843V51.674H44.3158V48.5161Z" fill="#D0D3E1"/>
<g id="Group_2">
<path id="Vector_4" d="M27.5794 34.3055C27.2636 32.8318 25.8952 31.6739 24.3162 31.6739H22.3162C21.8952 31.6739 21.5794 31.7791 21.1584 31.8844V27.4634H21.0531C21.0531 24.516 17.7899 22.2002 13.6847 22.2002C9.5794 22.2002 6.31625 24.516 6.31625 27.4634V31.8844C6.00046 31.7791 5.5794 31.6739 5.15835 31.6739H3.26361C1.68467 31.6739 0.316247 32.8318 0.000457086 34.3055C-0.104806 35.2528 0.10572 36.2002 0.737299 36.937C1.15835 37.3581 1.5794 37.9897 2.10572 37.9897H2.21098V51.6739H8.52677V45.3581H19.0531V51.6739H25.3689V37.7791C25.8952 37.5686 26.4215 37.2528 26.8426 36.8318C27.4741 36.2002 27.6847 35.2528 27.5794 34.3055ZM18.9478 27.4634L19.0531 34.937V39.0423H16.9478V25.0423C18.211 25.5686 18.9478 26.516 18.9478 27.4634ZM14.8426 24.4107V39.0423H12.7373V24.4107C13.0531 24.4107 13.3689 24.3055 13.7899 24.3055C14.1057 24.3055 14.5268 24.3055 14.8426 24.4107ZM10.632 24.937V39.0423H8.52677V27.4634C8.52677 26.4107 9.36888 25.5686 10.632 24.937ZM25.1584 35.4634C24.9478 35.7791 24.3162 35.8844 24.3162 35.8844V36.0949C23.2636 36.4107 23.2636 37.1476 23.2636 37.9897V49.5686H21.1584V43.2528H6.42151V49.5686H4.31625V38.0949C4.31625 37.2528 4.31625 36.516 3.26361 36.2002V35.8844C3.26361 35.8844 2.63204 35.7791 2.42151 35.4634C2.21098 35.2528 2.10572 34.937 2.21098 34.6212C2.21098 34.2002 2.7373 33.7791 3.26361 33.7791H5.26362C5.89519 33.7791 6.42151 34.3055 6.42151 34.937V41.1476H21.1584V34.937C21.1584 34.3055 21.6847 33.7791 22.3162 33.7791H24.3162C24.8426 33.7791 25.3689 34.2002 25.4741 34.6212C25.4741 34.937 25.3689 35.2528 25.1584 35.4634Z" fill="#122568"/>
<path id="Vector_5" d="M32.7375 17.8846C35.5796 17.6741 38.1059 16.9372 39.5796 15.7793C41.2638 17.0425 44.0006 17.7793 47.4743 17.7793C52.4217 17.7793 56.5269 15.6741 56.948 12.9372L57.0532 12.2004L31.6848 0.305664L6.31641 12.0951L6.42167 12.832C6.84272 15.5688 10.948 17.6741 15.8954 17.6741C19.2638 17.6741 22.1059 16.9372 23.7901 15.5688C25.369 16.832 27.7901 17.6741 30.6322 17.7793V49.5688H27.4743V51.6741H35.8954V49.5688H32.7375V17.8846ZM24.6322 13.5688L23.7901 12.5162L22.948 13.5688C22.1059 14.6215 19.6848 15.6741 15.8954 15.6741C12.3164 15.6741 9.68483 14.4109 8.84272 13.253L31.6848 2.62145L54.5269 13.253C53.6848 14.4109 51.0532 15.6741 47.4743 15.6741C44.1059 15.6741 41.369 14.9372 40.4217 13.6741L39.5796 12.6215L38.7375 13.6741C37.8954 14.7267 35.369 15.8846 31.6848 15.8846C28.0006 15.7793 25.4743 14.6215 24.6322 13.5688Z" fill="#122568"/>
<path id="Vector_6" d="M54.8421 36.9371H45.3684V32.7266H42.2105V36.9371H41.1579C39.3684 36.9371 38 38.4108 38 40.2002V51.6739H44.3158V43.2529H51.6842V51.6739H58V40.2002C58 38.4108 56.6316 36.9371 54.8421 36.9371ZM55.8947 49.5687H53.7895V41.1476H42.2105V49.5687H40.1053V40.2002C40.1053 39.5687 40.5263 39.0424 41.1579 39.0424H54.8421C55.4737 39.0424 55.8947 39.5687 55.8947 40.2002V49.5687Z" fill="#122568"/>
</g>
</g>
</g>
<defs>
<clipPath id="clip0_7101_179">
<rect width="58" height="51.3684" fill="white" transform="translate(0 0.305664)"/>
</clipPath>
</defs>
</svg>
