<svg width="58" height="50" viewBox="0 0 58 50" fill="none" xmlns="http://www.w3.org/2000/svg">
<g id="haeng_2.svg" clip-path="url(#clip0_7101_167)">
<g id="Group">
<path id="Vector" d="M2.32031 14.5601H4.64031V19.2001H2.32031V14.5601ZM53.3603 14.5601H55.6803V19.2001H53.3603V14.5601ZM40.6003 14.5601H42.9203V19.2001H40.6003V14.5601ZM27.8403 14.5601H30.1603V19.2001H27.8403V14.5601ZM15.0803 14.5601H17.4003V19.2001H15.0803V14.5601ZM2.32031 36.6001H4.64031V41.2401H2.32031V36.6001ZM53.3603 36.6001H55.6803V41.2401H53.3603V36.6001ZM40.6003 36.6001H42.9203V41.2401H40.6003V36.6001ZM27.8403 36.6001H30.1603V41.2401H27.8403V36.6001ZM15.0803 36.6001H17.4003V41.2401H15.0803V36.6001Z" fill="#D0D3E1"/>
<path id="Vector_2" d="M19.7197 5.74432V47.0403H22.0397V3.42432L19.7197 5.74432ZM32.4797 5.74432V47.0403H34.7997V3.42432L32.4797 5.74432ZM45.2397 5.74432V47.0403H47.5597V3.42432L45.2397 5.74432Z" fill="white"/>
<path id="Vector_3" d="M58 21.5201V12.2401H53.36V4.81614L49.184 0.640137H47.096L42.92 4.81614V12.2401H40.6V4.81614L36.424 0.640137H34.336L30.16 4.81614V12.2401H27.84V4.81614L23.664 0.640137H21.576L17.4 4.81614V12.2401H15.08V4.81614L10.904 0.640137H8.816L4.64 4.81614V12.2401H0V21.5201H4.64V34.2801H0V43.5601H4.64V49.3601H15.08V43.5601H17.4V49.3601H27.84V43.5601H30.16V49.3601H40.6V43.5601H42.92V49.3601H53.36V43.5601H58V34.2801H53.36V21.5201H58ZM55.68 14.5601V19.2001H53.36V14.5601H55.68ZM40.6 14.5601H42.92V19.2001H40.6V14.5601ZM27.84 14.5601H30.16V19.2001H27.84V14.5601ZM15.08 14.5601H17.4V19.2001H15.08V14.5601ZM2.32 19.2001V14.5601H4.64V19.2001H2.32ZM2.32 41.2401V36.6001H4.64V41.2401H2.32ZM12.76 47.0401H6.96V5.74414L9.744 2.96014H9.976L12.76 5.74414V47.0401ZM15.08 21.5201H17.4V34.2801H15.08V21.5201ZM15.08 41.2401V36.6001H17.4V41.2401H15.08ZM25.52 47.0401H19.72V5.74414L22.504 2.96014H22.736L25.52 5.74414V47.0401ZM27.84 21.5201H30.16V34.2801H27.84V21.5201ZM27.84 41.2401V36.6001H30.16V41.2401H27.84ZM38.28 47.0401H32.48V5.74414L35.264 2.96014H35.496L38.28 5.74414V47.0401ZM40.6 21.5201H42.92V34.2801H40.6V21.5201ZM40.6 41.2401V36.6001H42.92V41.2401H40.6ZM55.68 36.6001V41.2401H53.36V36.6001H55.68ZM51.04 34.2801V47.0401H45.24V5.74414L48.024 2.96014H48.256L51.04 5.74414V34.2801Z" fill="#122568"/>
<path id="Vector_4" d="M6.95996 5.74432V47.0403H9.27996V3.42432L6.95996 5.74432Z" fill="white"/>
</g>
</g>
<defs>
<clipPath id="clip0_7101_167">
<rect width="58" height="48.72" fill="white" transform="translate(0 0.640137)"/>
</clipPath>
</defs>
</svg>
