<svg width="58" height="46" viewBox="0 0 58 46" fill="none" xmlns="http://www.w3.org/2000/svg">
<g id="entre_2.svg" clip-path="url(#clip0_7101_110)">
<path id="Vector" d="M31.127 43.746H15.5635V41.6709H31.127V43.746Z" fill="#D2D2D2"/>
<path id="Vector_2" d="M35.2771 43.746H11.4131V41.6709H35.2771V43.746Z" fill="white"/>
<path id="Vector_3" d="M35.2771 43.746H11.4131V41.6709H35.2771V43.746Z" fill="white"/>
<g id="Group">
<g id="Group_2">
<path id="Vector_4" d="M14.5259 2.7619C14.4222 1.62058 14.0072 0.790527 12.5546 0.790527C10.6869 0.790527 10.0644 1.62058 9.75313 2.7619H0V45.1984H2.07513V4.73328H9.75313C9.75313 5.35582 10.1682 5.66709 10.6869 5.66709C11.3095 5.66709 11.6208 5.25207 11.6208 4.73328H12.5546V6.80842L5.60286 8.57228L6.12165 10.4399L13.5921 8.57228L21.0626 10.4399L21.5814 8.57228L14.5259 6.80842V4.73328H25.1091V45.1984H27.0805V2.7619H14.5259Z" fill="#122568"/>
</g>
<g id="Group_3">
<g id="Group_4">
<path id="Vector_5" d="M35.1738 38.0395H55.9252V43.2273H35.1738V38.0395ZM35.1738 2.76221H55.9252V4.83734H35.1738V2.76221Z" fill="#D0D3E1"/>
</g>
<g id="Group_5">
<path id="Vector_6" d="M33.0986 0.687012V45.3024H58.0002V0.687012H33.0986ZM35.1738 43.2273V2.76215H55.9251V6.91241H53.85V8.98755H55.9251V11.0627H53.85V13.1378H55.9251V29.7389H53.85V31.814H55.9251V33.8892H53.85V35.9643H55.9251V43.2273H35.1738Z" fill="#122568"/>
<path id="Vector_7" d="M37.249 21.4385H41.3993V23.5136H37.249V21.4385Z" fill="#122568"/>
</g>
</g>
</g>
</g>
<defs>
<clipPath id="clip0_7101_110">
<rect width="58" height="44.6154" fill="white" transform="translate(0 0.687012)"/>
</clipPath>
</defs>
</svg>
