<svg width="58" height="42" viewBox="0 0 58 42" fill="none" xmlns="http://www.w3.org/2000/svg">
<g id="koekken_2.svg" clip-path="url(#clip0_7101_82)">
<g id="Group">
<path id="Vector" d="M22.9962 27.5029C23.1997 27.5029 23.4032 27.6047 23.4032 27.6047V31.37C23.4032 31.37 23.1997 31.5735 22.9962 31.5735H10.5809C10.3774 31.5735 10.1738 31.4718 10.1738 31.4718V27.7065C10.1738 27.7065 10.3774 27.5029 10.5809 27.5029H22.9962Z" fill="white"/>
<g id="Group_2">
<path id="Vector_2" d="M15.2622 39.7146H42.7387V41.7499H15.2622V39.7146ZM25.4387 32.4893V31.4717C25.4387 32.6929 24.3193 33.6087 22.9963 33.6087H10.581C9.25808 33.6087 8.13867 32.6929 8.13867 31.4717V32.4893C8.13867 33.7105 9.25808 34.6264 10.581 34.6264H22.9963C24.3193 34.6264 25.4387 33.6087 25.4387 32.4893Z" fill="#D0D3E1"/>
</g>
<g id="Group_3">
<path id="Vector_3" d="M41.7206 9.18528V5.01292C41.7206 3.48645 43.0435 2.26527 44.57 2.26527C46.1982 2.26527 47.4194 3.07939 47.4194 5.11469H49.4547C49.4547 2.06175 47.2159 0.22998 44.57 0.22998C41.9241 0.22998 39.6853 2.36704 39.6853 5.01292V9.18528H-0.00292969V39.7147H7.1206V41.75H15.2618V39.7147H42.7382V41.75H50.8794V39.7147H58.003V9.18528H41.7206ZM31.5441 37.6794H2.03236V19.3617H31.5441V37.6794ZM31.5441 17.3265H2.03236V11.2206H31.5441V17.3265ZM55.9677 37.6794H33.5794V11.2206H55.9677V37.6794Z" fill="#122568"/>
<path id="Vector_4" d="M11.1909 21.397H22.385V23.4323H11.1909V21.397ZM4.06738 13.2559H6.10268V15.2912H4.06738V13.2559ZM7.12032 13.2559H9.15562V15.2912H7.12032V13.2559ZM10.1733 13.2559H12.2086V15.2912H10.1733V13.2559ZM24.4203 13.2559H28.4909V15.2912H24.4203V13.2559ZM36.6321 13.2559H41.7203V15.2912H36.6321V13.2559ZM10.5803 33.6088H22.9956C24.3186 33.6088 25.438 32.6929 25.438 31.4717V27.6047C25.438 26.3835 24.3186 25.4676 22.9956 25.4676H10.5803C9.25738 25.4676 8.13797 26.4853 8.13797 27.6047V31.4717C8.13797 32.6929 9.25738 33.6088 10.5803 33.6088ZM10.5803 27.5029H22.9956C23.1992 27.5029 23.4027 27.6047 23.4027 27.6047V31.37C23.4027 31.37 23.1992 31.5735 22.9956 31.5735H10.5803C10.3768 31.5735 10.1733 31.4717 10.1733 31.4717V27.7064C10.1733 27.6047 10.3768 27.5029 10.5803 27.5029Z" fill="#122568"/>
</g>
</g>
</g>
<defs>
<clipPath id="clip0_7101_82">
<rect width="58.0059" height="41.52" fill="white" transform="translate(-0.00292969 0.22998)"/>
</clipPath>
</defs>
</svg>
