<svg width="37" height="24" viewBox="0 0 37 24" fill="none" xmlns="http://www.w3.org/2000/svg">
<g id="klarna_4.svg">
<g id="Group">
<path id="Vector" d="M4.8501 2.30518H33.0488C34.8993 2.30518 36.4009 3.80669 36.4009 5.65723V18.3432C36.4009 20.1937 34.8993 21.6952 33.0488 21.6952H4.8501C2.99956 21.6952 1.49805 20.1937 1.49805 18.3432V5.65723C1.49805 3.80496 2.99956 2.30518 4.8501 2.30518Z" fill="#FFB3C7"/>
<path id="Vector_2" d="M33.1369 13.6643C32.679 13.666 32.3092 14.0392 32.311 14.4971V14.4988C32.3075 14.9567 32.6773 15.3299 33.1352 15.3334H33.1369C33.5913 15.3334 33.9628 14.9602 33.9628 14.4988C33.9663 14.0409 33.5982 13.666 33.1369 13.6643C33.1386 13.6643 33.1386 13.6643 33.1369 13.6643ZM30.4172 13.0198C30.4172 12.3891 29.8833 11.8759 29.2233 11.8759C28.5632 11.8759 28.0293 12.3874 28.0293 13.0198C28.0293 13.6522 28.565 14.1619 29.2233 14.1619C29.8833 14.1619 30.4172 13.6504 30.4172 13.0198ZM30.4224 10.7995H31.7408V15.2401H30.4224V14.9567C30.0388 15.2228 29.5827 15.3645 29.1161 15.3645C27.8341 15.3645 26.7956 14.3157 26.7956 13.0215C26.7956 11.7273 27.8341 10.6785 29.1161 10.6785C29.6017 10.6785 30.0492 10.8288 30.4224 11.0863V10.7995ZM19.8807 11.3783V10.8012H18.533V15.2418H19.8859V13.1666C19.8859 12.4669 20.6358 12.0919 21.1576 12.0919H21.1732V10.8012C20.6358 10.8012 20.1451 11.031 19.8807 11.3783ZM16.52 13.0198C16.52 12.3891 15.9861 11.8759 15.3261 11.8759C14.666 11.8759 14.1321 12.3874 14.1321 13.0198C14.1321 13.6522 14.6678 14.1619 15.3261 14.1619C15.9861 14.1619 16.52 13.6504 16.52 13.0198ZM16.5252 10.7995H17.8436V15.2401H16.5252V14.9567C16.1537 15.2124 15.7045 15.3645 15.219 15.3645C13.9369 15.3645 12.8984 14.3157 12.8984 13.0215C12.8984 11.7273 13.9369 10.6785 15.219 10.6785C15.7045 10.6785 16.152 10.8288 16.5252 11.0863V10.7995ZM24.4544 10.682C23.9274 10.682 23.4298 10.8461 23.0963 11.3023V10.8029H21.7831V15.2435H23.1101V12.9057C23.1101 12.2301 23.5593 11.9001 24.0984 11.9001C24.6773 11.9001 25.0107 12.2491 25.0107 12.8971V15.2401H26.3274V12.4167C26.3291 11.3835 25.5153 10.682 24.4544 10.682ZM10.9788 15.2401H12.3576V8.82106H10.9788V15.2401ZM4.9209 15.2418H6.38094V8.81934H4.9209V15.2418ZM10.0285 8.81934C10.0285 10.2103 9.49109 11.5027 8.53559 12.4634L10.5537 15.2418H8.74984L6.55718 12.225L7.12219 11.7982C8.05524 11.0949 8.6047 9.99255 8.59606 8.82279L10.0285 8.81934Z" fill="#0A0B09"/>
</g>
</g>
</svg>
