<svg width="58" height="44" viewBox="0 0 58 44" fill="none" xmlns="http://www.w3.org/2000/svg">
<g id="stue_2.svg" clip-path="url(#clip0_7101_74)">
<path id="Vector" d="M50.3368 14.8576V11.8524H58L55.5207 0.583008H43.0492L40.57 11.8524H48.8342V21.6193H41.3212V14.8576H12.772V21.6193H0V38.8991H4.50777V40.4017H12.772V38.8991H41.3212V40.4017H48.8342V41.9043H45.0777V43.4068H54.0933V41.9043H50.3368V38.8991H54.0933V21.6193H50.3368V14.8576ZM44.2513 2.0856H54.2435L56.1969 10.3498H42.3731L44.2513 2.0856ZM14.2746 16.3602H39.8187V27.9302C39.8187 28.2307 39.5933 28.3809 39.3679 28.3809H14.7254C14.4249 28.3809 14.2746 28.1556 14.2746 27.9302V16.3602ZM1.50259 23.1219H12.772V27.9302C12.772 29.0571 13.6736 29.8835 14.7254 29.8835H39.2927C40.4197 29.8835 41.2461 28.982 41.2461 27.9302V23.1219H48.7591V37.3965H1.50259V23.1219ZM52.5907 23.1219V37.3965H50.3368V23.1219H52.5907Z" fill="#122568"/>
</g>
<defs>
<clipPath id="clip0_7101_74">
<rect width="58" height="42.8238" fill="white" transform="translate(0 0.583008)"/>
</clipPath>
</defs>
</svg>
