<svg width="190" height="54" viewBox="0 0 190 54" fill="none" xmlns="http://www.w3.org/2000/svg">
<g id="flu-e-gger_neg.svg" clip-path="url(#clip0_7229_3607)">
<g id="Group">
<path id="Vector" d="M8.54201 24.0664H26.5292V16.8377H8.54201V7.61882H29.0827V0.390137H-0.000976562V41.2557H8.54201V24.0664Z" fill="white"/>
<path id="Vector_2" d="M172.417 41.2556H180.387V25.4933C180.387 22.1324 181.523 18.2646 187.729 18.2646C188.47 18.2646 189.325 18.2646 190.001 18.3773V10.2943C189.494 10.238 188.977 10.1816 188.461 10.1816C183.626 10.1816 181.805 13.1388 180.153 16.2181H180.04V10.9796H172.417V41.2556Z" fill="white"/>
<path id="Vector_3" d="M39.9167 0.390137H31.7773V41.265H39.9167V5.83512V0.390137Z" fill="white"/>
<path id="Vector_4" d="M71.3656 10.9797H63.3953V28.46C63.3953 33.8674 59.8654 35.3507 57.2462 35.3507C54.796 35.3507 52.0641 34.44 52.0641 29.7743V10.9797H44.0938V30.9008C44.0938 38.6458 48.4216 42.0536 54.4017 42.0536C58.6168 42.0536 61.7993 40.2324 63.6206 36.9842H63.7332V41.2557H71.3562V10.9797H71.3656ZM44.1031 6.3139H52.0735V0.390137H44.1031V6.3139ZM63.3953 6.3139H71.3656V0.390137H63.3953V6.3139Z" fill="white"/>
<path id="Vector_5" d="M148.506 23.0994C148.966 19.1189 150.956 16.725 154.711 16.725C157.274 16.725 160.4 18.2083 160.86 23.0994H148.506ZM160.513 32.384C159.884 34.5432 157.612 35.6886 155.387 35.6886C148.956 35.6886 148.496 30.5628 148.271 28.2909H169.047V26.8639C169.047 13.0356 160.795 10.1816 154.814 10.1816C141.549 10.1816 140.301 21.8508 140.301 25.4933C140.301 37.9604 146.844 42.0536 155.387 42.0536C160.569 42.0536 166.596 39.6596 168.709 32.3746H160.513V32.384Z" fill="white"/>
<path id="Vector_6" d="M115.977 26.2913C115.977 19.2316 119.281 17.0724 122.239 17.0724C126.679 17.0724 129.073 21.0528 129.073 25.9533C129.073 30.1028 127.712 34.7216 122.304 34.7216C117.573 34.7122 115.977 30.1591 115.977 26.2913ZM129.355 10.9796V15.4764H129.242C128.275 13.4862 126.003 10.1816 120.361 10.1816C113.705 10.1816 107.781 15.3074 107.781 25.7843C107.781 36.3739 113.527 41.434 120.812 41.434C125.59 41.434 127.59 39.2184 128.895 36.8808L129.007 36.9935V40.636C129.007 45.5271 126.961 47.583 122.689 47.583C118.08 47.583 117.451 46.0434 117.113 44.5132H108.457C108.795 50.9439 115.404 53.6194 121.666 53.6194C136.583 53.6194 136.978 44.9075 136.978 39.669V10.9796H129.355Z" fill="white"/>
<path id="Vector_7" d="M83.1663 26.2913C83.1663 19.2316 86.4709 17.0724 89.4281 17.0724C93.8685 17.0724 96.2625 21.0528 96.2625 25.9533C96.2625 30.1028 94.8918 34.7216 89.4844 34.7216C84.7623 34.7122 83.1663 30.1591 83.1663 26.2913ZM96.5441 10.9796V15.4764H96.4314C95.4645 13.4862 93.1832 10.1816 87.5505 10.1816C80.8945 10.1816 74.9707 15.3074 74.9707 25.7843C74.9707 36.3739 80.7161 41.434 88.0011 41.434C92.7796 41.434 94.7792 39.2184 96.0841 36.8808L96.1967 36.9935V40.636C96.1967 45.5271 94.1502 47.583 89.8787 47.583C85.2692 47.583 84.6402 46.0434 84.3023 44.5132H75.6466C75.9846 50.9439 82.5937 53.6194 88.8554 53.6194C103.773 53.6194 104.167 44.9075 104.167 39.669V10.9796H96.5441Z" fill="white"/>
</g>
</g>
<defs>
<clipPath id="clip0_7229_3607">
<rect width="190.002" height="53.22" fill="white" transform="translate(-0.000976562 0.390137)"/>
</clipPath>
</defs>
</svg>
