<svg width="37" height="24" viewBox="0 0 37 24" fill="none" xmlns="http://www.w3.org/2000/svg">
<g id="mastercard.svg">
<path id="XMLID_1775_" d="M9.35019 23.6002V22.1002C9.35019 21.5002 8.9502 21.1002 8.3502 21.1002C8.0502 21.1002 7.7502 21.2002 7.4502 21.5002C7.2502 21.2002 7.0502 21.1002 6.6502 21.1002C6.3502 21.1002 6.1502 21.2002 5.9502 21.5002V21.2002H5.4502V23.7002H5.9502V22.3002C5.9502 21.9002 6.1502 21.7002 6.5502 21.7002C6.9502 21.7002 7.0502 21.9002 7.0502 22.3002V23.7002H7.5502V22.3002C7.5502 21.9002 7.8502 21.7002 8.1502 21.7002C8.5502 21.7002 8.6502 21.9002 8.6502 22.3002V23.7002L9.35019 23.6002ZM17.3502 21.1002H16.4502V20.4002H15.9502V21.1002H15.4502V21.6002H15.9502V22.7002C15.9502 23.3002 16.1502 23.6002 16.7502 23.6002C16.9502 23.6002 17.2502 23.5002 17.4502 23.4002L17.3502 23.0002C17.1502 23.1002 17.0502 23.1002 16.8502 23.1002C16.5502 23.1002 16.4502 22.9002 16.4502 22.7002V21.6002H17.3502V21.1002ZM21.9502 21.1002C21.6502 21.1002 21.4502 21.3002 21.3502 21.5002V21.2002H20.8502V23.7002H21.3502V22.3002C21.3502 21.9002 21.5502 21.7002 21.8502 21.7002C21.9502 21.7002 22.0502 21.7002 22.1502 21.8002L22.3502 21.3002C22.2502 21.1002 22.0502 21.1002 21.9502 21.1002ZM15.0502 21.3002C14.7502 21.1002 14.4502 21.0002 14.0502 21.0002C13.4502 21.0002 13.0502 21.3002 13.0502 21.8002C13.0502 22.2002 13.3502 22.4002 13.8502 22.5002H14.1502C14.4502 22.6002 14.5502 22.6002 14.5502 22.8002C14.5502 23.0002 14.3502 23.1002 13.9502 23.1002C13.5502 23.1002 13.3502 23.0002 13.1502 22.8002L12.9502 23.3002C13.2502 23.5002 13.6502 23.6002 14.0502 23.6002C14.7502 23.6002 15.1502 23.3002 15.1502 22.8002C15.1502 22.4002 14.8502 22.1002 14.3502 22.1002H14.0502C13.8502 22.1002 13.6502 22.0002 13.6502 21.9002C13.6502 21.7002 13.8502 21.6002 14.1502 21.6002C14.4502 21.6002 14.7502 21.7002 14.9502 21.8002L15.0502 21.3002ZM29.4502 21.1002C29.1502 21.1002 28.9502 21.3002 28.8502 21.5002V21.2002H28.3502V23.7002H28.8502V22.3002C28.8502 21.9002 29.0502 21.7002 29.3502 21.7002C29.4502 21.7002 29.5502 21.7002 29.6502 21.8002L29.8502 21.3002C29.6502 21.1002 29.5502 21.1002 29.4502 21.1002ZM22.5502 22.4002C22.5502 23.1002 23.0502 23.7002 23.8502 23.7002C24.2502 23.7002 24.4502 23.6002 24.7502 23.4002L24.4502 23.0002C24.2502 23.2002 24.0502 23.2002 23.8502 23.2002C23.4502 23.2002 23.1502 22.9002 23.1502 22.4002C23.1502 21.9002 23.4502 21.6002 23.8502 21.6002C24.0502 21.6002 24.2502 21.7002 24.4502 21.8002L24.7502 21.4002C24.4502 21.2002 24.2502 21.1002 23.8502 21.1002C23.0502 21.1002 22.5502 21.6002 22.5502 22.4002ZM27.5502 22.4002V21.2002H26.9502V21.5002C26.7502 21.3002 26.5502 21.1002 26.1502 21.1002C25.4502 21.1002 24.9502 21.6002 24.9502 22.4002C24.9502 23.1002 25.4502 23.7002 26.1502 23.7002C26.5502 23.7002 26.7502 23.6002 26.9502 23.3002V23.6002H27.4502V22.4002H27.5502ZM25.5502 22.4002C25.5502 22.0002 25.8502 21.6002 26.2502 21.6002C26.6502 21.6002 26.9502 21.9002 26.9502 22.4002C26.9502 22.8002 26.6502 23.2002 26.2502 23.2002C25.8502 23.1002 25.5502 22.8002 25.5502 22.4002ZM19.0502 21.1002C18.3502 21.1002 17.8502 21.6002 17.8502 22.4002C17.8502 23.2002 18.3502 23.7002 19.1502 23.7002C19.5502 23.7002 19.8502 23.6002 20.1502 23.4002L19.8502 23.0002C19.6502 23.2002 19.3502 23.3002 19.1502 23.3002C18.8502 23.3002 18.4502 23.1002 18.4502 22.7002H20.2502C20.2502 22.6002 20.2502 22.6002 20.2502 22.5002C20.2502 21.6002 19.7502 21.1002 19.0502 21.1002ZM19.0502 21.5002C19.3502 21.5002 19.6502 21.7002 19.6502 22.1002H18.3502C18.4502 21.8002 18.6502 21.5002 19.0502 21.5002ZM32.4502 22.4002V20.2002H31.9502V21.5002C31.7502 21.3002 31.5502 21.1002 31.1502 21.1002C30.4502 21.1002 29.9502 21.6002 29.9502 22.4002C29.9502 23.1002 30.4502 23.7002 31.1502 23.7002C31.5502 23.7002 31.7502 23.6002 31.9502 23.3002V23.6002H32.4502V22.4002ZM30.5502 22.4002C30.5502 22.0002 30.8502 21.6002 31.2502 21.6002C31.6502 21.6002 31.9502 21.9002 31.9502 22.4002C31.9502 22.8002 31.6502 23.2002 31.2502 23.2002C30.7502 23.1002 30.5502 22.8002 30.5502 22.4002ZM12.4502 22.4002V21.2002H11.9502V21.5002C11.7502 21.3002 11.5502 21.1002 11.1502 21.1002C10.4502 21.1002 9.9502 21.6002 9.9502 22.4002C9.9502 23.1002 10.4502 23.7002 11.1502 23.7002C11.5502 23.7002 11.7502 23.6002 11.9502 23.3002V23.6002H12.4502V22.4002ZM10.4502 22.4002C10.4502 22.0002 10.7502 21.6002 11.1502 21.6002C11.5502 21.6002 11.8502 21.9002 11.8502 22.4002C11.8502 22.8002 11.5502 23.2002 11.1502 23.2002C10.6502 23.1002 10.4502 22.8002 10.4502 22.4002Z" fill="black"/>
<g id="Group">
<path id="rect19" d="M22.9506 2.2998H14.8506V16.8998H22.9506V2.2998Z" fill="#FF5A00"/>
<path id="XMLID_330_" d="M15.4502 9.5998C15.4502 6.5998 16.8502 3.9998 18.9502 2.2998C17.3502 1.0998 15.3502 0.299805 13.2502 0.299805C8.1502 0.399805 3.9502 4.4998 3.9502 9.5998C3.9502 14.6998 8.0502 18.8998 13.2502 18.8998C15.4502 18.8998 17.3502 18.1998 18.9502 16.8998C16.8502 15.1998 15.4502 12.5998 15.4502 9.5998Z" fill="#EB001B"/>
<path id="path22" d="M33.9502 9.5998C33.9502 14.6998 29.8502 18.8998 24.6502 18.8998C22.4502 18.8998 20.5502 18.1998 18.9502 16.8998C21.1502 15.1998 22.4502 12.5998 22.4502 9.5998C22.4502 6.5998 21.1502 3.9998 18.9502 2.2998C20.5502 1.0998 22.5502 0.299805 24.6502 0.299805C29.8502 0.399805 33.9502 4.4998 33.9502 9.5998Z" fill="#F79E1B"/>
</g>
</g>
</svg>
