<svg width="40" height="40" viewBox="0 0 40 40" fill="none" xmlns="http://www.w3.org/2000/svg">
<g id="svanemaerket 1" clip-path="url(#clip0_7103_723)">
<path id="Vector" d="M20.0004 35.3706C28.4893 35.3706 35.3715 28.4889 35.3715 19.9995C35.3715 11.5106 28.4899 4.62891 20.0004 4.62891C11.5115 4.62891 4.62988 11.5106 4.62988 19.9995C4.62988 28.4884 11.5115 35.3706 20.0004 35.3706Z" fill="white"/>
<path id="Vector_2" d="M20 40C31.0456 40 40 31.0456 40 20C40 8.95444 31.0456 0 20 0C8.95444 0 0 8.95444 0 20C0 31.0456 8.95444 40 20 40Z" fill="white"/>
<g id="Group">
<path id="Vector_3" d="M6.7521 8.84978C7.05899 9.13111 7.39149 9.00322 7.64727 8.72189C7.92861 8.415 7.87744 8.15928 7.72399 8.00578C7.57055 7.85233 7.41705 7.9035 7.31477 7.95467C7.13572 8.05694 6.93116 8.21039 6.59866 8.415C6.18944 8.67078 5.88255 8.59406 5.67794 8.38944C5.26873 8.03139 5.42218 7.46872 5.75466 7.11067C6.13827 6.67589 6.67538 6.548 7.11016 6.93161L6.77766 7.28967C6.49633 7.0595 6.24061 7.16183 6.03599 7.392C5.88255 7.54544 5.75466 7.82678 5.95927 8.00578C6.11272 8.13367 6.26616 8.10811 6.44522 8.00578C6.47077 7.98022 7.00788 7.64772 7.13572 7.571C7.46822 7.36639 7.80072 7.44317 8.00533 7.64772C8.46566 8.05694 8.28666 8.61961 7.90299 9.02883C7.49377 9.48917 6.93116 9.66822 6.4196 9.20783L6.7521 8.84978Z" fill="black"/>
<path id="Vector_4" d="M6.95703 5.98503L7.34064 5.67809L9.23325 6.9057L8.38925 4.78298L8.77286 4.47607L9.79592 7.18707L9.3867 7.51957L6.95703 5.98503Z" fill="black"/>
<path id="Vector_5" d="M9.87305 3.78554L10.3078 3.52979L12.6352 5.32006L12.2004 5.57583L11.6122 5.08988L10.6915 5.65255L10.8449 6.39422L10.4357 6.65L9.87305 3.78554ZM10.5892 5.29448L11.3053 4.8597L10.3334 4.06686L10.5892 5.29448Z" fill="black"/>
<path id="Vector_6" d="M11.918 2.66035L12.3784 2.48132L14.2709 3.88799L13.5548 1.99543L13.9896 1.81641L14.987 4.34841L14.5267 4.52743L12.6341 3.12077L13.3758 4.98777L12.941 5.1668L11.918 2.66035Z" fill="black"/>
<path id="Vector_7" d="M14.9873 1.53421L16.9054 1.125L16.9822 1.53421L15.5244 1.84111L15.6778 2.53167L17.0333 2.22476L17.11 2.60839L15.7545 2.9153L15.9336 3.70813L17.417 3.37565L17.4937 3.78486L15.55 4.21964L14.9873 1.53421Z" fill="black"/>
<path id="Vector_8" d="M17.9033 0.946499L18.5683 0.920927L19.3867 3.04371L20.0517 0.869816L20.7166 0.844238L20.8445 3.58079L20.3842 3.60637L20.3074 1.5092L19.6169 3.63198L19.2333 3.65756L18.4148 1.58595L18.4915 3.68312L18.0312 3.70869L17.9033 0.946499Z" fill="black"/>
<path id="Vector_9" d="M23.0434 1.125L25.2173 1.53421L25.1406 1.94342L23.8362 1.68766L23.7084 2.37822L24.936 2.60839L24.8593 2.99202L23.6317 2.76184L23.4782 3.58029L24.8081 3.83604L24.7314 4.24525L22.9411 3.91277L23.069 3.22221L22.1738 3.04318L21.739 3.65702L21.2275 3.55471L23.0434 1.125ZM22.4296 2.71067L23.1457 2.83854L23.3759 1.61093L23.248 1.58536L22.4296 2.71067Z" fill="black"/>
<path id="Vector_10" d="M26.2145 1.89209L27.4165 2.37802C27.9791 2.6082 28.1582 2.96625 27.9791 3.40102C27.7745 3.88696 27.3909 3.86138 27.2886 3.86138C27.4421 3.93811 27.6211 4.14271 27.4421 4.55194C27.3142 4.83327 27.263 5.14016 27.3142 5.26805L26.8538 5.1146C26.8282 4.98672 26.8794 4.83327 26.9306 4.70539C27.1096 4.24503 27.1096 3.98928 26.7003 3.83583L26.061 3.58008L25.6262 4.62869L25.1914 4.44966L26.2145 1.89209ZM26.1888 3.22203L26.905 3.52894C27.1863 3.63124 27.3909 3.55452 27.4932 3.29876C27.6211 2.96628 27.4421 2.8384 27.2119 2.7361L26.4958 2.45477L26.1888 3.22203Z" fill="black"/>
<path id="Vector_11" d="M29.1815 3.19678L29.5907 3.45253L28.9257 4.50114L30.6137 4.09193L31.1252 4.39884L29.6162 4.75689L29.7441 6.77734L29.2326 6.47045L29.1559 4.88478L28.6188 5.01266L28.1329 5.80555L27.7236 5.54977L29.1815 3.19678Z" fill="black"/>
<path id="Vector_12" d="M31.7659 4.93605L33.2493 6.21483L32.9679 6.52172L31.8426 5.54983L31.3823 6.08692L32.4308 6.98203L32.1751 7.28898L31.1265 6.39381L30.615 7.00765L31.7659 8.00509L31.4845 8.31198L29.9756 7.00765L31.7659 4.93605Z" fill="black"/>
<path id="Vector_13" d="M33.7599 6.70117L35.1921 8.36356L34.8853 8.64489L34.3226 7.97995L32.5579 9.48889L32.251 9.13084L34.0157 7.62189L33.453 6.95695L33.7599 6.70117Z" fill="black"/>
</g>
<path id="Vector_14" d="M15.8066 5.21732L4.62988 20.5629V19.9746C4.62988 12.9668 9.36133 7.03343 15.8066 5.21732ZM28.6966 7.31448C27.827 6.72626 26.9063 6.21476 25.9344 5.80554L12.1749 24.7567C12.8143 25.0892 13.1724 25.6518 14.2465 25.6518C14.8603 25.6518 15.6532 25.2426 16.4204 24.194L28.6966 7.31448ZM6.08766 26.5473C7.13627 26.5473 8.51733 26.1637 9.25905 25.5498C9.94961 24.9872 10.3332 24.5013 11.0493 24.5013C11.1516 24.5013 11.2795 24.5013 11.3818 24.5268L25.1668 5.52404C24.1183 5.14041 23.0185 4.88465 21.8932 4.75676L6.08766 26.5473ZM6.42016 27.2123C6.82938 27.9795 7.31533 28.7212 7.82683 29.3862L9.41249 27.2123H6.42016ZM24.809 27.2123L18.9268 35.3195C19.2849 35.3451 19.6429 35.3451 20.001 35.3451C20.9984 35.3451 21.9959 35.2428 22.9422 35.0638L28.6455 27.1865L24.809 27.2123ZM20.9983 4.65448C20.6658 4.62891 20.3334 4.62891 20.0009 4.62891C18.9523 4.62891 17.9293 4.73121 16.9574 4.93581L4.73244 21.7647C4.88589 23.1458 5.21837 24.4501 5.72988 25.7034L20.9983 4.65448ZM29.6172 27.2123L24.0929 34.8084C28.185 33.683 31.6123 30.8953 33.5557 27.2123H29.6172ZM20.0005 27.2123L14.7576 34.45C15.8062 34.8337 16.9059 35.0894 18.0313 35.2429L23.8624 27.2123L20.0005 27.2123ZM15.1924 27.2123L11.2538 32.6343C12.1233 33.2225 13.0184 33.734 13.9903 34.1432L19.0287 27.2121L15.1924 27.2123ZM10.3842 27.2123L8.33816 30.0255C9.02872 30.8184 9.79594 31.5345 10.6144 32.1739L14.2205 27.2123H10.3842ZM11.0747 24.9872C10.7678 24.9872 10.512 25.2429 10.512 25.5498C10.512 25.8568 10.7678 26.1125 11.0747 26.1125C11.3817 26.1125 11.6374 25.8568 11.6374 25.5498C11.6374 25.2174 11.3817 24.9872 11.0747 24.9872ZM35.3714 19.3094C35.3458 18.9002 35.3202 18.5166 35.2691 18.1074L29.8727 25.524H30.8446L35.3714 19.3094ZM33.888 13.4017L25.0647 25.55H26.0366L34.2721 14.22C34.1442 13.9387 34.0159 13.6574 33.888 13.4017ZM31.6118 9.92337L20.2563 25.55H21.2281L32.1231 10.5373C31.9697 10.3327 31.7908 10.1024 31.6118 9.92337Z" fill="#009A44"/>
</g>
<defs>
<clipPath id="clip0_7103_723">
<rect width="40" height="40" fill="white"/>
</clipPath>
</defs>
</svg>
