<svg width="37" height="24" viewBox="0 0 37 24" fill="none" xmlns="http://www.w3.org/2000/svg">
<g id="swish_6.svg">
<g id="_x30_2-Secondary-_x28_Horizontal_x29__x2F_Colour_x2F_Light-background_x2F_Swish_x5F_Logo_x5F_Secondary_x5F_Light-BG">
<g id="Wordmark_x2F_Swish">
<path id="swish_xAE_" d="M36.9387 9.24905C36.9387 9.10736 36.9629 8.97432 37.0147 8.8551C37.0666 8.73242 37.1374 8.62529 37.2255 8.53199C37.3136 8.44041 37.4173 8.36957 37.5365 8.316C37.6558 8.26244 37.7836 8.23825 37.9184 8.23825C38.0566 8.23825 38.1862 8.26244 38.3054 8.316C38.4264 8.36957 38.5301 8.44041 38.6216 8.53199C38.7115 8.62356 38.7806 8.73069 38.8324 8.8551C38.8843 8.97777 38.9085 9.10909 38.9085 9.24905C38.9085 9.38728 38.8843 9.52378 38.8324 9.643C38.7806 9.76568 38.7098 9.87281 38.6216 9.96611C38.5318 10.0577 38.4264 10.1285 38.3054 10.1821C38.1845 10.2357 38.0566 10.2598 37.9184 10.2598C37.7819 10.2598 37.654 10.2357 37.5365 10.1821C37.4173 10.1285 37.3136 10.0577 37.2255 9.96611C37.1357 9.87453 37.0683 9.76741 37.0147 9.643C36.9663 9.52378 36.9387 9.39073 36.9387 9.24905ZM37.1409 9.24905C37.1409 9.36481 37.1633 9.47367 37.2031 9.57389C37.2428 9.6741 37.2981 9.7605 37.3672 9.83479C37.4381 9.90909 37.5227 9.96611 37.6143 10.0093C37.7093 10.0508 37.813 10.075 37.9236 10.075C38.0376 10.075 38.1413 10.0525 38.2381 10.0093C38.3331 9.96611 38.416 9.90736 38.4869 9.83479C38.5577 9.7605 38.6147 9.6741 38.6545 9.57389C38.6942 9.47194 38.7167 9.36654 38.7167 9.24905C38.7167 9.13328 38.6942 9.02443 38.6545 8.92421C38.6147 8.82227 38.5577 8.7376 38.4869 8.6633C38.416 8.589 38.3314 8.53199 38.2381 8.48879C38.1413 8.44732 38.0394 8.42313 37.9236 8.42313C37.813 8.42313 37.7093 8.44559 37.6143 8.48879C37.5193 8.53026 37.4381 8.59073 37.3672 8.6633C37.2964 8.7376 37.2428 8.82399 37.2031 8.92421C37.1599 9.02788 37.1409 9.13501 37.1409 9.24905ZM37.5832 8.81708C37.5832 8.75488 37.6126 8.72551 37.6748 8.72551H37.9892C38.0912 8.72551 38.1672 8.75315 38.2277 8.81017C38.2899 8.86892 38.3158 8.94494 38.3158 9.0417C38.3158 9.08145 38.3072 9.11773 38.2968 9.15056C38.2847 9.17993 38.2709 9.20931 38.2519 9.23177C38.2329 9.25423 38.2139 9.27324 38.1897 9.28879C38.1672 9.30434 38.1465 9.31298 38.124 9.31816V9.32335C38.1257 9.32507 38.1292 9.32853 38.1327 9.33544C38.1361 9.3389 38.1413 9.34581 38.1447 9.35445C38.1482 9.36481 38.1551 9.37345 38.162 9.38209L38.3054 9.66201C38.3227 9.69138 38.3279 9.71903 38.3175 9.7363C38.3072 9.75877 38.2899 9.76395 38.2553 9.76395H38.2208C38.1689 9.76395 38.1327 9.74149 38.1119 9.69829L37.9512 9.36136H37.7802V9.67756C37.7802 9.73976 37.7525 9.76568 37.6955 9.76568H37.6713C37.6143 9.76568 37.5867 9.73803 37.5867 9.67756V8.81708H37.5832ZM37.9426 9.2214C37.9962 9.2214 38.0376 9.20412 38.067 9.17302C38.0964 9.14365 38.1102 9.09872 38.1102 9.04343C38.1102 8.98987 38.0946 8.9484 38.067 8.91903C38.0393 8.89138 37.9962 8.8741 37.9443 8.8741H37.775V9.2214H37.9426ZM29.8873 9.88317C30.2018 9.88317 30.4644 9.92291 30.6821 10.0024C30.8998 10.0819 31.0692 10.1579 31.1918 10.2236C31.2972 10.2789 31.3594 10.3514 31.375 10.4447C31.394 10.5363 31.3784 10.6348 31.3266 10.7385L31.235 10.9061C31.1797 11.0167 31.1106 11.0806 31.0242 11.1013C30.9396 11.1203 30.8376 11.1048 30.7219 11.0529C30.6165 11.0046 30.4921 10.951 30.3469 10.9009C30.2 10.849 30.0273 10.8231 29.832 10.8231C29.6298 10.8231 29.4726 10.8629 29.3638 10.9424C29.2532 11.0218 29.1962 11.1376 29.1962 11.2827C29.1962 11.4106 29.2532 11.5177 29.3672 11.5972C29.4813 11.6767 29.6247 11.7475 29.7975 11.8097C29.972 11.8719 30.1603 11.9376 30.3573 12.0084C30.556 12.0793 30.7426 12.1691 30.9171 12.2832C31.0916 12.3938 31.2368 12.5337 31.3473 12.7065C31.4614 12.8793 31.5184 13.0953 31.5184 13.3596C31.5184 13.5687 31.4769 13.7605 31.394 13.9333C31.3128 14.1078 31.1918 14.2616 31.0346 14.3894C30.8791 14.5173 30.6908 14.6192 30.4679 14.6935C30.2467 14.7678 30.0031 14.8041 29.7335 14.8041C29.3534 14.8041 29.032 14.7488 28.7728 14.6365C28.5119 14.5259 28.3115 14.4223 28.1715 14.3221C28.0661 14.2598 28.0091 14.1838 27.997 14.0922C27.9832 14.0007 28.0143 13.9022 28.0782 13.7985L28.1888 13.6309C28.2562 13.5324 28.3322 13.4754 28.4134 13.4633C28.4946 13.4495 28.5949 13.4771 28.7141 13.5376C28.8247 13.5998 28.9663 13.6672 29.1409 13.7449C29.3154 13.821 29.521 13.859 29.7629 13.859C29.9651 13.859 30.1257 13.8158 30.2398 13.7311C30.3556 13.6465 30.4143 13.529 30.4143 13.3821C30.4143 13.2542 30.3573 13.1506 30.2432 13.0728C30.1292 12.9968 29.9858 12.9259 29.813 12.8603C29.6385 12.7946 29.4502 12.7272 29.2532 12.6529C29.0545 12.5786 28.8679 12.4853 28.6933 12.3765C28.5188 12.2659 28.3737 12.1259 28.2631 11.9532C28.1491 11.7804 28.0921 11.5592 28.0921 11.2897C28.0921 11.0633 28.1404 10.8611 28.2355 10.6814C28.3305 10.5035 28.4601 10.3566 28.6208 10.2408C28.7815 10.1251 28.975 10.0335 29.191 9.97302C29.4087 9.91427 29.6402 9.88317 29.8873 9.88317ZM16.2234 9.88317C16.5378 9.88317 16.8005 9.92291 17.0182 10.0024C17.2359 10.0819 17.4052 10.1579 17.5279 10.2236C17.6333 10.2789 17.6955 10.3514 17.7111 10.4447C17.7301 10.5363 17.7145 10.6348 17.6627 10.7385L17.5711 10.9061C17.5158 11.0167 17.4467 11.0806 17.3603 11.1013C17.2756 11.1203 17.1737 11.1048 17.0579 11.0529C16.9525 11.0046 16.8281 10.951 16.683 10.9009C16.5361 10.849 16.3633 10.8231 16.1681 10.8231C15.9659 10.8231 15.8087 10.8629 15.6998 10.9424C15.5892 11.0218 15.5322 11.1376 15.5322 11.2827C15.5322 11.4106 15.5892 11.5177 15.7033 11.5972C15.8173 11.6767 15.9607 11.7475 16.1335 11.8097C16.3063 11.8737 16.4964 11.9376 16.6933 12.0084C16.8921 12.0793 17.0787 12.1691 17.2532 12.2832C17.4277 12.3938 17.5728 12.5337 17.6834 12.7065C17.7975 12.8793 17.8545 13.0953 17.8545 13.3596C17.8545 13.5687 17.813 13.7605 17.7301 13.9333C17.6489 14.1078 17.5279 14.2616 17.3707 14.3894C17.2152 14.5173 17.0268 14.6192 16.8039 14.6935C16.5828 14.7678 16.3391 14.8041 16.0696 14.8041C15.6895 14.8041 15.3681 14.7488 15.1089 14.6365C14.8463 14.5259 14.6476 14.424 14.5059 14.3255C14.4005 14.2633 14.3435 14.1873 14.3314 14.0957C14.3175 14.0041 14.3486 13.9056 14.4126 13.802L14.5232 13.6344C14.5905 13.5359 14.6666 13.4789 14.7478 13.4668C14.829 13.4529 14.9292 13.4806 15.0484 13.5411C15.159 13.6033 15.3007 13.6706 15.4752 13.7484C15.6497 13.8244 15.8553 13.8624 16.0972 13.8624C16.2994 13.8624 16.4601 13.8192 16.5741 13.7346C16.6899 13.6499 16.7486 13.5324 16.7486 13.3855C16.7486 13.2577 16.6916 13.154 16.5776 13.0763C16.4635 13.0002 16.3201 12.9294 16.1473 12.8637C15.9728 12.7981 15.7845 12.7307 15.5875 12.6564C15.3888 12.5821 15.2022 12.4888 15.0277 12.3799C14.8532 12.2694 14.708 12.1294 14.5975 11.9566C14.4869 11.7838 14.4264 11.5627 14.4264 11.2931C14.4264 11.0668 14.4748 10.8646 14.5698 10.6849C14.6648 10.5069 14.7944 10.3601 14.9551 10.2443C15.1158 10.1285 15.3093 10.037 15.5253 9.97648C15.7482 9.91082 15.9797 9.88317 16.2234 9.88317ZM32.9836 8.15186C33.2411 8.15186 33.3689 8.27972 33.3689 8.53717V10.4344C33.3689 10.4966 33.3672 10.5484 33.3638 10.5951C33.3603 10.6434 33.3551 10.6832 33.3482 10.7195C33.3396 10.7627 33.3378 10.7989 33.3378 10.83H33.3568C33.4121 10.7195 33.4899 10.6071 33.5918 10.4948C33.6938 10.3808 33.813 10.2789 33.9512 10.1855C34.0895 10.094 34.245 10.0179 34.4195 9.96438C34.594 9.91082 34.7841 9.88317 34.9862 9.88317C35.508 9.88317 35.9089 10.0249 36.1957 10.3065C36.4808 10.5881 36.6225 11.0408 36.6225 11.6681V14.3013C36.6225 14.5588 36.4946 14.6866 36.2372 14.6866H35.8432C35.5858 14.6866 35.4579 14.5588 35.4579 14.3013V11.9082C35.4579 11.6231 35.4095 11.3881 35.3111 11.2136C35.2126 11.0391 35.0173 10.951 34.7236 10.951C34.5214 10.951 34.3365 10.9907 34.1689 11.0702C33.9996 11.1497 33.8579 11.2586 33.7422 11.3985C33.6264 11.5367 33.5348 11.7009 33.4709 11.8909C33.4052 12.081 33.3741 12.2866 33.3741 12.5078V14.3013C33.3741 14.5588 33.2463 14.6866 32.9888 14.6866H32.5931C32.3357 14.6866 32.2078 14.5588 32.2078 14.3013V8.53717C32.2078 8.27972 32.3357 8.15186 32.5931 8.15186H32.9836ZM26.8756 9.9903C27.1262 9.9903 27.2506 10.1182 27.2506 10.3756V14.2961C27.2506 14.5536 27.1262 14.6814 26.8756 14.6814H26.4713C26.2208 14.6814 26.0964 14.5536 26.0964 14.2961V10.3791C26.0964 10.1216 26.2208 9.99376 26.4713 9.99376L26.8756 9.9903ZM19.0778 9.9903C19.3128 9.9903 19.4493 10.1043 19.4925 10.3307L20.2476 13.0745C20.2614 13.1419 20.27 13.2024 20.2787 13.2577C20.2873 13.313 20.3011 13.3665 20.3098 13.4132C20.3236 13.4685 20.3322 13.522 20.3357 13.5687H20.3547C20.3633 13.5203 20.372 13.4668 20.3806 13.4132C20.3944 13.3648 20.4031 13.3113 20.4117 13.2577C20.4221 13.2024 20.4342 13.1419 20.4532 13.0745L21.2428 10.3307C21.286 10.1095 21.426 10.0007 21.6661 10.0007H22.0152C22.2415 10.0007 22.3832 10.1113 22.4385 10.3307L23.2195 13.0745C23.2385 13.1419 23.2506 13.2024 23.261 13.2577C23.2713 13.313 23.2834 13.3665 23.2921 13.4132C23.3059 13.4685 23.3145 13.522 23.318 13.5687H23.337C23.3456 13.5203 23.3543 13.4668 23.3629 13.4132C23.3767 13.3648 23.3854 13.3113 23.394 13.2577C23.4044 13.2041 23.4165 13.1419 23.4355 13.0745L24.1802 10.3307C24.2355 10.1043 24.3771 9.9903 24.6035 9.9903H25.0268C25.1685 9.9903 25.2653 10.03 25.3206 10.1095C25.3776 10.1873 25.3862 10.2927 25.3465 10.424L24.1404 14.3635C24.0782 14.5778 23.9331 14.6866 23.7102 14.6866H23.0864C22.8514 14.6866 22.7115 14.576 22.6562 14.3566L21.9478 12.0102C21.9288 11.948 21.9132 11.8875 21.8994 11.827C21.8856 11.7648 21.8752 11.7113 21.8631 11.6594C21.8493 11.6041 21.8406 11.5506 21.8372 11.5039H21.8182C21.8044 11.5523 21.794 11.6059 21.7819 11.6594C21.7681 11.7078 21.7577 11.7648 21.7456 11.827C21.7318 11.8892 21.7197 11.9497 21.6972 12.0102L20.9888 14.3566C20.9335 14.5778 20.7918 14.6866 20.5655 14.6866H19.9314C19.7102 14.6866 19.5685 14.5778 19.508 14.3635L18.2985 10.4257C18.2622 10.2979 18.2743 10.1907 18.3296 10.1113C18.3884 10.0335 18.4851 9.99203 18.6182 9.99203L19.0778 9.9903Z" fill="#4A4A49" stroke="#F2F2F2" stroke-width="0.0691145" stroke-miterlimit="10"/>
</g>
<g id="Symbol_x2F_Colour">
<g id="Right-Swirl">
<path id="Base-Shape" fill-rule="evenodd" clip-rule="evenodd" d="M3.60645 17.4301C6.04619 18.5981 9.05958 18.0193 10.8807 15.8508C13.0371 13.2797 12.7036 9.44908 10.1326 7.29443L8.422 9.32813C10.4298 11.0145 10.689 14.0072 9.00601 16.015C7.66519 17.615 5.4518 18.1506 3.60645 17.4301Z" fill="url(#paint0_linear_7130_3761)"/>
<path id="Light-Cast" fill-rule="evenodd" clip-rule="evenodd" d="M3.60645 17.4301C6.04619 18.5981 9.05958 18.0193 10.8807 15.8508C11.1036 15.5847 11.2989 15.3065 11.4699 15.0162C11.755 13.2314 11.1261 11.3428 9.63841 10.097C9.26174 9.7791 8.85223 9.5251 8.42372 9.32812C10.4315 11.0145 10.6907 14.0072 9.00774 16.0149C7.66519 17.615 5.4518 18.1506 3.60645 17.4301Z" fill="url(#paint1_linear_7130_3761)"/>
</g>
<g id="Left-Swirl">
<path id="Base-shape" fill-rule="evenodd" clip-rule="evenodd" d="M8.84737 6.46383C6.40763 5.2958 3.39424 5.87463 1.57308 8.0431C-0.583296 10.6142 -0.249818 14.4448 2.32297 16.5995L4.03355 14.564C2.02405 12.8777 1.76314 9.885 3.4478 7.87722C4.79035 6.27895 7.00202 5.74331 8.84737 6.46383Z" fill="url(#paint2_linear_7130_3761)"/>
<path id="Shadow" fill-rule="evenodd" clip-rule="evenodd" d="M8.84739 6.46383C6.40765 5.2958 3.39426 5.87463 1.5731 8.0431C1.3502 8.30919 1.15496 8.58737 0.983897 8.87766C0.6988 10.6625 1.32774 12.5511 2.81543 13.7969C3.1921 14.1148 3.60161 14.3688 4.03012 14.5658C2.02234 12.8794 1.75971 9.88673 3.44437 7.87895C4.79038 6.27895 7.00204 5.74331 8.84739 6.46383Z" fill="url(#paint3_linear_7130_3761)"/>
</g>
</g>
</g>
</g>
<defs>
<linearGradient id="paint0_linear_7130_3761" x1="8.19205" y1="14.9182" x2="5.61092" y2="9.77567" gradientUnits="userSpaceOnUse">
<stop stop-color="#EF2131"/>
<stop offset="1" stop-color="#FECF2C"/>
</linearGradient>
<linearGradient id="paint1_linear_7130_3761" x1="10.2924" y1="10.4973" x2="5.76684" y2="18.3315" gradientUnits="userSpaceOnUse">
<stop stop-color="#FBC52C"/>
<stop offset="0.2639" stop-color="#F87130"/>
<stop offset="0.5608" stop-color="#EF52E2"/>
<stop offset="1" stop-color="#661EEC"/>
</linearGradient>
<linearGradient id="paint2_linear_7130_3761" x1="4.31202" y1="9.10473" x2="6.78739" y2="14.1361" gradientUnits="userSpaceOnUse">
<stop stop-color="#78F6D8"/>
<stop offset="0.2657" stop-color="#77D1F6"/>
<stop offset="0.5545" stop-color="#70A4F3"/>
<stop offset="1" stop-color="#661EEC"/>
</linearGradient>
<linearGradient id="paint3_linear_7130_3761" x1="2.19117" y1="13.3622" x2="6.6817" y2="5.55473" gradientUnits="userSpaceOnUse">
<stop stop-color="#536EED"/>
<stop offset="0.2467" stop-color="#54C3EC"/>
<stop offset="0.5642" stop-color="#64D769"/>
<stop offset="1" stop-color="#FECF2C"/>
</linearGradient>
</defs>
</svg>
