<svg width="58" height="50" viewBox="0 0 58 50" fill="none" xmlns="http://www.w3.org/2000/svg">
<g id="terasse_2.svg" clip-path="url(#clip0_7101_157)">
<g id="Group">
<path id="Vector" d="M23.3584 15.3989H27.872V17.6557H23.3584V15.3989Z" fill="#122568"/>
<path id="Vector_2" d="M57.2101 19.9124V16.5272H56.9844C57.5486 16.1886 58 15.6244 58 14.8345C58 13.819 57.0973 12.9163 56.0817 12.9163C55.0661 12.9163 54.1634 13.819 54.1634 14.8345C54.1634 15.5116 54.6148 16.1886 55.179 16.5272H54.9533V19.9124H39.1556V0.729492H19.9728V19.9124H3.04669V16.5272H2.82101C3.38521 16.1886 3.83658 15.6244 3.83658 14.8345C3.83658 13.819 2.93385 12.9163 1.91829 12.9163C0.902724 12.9163 0 13.819 0 14.8345C0 15.5116 0.451362 16.1886 1.01556 16.5272H0.789883V49.2509H3.04669V37.9668H36.8988V49.2509H39.1556V46.9941H54.9533V49.2509H57.2101V19.9124ZM54.9533 29.5038L49.1984 26.3443L54.9533 22.9591V29.5038ZM39.1556 29.5038V23.5233L44.572 26.4571L39.1556 29.5038ZM46.8288 28.2626L52.358 31.1964H41.6381L46.8288 28.2626ZM36.8988 28.8268L32.2724 26.3443L36.8988 23.6361V28.8268ZM41.4124 22.1692H51.9066L46.8288 25.103L41.4124 22.1692ZM29.9027 25.103L24.4864 22.1692H34.9805L29.9027 25.103ZM19.9728 29.5038L14.2179 26.3443L19.9728 22.9591V29.5038ZM22.2296 23.5233L27.6459 26.4571L22.2296 29.5038V23.5233ZM11.8482 25.103L6.43191 22.1692H16.9261L11.8482 25.103ZM3.04669 22.9591L9.59144 26.4571L3.04669 30.1809V22.9591ZM11.8482 28.2626L17.3774 31.1964H6.65759L11.8482 28.2626ZM29.9027 28.2626L35.4319 31.1964H24.7121L29.9027 28.2626ZM54.9533 33.4532V35.71H39.1556V33.4532H54.9533ZM22.2296 2.9863H36.8988V19.9124H22.2296V2.9863ZM3.04669 35.71V33.4532H36.8988V35.71H3.04669ZM54.9533 37.9668V40.2237H39.1556V37.9668H54.9533ZM39.1556 44.7373V42.4805H54.9533V44.7373H39.1556Z" fill="#122568"/>
</g>
</g>
<defs>
<clipPath id="clip0_7101_157">
<rect width="58" height="48.5214" fill="white" transform="translate(0 0.729492)"/>
</clipPath>
</defs>
</svg>
