<svg width="28" height="28" viewBox="0 0 28 28" fill="none" xmlns="http://www.w3.org/2000/svg">
<g id="ph:user">
<path id="Vector" d="M25.2571 23.1875C23.5913 20.3077 21.0243 18.2427 18.0285 17.2638C19.5104 16.3816 20.6617 15.0374 21.3056 13.4376C21.9496 11.8378 22.0506 10.0709 21.5931 8.40809C21.1356 6.74532 20.145 5.27869 18.7733 4.23343C17.4017 3.18817 15.7248 2.62207 14.0002 2.62207C12.2757 2.62207 10.5988 3.18817 9.22714 4.23343C7.85546 5.27869 6.86482 6.74532 6.40736 8.40809C5.94989 10.0709 6.05089 11.8378 6.69485 13.4376C7.3388 15.0374 8.49011 16.3816 9.97195 17.2638C6.97617 18.2416 4.40914 20.3066 2.74336 23.1875C2.68227 23.2872 2.64175 23.398 2.62419 23.5135C2.60664 23.629 2.61239 23.7469 2.64112 23.8601C2.66985 23.9734 2.72098 24.0798 2.79148 24.1729C2.86198 24.2661 2.95043 24.3442 3.05161 24.4027C3.15279 24.4611 3.26465 24.4987 3.38059 24.5132C3.49653 24.5277 3.6142 24.5189 3.72666 24.4872C3.83913 24.4555 3.9441 24.4016 4.03539 24.3286C4.12669 24.2557 4.20245 24.1652 4.2582 24.0625C6.31883 20.5013 9.96102 18.375 14.0002 18.375C18.0395 18.375 21.6816 20.5013 23.7423 24.0625C23.798 24.1652 23.8738 24.2557 23.9651 24.3286C24.0564 24.4016 24.1613 24.4555 24.2738 24.4872C24.3863 24.5189 24.5039 24.5277 24.6199 24.5132C24.7358 24.4987 24.8477 24.4611 24.9489 24.4027C25.05 24.3442 25.1385 24.2661 25.209 24.1729C25.2795 24.0798 25.3306 23.9734 25.3593 23.8601C25.3881 23.7469 25.3938 23.629 25.3763 23.5135C25.3587 23.398 25.3182 23.2872 25.2571 23.1875ZM7.87523 10.5C7.87523 9.28864 8.23446 8.10443 8.90748 7.09718C9.58051 6.08993 10.5371 5.30487 11.6563 4.84128C12.7755 4.3777 14.007 4.2564 15.1952 4.49274C16.3833 4.72907 17.4747 5.31242 18.3313 6.16902C19.1879 7.02561 19.7712 8.11698 20.0075 9.30512C20.2439 10.4933 20.1226 11.7248 19.659 12.844C19.1954 13.9632 18.4104 14.9198 17.4031 15.5928C16.3959 16.2658 15.2116 16.625 14.0002 16.625C12.3763 16.6233 10.8194 15.9774 9.67112 14.8292C8.52284 13.6809 7.87697 12.124 7.87523 10.5Z" fill="#122568"/>
</g>
</svg>
