<svg width="37" height="24" viewBox="0 0 37 24" fill="none" xmlns="http://www.w3.org/2000/svg">
<g id="visa.svg" clip-path="url(#clip0_7130_3705)">
<path id="Vector" d="M0.950195 9C0.950195 4.02944 4.97964 0 9.9502 0H27.9502C32.9208 0 36.9502 4.02944 36.9502 9V15C36.9502 19.9706 32.9208 24 27.9502 24H9.9502C4.97964 24 0.950195 19.9706 0.950195 15V9Z" fill="url(#paint0_linear_7130_3705)"/>
<path id="Vector_2" d="M19.4137 10.5753C19.3983 11.7804 20.496 12.4529 21.323 12.8527C22.1726 13.263 22.458 13.5261 22.4548 13.8929C22.4483 14.4544 21.777 14.7022 21.1487 14.7118C20.0525 14.7287 19.4153 14.4182 18.9086 14.1833L18.5137 16.0167C19.0221 16.2492 19.9633 16.4519 20.9395 16.4607C23.2306 16.4607 24.7297 15.3385 24.7378 13.5985C24.7467 11.3902 21.6594 11.2679 21.6805 10.2809C21.6878 9.98162 21.9756 9.66225 22.6064 9.581C22.9185 9.53997 23.7803 9.50859 24.7573 9.95507L25.1408 8.18123C24.6154 7.99138 23.94 7.80957 23.0993 7.80957C20.9427 7.80957 19.4258 8.94708 19.4137 10.5753ZM28.8256 7.96242C28.4073 7.96242 28.0546 8.20456 27.8973 8.57622L24.6243 16.3304H26.9139L27.3695 15.0811H30.1674L30.4317 16.3304H32.4496L30.6887 7.96242H28.8256ZM29.1458 10.223L29.8066 13.3652H27.997L29.1458 10.223ZM16.6377 7.96242L14.833 16.3304H17.0147L18.8186 7.96242H16.6377ZM13.4101 7.96242L11.1392 13.658L10.2206 8.81515C10.1128 8.27455 9.68715 7.96242 9.21449 7.96242H5.50209L5.4502 8.20537C6.2123 8.36948 7.07818 8.63415 7.60273 8.91732C7.92378 9.09028 8.0154 9.24151 8.12079 9.65259L9.86065 16.3304H12.1664L15.7013 7.96242H13.4101Z" fill="white"/>
</g>
<defs>
<linearGradient id="paint0_linear_7130_3705" x1="17.1221" y1="24" x2="24.4564" y2="0.489361" gradientUnits="userSpaceOnUse">
<stop stop-color="#222357"/>
<stop offset="1" stop-color="#254AA5"/>
</linearGradient>
<clipPath id="clip0_7130_3705">
<rect width="36" height="24" fill="white" transform="translate(0.950195)"/>
</clipPath>
</defs>
</svg>
