<svg width="58" height="50" viewBox="0 0 58 50" fill="none" xmlns="http://www.w3.org/2000/svg">
<g id="vindue_doer_2.svg" clip-path="url(#clip0_7101_194)">
<g id="Group">
<g id="Group_2">
<path id="Vector" d="M3.48047 16.3002H12.7605V29.0602H3.48047V16.3002ZM3.48047 4.7002H12.7605V11.6602H3.48047V4.7002ZM15.0805 16.3002H24.3605V29.0602H15.0805V16.3002ZM15.0805 4.7002H24.3605V11.6602H15.0805V4.7002Z" fill="white"/>
</g>
<g id="Group_3">
<path id="Vector_2" d="M3.48016 33.6999H24.3602L26.6802 31.3799H1.16016L3.48016 33.6999ZM32.4802 41.8199H55.6802V47.6199H32.4802V41.8199ZM32.4802 2.37988H55.6802V4.69988H32.4802V2.37988ZM15.0802 13.9799H24.3602V16.2999H15.0802V13.9799ZM3.48016 13.9799H12.7602V16.2999H3.48016V13.9799ZM15.0802 2.37988H24.3602V4.69988H15.0802V2.37988ZM3.48016 2.37988H12.7602V4.69988H3.48016V2.37988Z" fill="#D0D3E1"/>
</g>
<g id="Group_4">
<path id="Vector_3" d="M30.1602 0.0600586V49.9401H58.0002V0.0600586H30.1602ZM32.4802 47.6201V2.38006H55.6802V7.02006H53.3602V9.34006H55.6802V11.6601H53.3602V13.9801H55.6802V32.5401H53.3602V34.8601H55.6802V37.1801H53.3602V39.5001H55.6802V47.6201H32.4802Z" fill="#122568"/>
<path id="Vector_4" d="M34.8 23.2601H39.44V25.5801H34.8V23.2601ZM26.68 0.0600586H1.16V29.0601H0V31.3801H27.84V29.0601H26.68V0.0600586ZM12.76 29.0601H3.48V13.9801H12.76V29.0601ZM12.76 11.6601H3.48V2.38006H12.76V11.6601ZM24.36 29.0601H15.08V13.9801H24.36V29.0601ZM24.36 11.6601H15.08V2.38006H24.36V11.6601Z" fill="#122568"/>
</g>
</g>
</g>
<defs>
<clipPath id="clip0_7101_194">
<rect width="58" height="49.88" fill="white" transform="translate(0 0.0600586)"/>
</clipPath>
</defs>
</svg>
